<?xml version="1.0" encoding="utf-8"?>
<!-- Generator: Adobe Illustrator 27.1.1, SVG Export Plug-In . SVG Version: 6.00 Build 0)  -->
<svg version="1.1" id="Calque_1" xmlns="http://www.w3.org/2000/svg" xmlns:xlink="http://www.w3.org/1999/xlink" x="0px" y="0px"
	 viewBox="0 0 297.6 247.9" style="enable-background:new 0 0 297.6 247.9;" xml:space="preserve">
<style type="text/css">
	.st0{fill:#EF781A;}
	.st1{fill:#E52227;}
	.st2{fill:#329937;}
	.st3{fill:#D1D0D1;}
	.st4{clip-path:url(#SVGID_00000029037486215015065520000017423171551016340150_);}
	.st5{fill:none;stroke:#EF781A;stroke-miterlimit:10;}
	.st6{fill:#000E41;}
</style>
<path class="st0" d="M39.4,175.3c4,0,7.2,3.2,7.2,7.2s-3.2,7.2-7.2,7.2s-7.2-3.2-7.2-7.2S35.5,175.3,39.4,175.3 M39.4,173.3
	c-5.1,0-9.2,4.1-9.2,9.2c0,5.1,4.1,9.2,9.2,9.2s9.2-4.1,9.2-9.2C48.6,177.4,44.5,173.3,39.4,173.3L39.4,173.3z"/>
<circle class="st1" cx="39.4" cy="227.1" r="9.2"/>
<circle class="st2" cx="39.4" cy="204.8" r="9.2"/>
<g>
	<path class="st3" d="M35.1,95.9l-4.7-4.6v-3.5l1-3.4l-1-3.9l4.7-7.4l4.9-3l-1.2-3.4l4.2-2.5l1.2-1.7l1.5,1l3.5,0.3l5.2-2.2L65.2,61
		v2.4l-1.8,1.8l5.4,1.8h2l3.5,2.5l1.2-2.4l4-1.2l3,1.8l5.6,0.2l3.7,0.7l1.5-0.2l0.8-3.4l1.3-4.2L91.5,63l-2-2L88,63.2L84.1,61
		l-2.9-4.9l-2.9,2l2.5,1.5l-1,0.8V62l-2.4-0.8L75,57.3v-2.4l-5.7-2.4l-0.5-1.7l-1.5,0.8V50L66,52l2.9,2.5l5.1,2.7l-2.7-0.3l1.3,2.2
		l-2.4,1.2l-0.3,1.3l-3.5-1.5l3-0.3l1.2-1.5l-2-1.5L65,55.2L62.9,52l-3.8,1.3l-3.4-0.2l-1,2.2l-4.2,2.4l0.7,2.5l-3.9,1.5h-4
		l-2.9-1.5l-0.5-4.9l0.5-2.5c0,0,3,0.2,3.5,0.5s4.9,0.3,4.9,0.3l1-2.7l-2.2-2.5l-2.5-0.8l4.2-1l-0.5-1.3l2.5,0.8l2.4-2.2l2.4-1
		l1.3-1.7h4.9l-1.2-4.7l1.8-0.8l1.4,1L62.9,39l1.9,1.5l2.4-0.5l1.3,0.5l4.7-1.2l1.5,0.7l1.5-1.3l1.7,1.2l-0.8-3.2l1.2-1h3.5l-3-1.5
		l7.9-1.2h-7.6l-2-3.9l5.2-2.5h-3.9L76,28.8L73.1,29l-1.2,2.7l2.9,2.4l-8.9,5.2l1-2.4l-2.2-3.5l-5.6,2.2l-1.3-1l-0.5-4.2l6.4-2
		l4.7-4.4l5.6-3l12-0.8l14.1,3.2l2.4,1.3l-5.1,1.2l-5.1-1.2l-2-0.7l3.7,2.2l0.3,1.3l3.2,0.7l-1.3-1.7l4,1.2l-0.3-1.3l4-1l1.2,0.3
		v-3.2L108,23l-1.5,1.5l3,0.2l1.3-1.2l6.4-1.5v1.2l5.9-0.7l1.6,0.5l0.9-1.3c0,0-2.9-1.1-2.6-1.3s0.8-0.4,0.8-0.4l3.2,1.1l3.9,0.4
		l4.5,1.4l0.5-1l-3.1-0.9l0.6-1.9l2.8-1.9l4.6,0.2l-1.2,1.6l1.2,0.7l0.2,2.8l1.3-0.7l-0.8-1.5l1.1-0.6l-1-1.1l5.9-1.5l6.4,1.7
		l-3.5-2.2l5.9-1.1l6.1-2l12.8-1.5l4.4-1.1l11.5,2.1l-9.3,4l14.5-0.8l4,0.8l5-1.3l5.9,1.4c0,0-1,1.2-1,1.6s3.2,1.2,3.2,1.2l1.5-1.6
		l7.6,0.3l1-0.6l5.2-0.8l6.6,0.9l2.9,1.3l8.6,0.1l1.6,1.2l8.5,0.2l3.5,1l1.2-0.6l-0.8-1.2l11,1.3l3.5,2l3.5,0.6l1.9,0.9l-2.5,2.4
		l-3.2-1.5l-3.1,0.9l-3.8,0.5l3.8,1.8l-0.5,1.2l-2.4-0.5l-9,3l-4.9-0.4l-4.6,2.6l2.1,0.7l-1.3,0.8l1,1.1l-1.8,0.1l0.3,1.8l-2.4-0.1
		l-0.6,2l-1.1-0.3l-3,3.1l-1.3-5.6l0.5-2.7l4.6-2.4l6.2-2.4l-0.1-1.9l-6,3.1L248,30l-4.6,1.2l-2.4,2.1l1.8,0.1l-5.1,0.7l-5-1l-6,0.3
		L216.6,39l4.1,1.3l2.3-0.7l1.8,1.3l-0.3,2.1l-0.7,2.9l-2.4,3.2l-4.4,4l-2.6,0.6l-0.9-0.6l-2.9,2.4l0.7,1.1l-3.2,0.8l0.1,0.8
		l1.9,2.1l0.6,2.5l-1.1,0.5L207,64l-0.5-1l0.9-1.2l-0.1-1.4l-2.1-0.9l0.8-2l-3-0.1l-2.7,1.1l1.3-1.9l-1.9-0.3l-1.7,1.8l-2.2,0.5
		l0.6,0.9h1.2l0.4,1.4l1.9-1.2l2.4,0.9l-4,1.9l1.3,2.7l1.8,3.5L200,72l-2.7,3.5l-3.8,2.9l-6.5,1.9l0.3,1.9l-1.6,2.4l-1.6-1.1
		l2.2-1.9l-0.5-1.5l-2.5,0.5l-2.7,2.9l3.7,3.7l1.6,2.8l-0.5,2.6l-5.3,3.7l0.3-1.9l-3.6-2.7l-2-1.6l-1.6,7l4.1,2.6l1.1,1.3v2l1.2,2.4
		l-1.7-0.6l-1.7-3.5l-5-4.7l1.1-4.9l-2-6.1l-2.4,2.3l-0.8-0.8l0.3-2.5l-2.6-3.5l-0.8-1.9l-1.2,0.8l-4.2,0.7l-1,1.6l-2,0.6l-3,3.5
		l-2.9,1.3l0.5,3.4L149,94l-2.3,2.9l-1.3-1.2l-2.6-6.2l-2.4-6.7v-3.4l-1.6,2.4l-3.3-2.4l2.5-0.8l-2.5-0.4l-2.5-2.8l-6.7-0.1
		l-4.2-0.6l-1.4-1.3l-2.4,0.5l-3.8-1.6l-1.7-2.9l-2.7,0.9l2.3,3.3l0.9,2.7l1-2.5l0.7,1.3l-0.7,1.7l4.2-0.4l2.1-1.8l0.1,2.3l3,1.3
		l1.3,1.1l-2.1,1.6l-0.9,1l0.8,2l-2-0.6l-0.1,2l-1.9-0.5l0.3,1.3l-3.4,0.6l-4.9,2.3l-6.3,2l-1-6.1l-4-4l-0.3-3.4L96.9,76l-2.5-4.1
		l0.2-1.5l-1.7,2.4l-1.8-3l0.8,2.4l3.5,5.8l-0.2,1l2,0.9v3.3l2,1.9L100,88l2.9,1.2l1.4,2.7l-1,0.8l2,1.1l8.8-2.1l-0.3,3.2l-3.8,6
		l-6.3,6.1l-4,4.7c0,0-0.3,3.2-0.3,3.5s1.6,5.1,1.6,5.1l0.6,4.1L97,129l-3.2,2.9l0.9,4.3l-2.7,1.4l-0.7,3.8l-3.1,1.8l-5.6,4.3h-4.8
		l-3.5,1.3l-1.2-1.9l0.8-2.1l-3.6-4.7l-0.9-6.6l-4.2-5.5l2.7-6.8l-1.3-6.4l-5.1-7.1l2.2-5.8l-4-1.3l-1.5,0.8l-1.7-2.9H53l-3.8,1.6
		l-4.7-0.2l-3.1,1.3L37,97.8L35.2,97l-0.1-1.3L35.1,95.9z"/>
	<g>
		<g>
			<defs>
				<polygon id="SVGID_1_" points="39.9,51.3 39.9,59.9 42.9,62.3 49,61.9 54.8,59.8 62.9,52.1 63.9,50.1 67.1,50.2 67.2,51.5 
					76.7,59.6 79,57.6 79.4,54.8 80.3,55 84,61.3 90.2,64.5 90.8,68.7 96.4,76.2 104.3,91.6 113.5,89 110.5,83.8 112.4,82.9 
					112.1,79 121.7,79.7 121.7,83.8 126.7,78.8 120.6,74.4 118.7,73.6 130.8,78.9 136.1,80.6 139.3,83.2 140.7,86 146.3,99.9 
					149.4,95.5 151.7,87.3 160.1,80.6 166.7,84.9 166.8,87.8 175.5,78.6 166.9,75.9 166.2,67.1 157.3,65.4 160,60.2 158.7,50.5 
					174.5,52.3 177.8,41.8 196.1,49.1 216.3,39.4 212.4,31.9 151.9,28.8 132.6,23.5 105.1,23.5 82.3,29.1 75.8,20.3 69.2,20.3 
					56.5,29.3 59.1,35.6 62.3,41.3 53.8,44 44,47 49.1,50.3 				"/>
			</defs>
			<clipPath id="SVGID_00000100363677316180391250000013540537101169575833_">
				<use xlink:href="#SVGID_1_"  style="overflow:visible;"/>
			</clipPath>
			<g style="clip-path:url(#SVGID_00000100363677316180391250000013540537101169575833_);">
				<path class="st2" d="M35.1,95.9l-4.7-4.6v-3.5l1-3.4l-1-3.9l4.7-7.4l4.9-3l-1.2-3.4l4.2-2.5l1.2-1.7l1.5,1l3.5,0.3l5.2-2.2
					L65.2,61v2.4l-1.8,1.8l5.4,1.8h2l3.5,2.5l1.2-2.4l4-1.2l3,1.8l5.6,0.2l3.7,0.7l1.5-0.2l0.8-3.4l1.3-4.2L91.5,63l-2-2L88,63.2
					L84.1,61l-2.9-4.9l-2.9,2l2.5,1.5l-1,0.8V62l-2.4-0.8L75,57.3v-2.4l-5.7-2.4l-0.5-1.7l-1.5,0.8v-1.7l-1.2,2l2.9,2.5l5.1,2.7
					l-2.7-0.3l1.3,2.2l-2.4,1.2L70,61.5L66.5,60l3-0.3l1.2-1.5l-2-1.5L65,55.2L62.9,52l-3.8,1.3l-3.4-0.2l-1,2.2l-4.2,2.4l0.7,2.5
					l-3.9,1.5h-4l-2.9-1.5l-0.5-4.9l0.5-2.5c0,0,3,0.2,3.5,0.5s4.9,0.3,4.9,0.3l1-2.7l-2.2-2.5l-2.5-0.8l4.2-1l-0.5-1.3l2.5,0.8
					l2.4-2.2l2.4-1l1.3-1.7h4.9l-1.2-4.7l1.8-0.8l1.4,1l-1.4,2.4l1.9,1.5l2.4-0.5l1.3,0.5l4.7-1.2l1.5,0.7l1.5-1.3l1.7,1.2l-0.8-3.2
					l1.2-1h3.5l-3-1.5l7.9-1.2h-7.6l-2-3.9l5.2-2.5h-3.9L76,28.8L73.1,29l-1.2,2.7l2.9,2.4l-8.9,5.2l1-2.4l-2.2-3.5l-5.6,2.2l-1.3-1
					l-0.5-4.2l6.4-2l4.7-4.4l5.6-3l12-0.8l14.1,3.2l2.4,1.3l-5.1,1.2l-5.1-1.2l-2-0.7l3.7,2.2l0.3,1.3l3.2,0.7l-1.3-1.7l4,1.2
					l-0.3-1.3l4-1l1.2,0.3v-3.2l2.9,0.7l-1.5,1.5l3,0.2l1.3-1.2l6.4-1.5v1.2l5.9-0.7l1.6,0.5l0.9-1.3c0,0-2.9-1.1-2.6-1.3
					s0.8-0.4,0.8-0.4l3.2,1.1l3.9,0.4l4.5,1.4l0.5-1l-3.1-0.9l0.6-1.9l2.8-1.9l4.6,0.2l-1.2,1.6l1.2,0.7l0.2,2.8l1.3-0.7l-0.8-1.5
					l1.1-0.6l-1-1.1l5.9-1.5l6.4,1.7l-3.5-2.2l5.9-1.1l6.1-2l12.8-1.5l4.4-1.1l11.5,2.1l-9.3,4l14.5-0.8l4,0.8l5-1.3l5.9,1.4
					c0,0-1,1.2-1,1.6s3.2,1.2,3.2,1.2l1.5-1.6l7.6,0.3l1-0.6l5.2-0.8l6.6,0.9l2.9,1.3l8.6,0.1l1.6,1.2l8.5,0.2l3.5,1l1.2-0.6
					l-0.8-1.2l11,1.3l3.5,2l3.5,0.6l1.9,0.9l-2.5,2.4L275,26l-3.1,0.9l-3.8,0.5l3.8,1.8l-0.5,1.2l-2.4-0.5l-9,3l-4.9-0.4l-4.6,2.6
					l2.1,0.7l-1.3,0.8l1,1.1l-1.8,0.1l0.3,1.8l-2.4-0.1l-0.6,2l-1.1-0.3l-3,3.1l-1.3-5.6l0.5-2.7l4.6-2.4l6.2-2.4l-0.1-1.9l-6,3.1
					l0.4-2.2l-4.6,1.2l-2.4,2.1l1.8,0.1l-5.1,0.7l-5-1l-6,0.3l-10.1,5.6l4.1,1.3l2.3-0.7l1.8,1.3l-0.3,2.1l-0.7,2.9l-2.4,3.2l-4.4,4
					l-2.6,0.6l-0.9-0.6l-2.9,2.4l0.7,1.1l-3.2,0.8l0.1,0.8l1.9,2.1l0.6,2.5l-1.1,0.5l-2.6,0.7l-0.5-1l0.9-1.2l-0.1-1.4l-2.1-0.9
					l0.8-2l-3-0.1l-2.7,1.1l1.3-1.9l-1.9-0.3l-1.7,1.8l-2.2,0.5L196,60h1.2l0.4,1.4l1.9-1.2l2.4,0.9l-4,1.9l1.3,2.7l1.8,3.5l-1,2.8
					l-2.7,3.5l-3.8,2.9l-6.5,1.9l0.3,1.9l-1.6,2.4l-1.6-1.1l2.2-1.9l-0.5-1.5l-2.5,0.5l-2.7,2.9l3.7,3.7l1.6,2.8l-0.5,2.6l-5.3,3.7
					l0.3-1.9l-3.6-2.7l-2-1.6l-1.6,7l4.1,2.6l1.1,1.3v2l1.2,2.4l-1.7-0.6l-1.7-3.5l-5-4.7l1.1-4.9l-2-6.1l-2.4,2.3l-0.8-0.8l0.3-2.5
					l-2.6-3.5l-0.8-1.9l-1.2,0.8l-4.2,0.7l-1,1.6l-2,0.6l-3,3.5l-2.9,1.3l0.5,3.4L149,94l-2.3,2.9l-1.3-1.2l-2.6-6.2l-2.4-6.7v-3.4
					l-1.6,2.4l-3.3-2.4l2.5-0.8l-2.5-0.4l-2.5-2.8l-6.7-0.1l-4.2-0.6l-1.4-1.3l-2.4,0.5l-3.8-1.6l-1.7-2.9l-2.7,0.9l2.3,3.3l0.9,2.7
					l1-2.5l0.7,1.3l-0.7,1.7l4.2-0.4l2.1-1.8l0.1,2.3l3,1.3l1.3,1.1l-2.1,1.6l-0.9,1l0.8,2l-2-0.6l-0.1,2l-1.9-0.5l0.3,1.3l-3.4,0.6
					l-4.9,2.3l-6.3,2l-1-6.1l-4-4l-0.3-3.4L96.9,76l-2.5-4.1l0.2-1.5l-1.7,2.4l-1.8-3l0.8,2.4l3.5,5.8l-0.2,1l2,0.9v3.3l2,1.9
					L100,88l2.9,1.2l1.4,2.7l-1,0.8l2,1.1l8.8-2.1l-0.3,3.2l-3.8,6l-6.3,6.1l-4,4.7c0,0-0.3,3.2-0.3,3.5s1.6,5.1,1.6,5.1l0.6,4.1
					L97,129l-3.2,2.9l0.9,4.3l-2.7,1.4l-0.7,3.8l-3.1,1.8l-5.6,4.3h-4.8l-3.5,1.3l-1.2-1.9l0.8-2.1l-3.6-4.7l-0.9-6.6l-4.2-5.5
					l2.7-6.8l-1.3-6.4l-5.1-7.1l2.2-5.8l-4-1.3l-1.5,0.8l-1.7-2.9H53l-3.8,1.6l-4.7-0.2l-3.1,1.3L37,97.9L35.2,97l-0.1-1.3
					L35.1,95.9z"/>
			</g>
		</g>
	</g>
	<g>
		<path class="st5" d="M47.4,56.6c1.1-1.1,2.6-2.4,4.3-3.6c1.2-0.8,8-5.7,17-7.1c14.4-2.2,32,4.5,32.7,12.3c0.1,1.4-0.3,2.4-1.2,4.4
			C96.9,70,92.5,66.1,87.8,75c0,0-9.4,17.7,13.7,26.6"/>
		<polygon class="st0" points="50.9,56.4 47.7,56.3 47.8,53.2 46.4,54.5 46.3,57.6 49.5,57.7 		"/>
	</g>
	<g>
		<path class="st5" d="M89.9,48.2c23-4.3,44.6,2.8,53.8,17c4.8,7.5,5.1,15.3,4.7,20.4"/>
		<polygon class="st0" points="146.3,82.8 148.3,85.2 150.7,83.1 150.6,85 148.2,87.1 146.1,84.7 		"/>
	</g>
	<g>
		<path class="st5" d="M120.1,49.4c9-3.7,27.9-10.2,52.1-8.2c17.2,1.4,30.6,6.5,38.8,10.4"/>
		<polygon class="st0" points="207.7,52.6 210.7,51.5 209.5,48.5 211.3,49.3 212.4,52.2 209.4,53.4 		"/>
	</g>
	<path class="st1" d="M88.8,71.2C88,70,89.3,66.5,92,65.6c1.7-0.6,3.5,0,4.6,0.9s1.9,2.5,1.5,3c-0.2,0.3-0.7,0.1-2-0.1
		c-2.4-0.3-3.8-0.5-4.8,0.3c-0.9,0.7-0.9,1.8-1.6,1.8C89.3,71.6,89,71.4,88.8,71.2L88.8,71.2z"/>
</g>
<g>
	<path class="st6" d="M95.2,177.6H94c-0.1,0-0.1,0-0.1,0.1l-2.1,4.7l-2.1-4.7c0-0.1-0.1-0.1-0.1-0.1h-1.3c-0.1,0-0.1,0-0.1,0.1
		l-0.2,7.6c0,0.1,0,0.1,0.1,0.1h0.8c0.1,0,0.1,0,0.1-0.1l0.1-4.9c0-0.3,0-0.6,0-0.9s0-0.6,0-0.9h0c0.1,0.3,0.2,0.6,0.3,0.8
		c0.1,0.3,0.2,0.6,0.4,0.8l1.8,3.9c0,0.1,0.1,0.1,0.1,0.1h0c0.1,0,0.1,0,0.1-0.1l1.8-3.9c0.1-0.3,0.3-0.6,0.4-0.9s0.2-0.6,0.4-0.9h0
		c0,0.3,0,0.6,0,0.9c0,0.3,0,0.6,0,0.9l0.1,4.8c0,0.1,0,0.1,0.1,0.1h0.8c0.1,0,0.1,0,0.1-0.1l-0.2-7.6
		C95.3,177.6,95.3,177.6,95.2,177.6z"/>
	<path class="st6" d="M97.8,177.2c-0.2,0-0.4,0.1-0.5,0.2s-0.2,0.3-0.2,0.5v0.1c0,0.2,0.1,0.3,0.2,0.5s0.3,0.2,0.5,0.2
		s0.4-0.1,0.5-0.2s0.2-0.3,0.2-0.5v-0.1c0-0.2-0.1-0.3-0.2-0.5S98,177.2,97.8,177.2z"/>
	<path class="st6" d="M98.2,179.6h-0.8c-0.1,0-0.1,0-0.1,0.1v5.6c0,0.1,0,0.1,0.1,0.1h0.8c0.1,0,0.1,0,0.1-0.1v-5.6
		C98.3,179.7,98.2,179.6,98.2,179.6z"/>
	<path class="st6" d="M103.6,184.5l-2-0.1c-0.2,0-0.3-0.1-0.4-0.1c-0.1-0.1-0.1-0.2-0.1-0.3c0-0.1,0-0.3,0.1-0.4
		c0-0.1,0.1-0.1,0.2-0.2c0.3,0.1,0.6,0.2,1,0.2c0.8,0,1.3-0.2,1.7-0.5s0.5-0.8,0.5-1.5c0-0.7-0.2-1.2-0.5-1.6c0,0-0.1-0.1-0.2-0.1
		c0.1-0.4,0.1-0.7,0.2-0.9c0.1-0.3,0.1-0.5,0.2-0.8c0-0.1,0-0.1-0.1-0.1h-0.8c-0.1,0-0.1,0-0.1,0.1c0,0.2-0.1,0.4-0.1,0.6
		c0,0.2-0.1,0.4-0.1,0.7c-0.2,0-0.4-0.1-0.6-0.1c-0.8,0-1.3,0.2-1.7,0.5c-0.4,0.3-0.5,0.9-0.5,1.5c0,0.7,0.2,1.2,0.5,1.5
		c0,0,0,0,0,0c-0.2,0.2-0.4,0.3-0.4,0.4c-0.1,0.2-0.2,0.4-0.2,0.6c0,0.4,0.1,0.6,0.3,0.8c0,0,0,0,0,0c-0.2,0.1-0.4,0.3-0.5,0.5
		c-0.2,0.2-0.2,0.5-0.2,0.9c0,0.5,0.2,0.9,0.6,1.1c0.4,0.3,1.1,0.4,2,0.4c1,0,1.6-0.1,2.1-0.4s0.7-0.7,0.7-1.3
		c0-0.5-0.1-0.9-0.4-1.2C104.4,184.7,104,184.5,103.6,184.5z M101.4,180.6c0.2-0.2,0.5-0.3,0.9-0.3s0.7,0.1,0.9,0.3
		c0.2,0.2,0.3,0.5,0.3,0.9c0,0.4-0.1,0.7-0.3,0.9s-0.5,0.3-0.9,0.3c-0.4,0-0.7-0.1-0.9-0.3s-0.3-0.5-0.3-0.9
		C101.1,181.1,101.2,180.8,101.4,180.6z M103.6,186.8c-0.2,0.1-0.7,0.2-1.3,0.2c-0.6,0-1-0.1-1.3-0.2c-0.2-0.1-0.4-0.3-0.4-0.7
		c0-0.2,0.1-0.4,0.2-0.6c0.1-0.1,0.2-0.2,0.4-0.3l2.1,0.1c0.3,0,0.4,0.1,0.6,0.2c0.1,0.1,0.2,0.3,0.2,0.5
		C104,186.4,103.8,186.6,103.6,186.8z"/>
	<path class="st6" d="M109.3,179.5c-0.1,0-0.2,0-0.3,0c-0.2,0-0.4,0.1-0.6,0.2s-0.5,0.3-0.7,0.5c-0.2,0.2-0.3,0.3-0.5,0.5
		c0-0.1,0-0.2,0-0.4c0-0.2,0-0.4-0.1-0.5c0-0.1-0.1-0.1-0.1-0.1h-0.7c-0.1,0-0.1,0-0.1,0.1c0,0.2,0.1,0.4,0.1,0.6c0,0.2,0,0.4,0,0.7
		v4.3c0,0.1,0,0.1,0.1,0.1h0.8c0.1,0,0.1,0,0.1-0.1v-3.8c0.1-0.1,0.2-0.3,0.4-0.4c0.2-0.2,0.4-0.3,0.6-0.4c0.2-0.1,0.4-0.1,0.6-0.1
		c0.1,0,0.2,0,0.2,0c0.1,0,0.1,0,0.2,0c0.1,0,0.1,0,0.2-0.1c0-0.2,0-0.3,0-0.5c0-0.2,0-0.3,0-0.5
		C109.4,179.6,109.4,179.5,109.3,179.5z"/>
	<path class="st6" d="M114.6,184v-2.6c0-0.7-0.2-1.2-0.5-1.5c-0.3-0.3-0.9-0.5-1.6-0.5c-0.7,0-1.2,0.1-1.6,0.4
		c-0.4,0.3-0.6,0.7-0.5,1.1c0,0.2,0.1,0.2,0.1,0.2h0.8c0.1,0,0.1,0,0.1-0.1c0-0.5,0.4-0.7,1.1-0.7c0.4,0,0.7,0.1,0.8,0.3
		c0.2,0.2,0.2,0.5,0.2,0.9v0.5l-0.9,0.1c-0.6,0-1.1,0.1-1.5,0.3c-0.4,0.1-0.6,0.3-0.8,0.6c-0.2,0.3-0.2,0.6-0.2,1
		c0,0.5,0.1,0.9,0.4,1.2c0.2,0.3,0.6,0.4,1.1,0.4c0.3,0,0.5,0,0.7-0.1s0.5-0.2,0.7-0.4c0.2-0.1,0.4-0.3,0.6-0.6c0,0.1,0,0.2,0,0.4
		c0,0.2,0,0.3,0.1,0.4c0,0,0,0.1,0,0.1c0,0,0,0,0.1,0h0.7c0.1,0,0.1,0,0.1-0.1c0-0.2,0-0.3-0.1-0.6
		C114.6,184.5,114.6,184.3,114.6,184z M112.6,184.4c-0.3,0.2-0.6,0.3-0.8,0.3c-0.2,0-0.4-0.1-0.5-0.2c-0.1-0.1-0.2-0.3-0.2-0.6
		c0-0.4,0.1-0.6,0.3-0.8c0.2-0.2,0.6-0.3,1.1-0.3l1-0.1v0.9C113.2,184,112.9,184.3,112.6,184.4z"/>
	<path class="st6" d="M119.5,184.5c-0.1,0.1-0.3,0.1-0.4,0.1c-0.2,0-0.3,0.1-0.5,0.1c-0.3,0-0.5-0.1-0.7-0.2
		c-0.1-0.2-0.2-0.4-0.2-0.8v-3.2h1.8c0.1,0,0.1,0,0.1-0.1v-0.6c0-0.1,0-0.1-0.1-0.1h-1.8l0-1.4c0-0.1,0-0.1-0.1-0.1H117
		c-0.1,0-0.1,0-0.1,0.1l-0.1,1.4h-0.9c-0.1,0-0.1,0-0.1,0.1v0.6c0,0.1,0,0.1,0.1,0.1h0.9v3.2c0,0.4,0.1,0.8,0.2,1
		c0.1,0.3,0.3,0.5,0.5,0.6c0.2,0.1,0.6,0.2,1,0.2c0.3,0,0.5,0,0.7-0.1s0.4-0.1,0.5-0.1c0.1,0,0.1-0.1,0.1-0.1v-0.7
		C119.7,184.5,119.6,184.5,119.5,184.5z"/>
	<path class="st6" d="M121.9,179.6h-0.8c-0.1,0-0.1,0-0.1,0.1v5.6c0,0.1,0,0.1,0.1,0.1h0.8c0.1,0,0.1,0,0.1-0.1v-5.6
		C122,179.7,122,179.6,121.9,179.6z"/>
	<path class="st6" d="M121.5,177.2c-0.2,0-0.4,0.1-0.5,0.2s-0.2,0.3-0.2,0.5v0.1c0,0.2,0.1,0.3,0.2,0.5s0.3,0.2,0.5,0.2
		s0.4-0.1,0.5-0.2s0.2-0.3,0.2-0.5v-0.1c0-0.2-0.1-0.3-0.2-0.5S121.7,177.2,121.5,177.2z"/>
	<path class="st6" d="M126.1,179.5c-0.8,0-1.4,0.2-1.8,0.6c-0.4,0.4-0.6,1-0.6,1.8v1.4c0,0.8,0.2,1.4,0.6,1.8c0.4,0.4,1,0.6,1.8,0.6
		c0.8,0,1.4-0.2,1.8-0.6c0.4-0.4,0.6-1,0.6-1.8v-1.4c0-0.8-0.2-1.4-0.6-1.8C127.5,179.7,126.9,179.5,126.1,179.5z M127.6,183.1
		c0,0.5-0.1,0.9-0.3,1.2c-0.2,0.3-0.6,0.4-1.1,0.4c-0.5,0-0.9-0.1-1.1-0.4c-0.2-0.3-0.3-0.7-0.3-1.2v-1.2c0-0.5,0.1-0.9,0.3-1.2
		s0.6-0.4,1.1-0.4c0.5,0,0.9,0.1,1.1,0.4s0.3,0.7,0.3,1.2V183.1z"/>
	<path class="st6" d="M133.3,179.5c-0.3,0-0.5,0-0.8,0.1c-0.2,0.1-0.5,0.2-0.7,0.4c-0.2,0.1-0.4,0.3-0.6,0.5c0,0,0,0,0,0
		c0-0.1,0-0.3,0-0.4c0-0.1,0-0.2,0-0.3c0-0.1-0.1-0.1-0.1-0.1h-0.7c-0.1,0-0.1,0.1-0.1,0.2c0,0.1,0,0.3,0.1,0.6c0,0.3,0,0.5,0,0.7
		v4.3c0,0.1,0,0.1,0.1,0.1h0.8c0.1,0,0.1,0,0.1-0.1v-4c0.4-0.3,0.7-0.6,0.9-0.8c0.3-0.2,0.6-0.3,0.9-0.3c0.3,0,0.6,0.1,0.7,0.3
		c0.2,0.2,0.2,0.5,0.2,0.9v3.8c0,0.1,0,0.1,0.1,0.1h0.8c0.1,0,0.1,0,0.1-0.1v-3.9c0-0.7-0.2-1.2-0.5-1.5S133.9,179.5,133.3,179.5z"
		/>
	<path class="st6" d="M144.1,184.5c0-0.2,0-0.3,0-0.4v-6.7c0-0.1,0-0.1-0.1-0.1h-0.8c-0.1,0-0.1,0-0.1,0.1v2.5
		c-0.2-0.1-0.4-0.2-0.7-0.3c-0.3-0.1-0.7-0.1-1-0.1c-0.7,0-1.2,0.2-1.6,0.6c-0.4,0.4-0.6,1-0.6,1.8v1.5c0,0.7,0.1,1.3,0.4,1.7
		c0.3,0.4,0.7,0.6,1.3,0.6c0.3,0,0.5,0,0.8-0.1c0.2-0.1,0.5-0.2,0.7-0.4c0.2-0.1,0.4-0.3,0.6-0.5c0,0.1,0,0.2,0,0.3
		c0,0.2,0,0.3,0.1,0.5c0,0.1,0.1,0.1,0.1,0.1h0.7c0.1,0,0.1-0.1,0.1-0.2c0-0.1,0-0.2,0-0.3C144.1,184.8,144.1,184.7,144.1,184.5z
		 M142.5,184.2c-0.2,0.2-0.4,0.3-0.6,0.4s-0.4,0.1-0.6,0.1c-0.3,0-0.6-0.1-0.7-0.3c-0.2-0.2-0.2-0.5-0.2-1V182c0-0.5,0.1-1,0.3-1.2
		c0.2-0.3,0.6-0.4,1-0.4c0.2,0,0.5,0,0.8,0.1c0.2,0.1,0.5,0.1,0.7,0.2v3C142.9,183.9,142.7,184.1,142.5,184.2z"/>
	<path class="st6" d="M148.2,179.5c-0.8,0-1.4,0.2-1.8,0.6c-0.4,0.4-0.6,1-0.6,1.7v1.7c0,0.7,0.2,1.2,0.6,1.6c0.4,0.4,1,0.5,1.8,0.5
		c0.7,0,1.3-0.1,1.7-0.4c0.4-0.3,0.6-0.7,0.6-1.2c0-0.1-0.1-0.1-0.1-0.1h-0.8c-0.1,0-0.1,0-0.1,0.1c0,0.2-0.1,0.4-0.3,0.5
		s-0.5,0.2-0.9,0.2c-0.5,0-0.9-0.1-1.1-0.4c-0.2-0.2-0.3-0.6-0.3-1.2v-0.4h3.6c0.1,0,0.1,0,0.1-0.1v-0.9c0-0.7-0.2-1.3-0.6-1.7
		C149.5,179.7,148.9,179.5,148.2,179.5z M149.5,181.9h-2.7v-0.1c0-0.5,0.1-0.9,0.3-1.1s0.6-0.4,1-0.4c0.4,0,0.8,0.1,1,0.4
		S149.5,181.3,149.5,181.9L149.5,181.9z"/>
	<path class="st6" d="M155.1,182.3l-1.4-0.6c-0.3-0.1-0.5-0.2-0.6-0.3s-0.1-0.2-0.1-0.4c0-0.2,0.1-0.4,0.3-0.5
		c0.2-0.1,0.4-0.2,0.8-0.2c0.3,0,0.6,0.1,0.8,0.2c0.2,0.1,0.3,0.3,0.3,0.5c0,0.1,0,0.2,0.1,0.2h0.8c0.1,0,0.1,0,0.1-0.1
		c0-0.5-0.2-0.9-0.6-1.2c-0.4-0.3-0.9-0.4-1.6-0.4c-0.7,0-1.2,0.1-1.5,0.4c-0.3,0.3-0.5,0.7-0.5,1.2c0,0.4,0.1,0.7,0.3,0.9
		c0.2,0.2,0.5,0.4,0.9,0.6l1.4,0.6c0.2,0.1,0.4,0.2,0.5,0.3s0.2,0.3,0.2,0.5c0,0.2-0.1,0.4-0.3,0.6c-0.2,0.1-0.5,0.2-0.9,0.2
		c-0.4,0-0.7-0.1-0.9-0.2c-0.2-0.2-0.3-0.4-0.3-0.8c0-0.1,0-0.1-0.1-0.1H152c-0.1,0-0.1,0-0.1,0.1c0,0.6,0.2,1.1,0.5,1.4
		c0.4,0.3,0.9,0.5,1.6,0.5c0.7,0,1.3-0.1,1.6-0.4s0.6-0.7,0.6-1.3c0-0.4-0.1-0.7-0.3-0.9C155.8,182.7,155.5,182.5,155.1,182.3z"/>
	<path class="st6" d="M163.2,179.5c-0.3,0-0.5,0-0.7,0.1c-0.2,0.1-0.5,0.2-0.7,0.3c-0.2,0.1-0.4,0.3-0.6,0.4c0,0,0,0,0-0.1
		c0-0.1,0-0.2,0-0.3c0-0.1,0-0.2,0-0.2c0-0.1-0.1-0.1-0.1-0.1h-0.7c-0.1,0-0.1,0-0.1,0.1c0,0.2,0,0.4,0.1,0.6c0,0.2,0,0.4,0,0.6v6.6
		c0,0.1,0,0.1,0.1,0.1h0.8c0.1,0,0.1,0,0.1-0.1v-2.3c0.2,0.1,0.4,0.2,0.7,0.3c0.3,0.1,0.6,0.1,0.9,0.1c0.7,0,1.2-0.2,1.6-0.6
		c0.4-0.4,0.6-1,0.6-1.8v-1.5c0-0.8-0.2-1.3-0.5-1.7C164.3,179.7,163.8,179.5,163.2,179.5z M164,183.1c0,0.5-0.1,1-0.3,1.2
		c-0.2,0.3-0.6,0.4-1,0.4c-0.2,0-0.5,0-0.8-0.1c-0.2-0.1-0.4-0.1-0.6-0.2v-3.1c0.4-0.3,0.7-0.5,0.9-0.7c0.3-0.2,0.6-0.2,0.8-0.2
		c0.3,0,0.6,0.1,0.7,0.3c0.2,0.2,0.3,0.6,0.3,1.1V183.1z"/>
	<path class="st6" d="M169.8,179.5c-0.1,0-0.2,0-0.3,0c-0.2,0-0.4,0.1-0.6,0.2c-0.2,0.1-0.5,0.3-0.7,0.5c-0.2,0.2-0.3,0.3-0.5,0.5
		c0-0.1,0-0.2,0-0.4c0-0.2,0-0.4-0.1-0.5c0-0.1-0.1-0.1-0.1-0.1h-0.7c-0.1,0-0.1,0-0.1,0.1c0,0.2,0.1,0.4,0.1,0.6s0,0.4,0,0.7v4.3
		c0,0.1,0,0.1,0.1,0.1h0.8c0.1,0,0.1,0,0.1-0.1v-3.8c0.1-0.1,0.2-0.3,0.4-0.4c0.2-0.2,0.4-0.3,0.6-0.4c0.2-0.1,0.4-0.1,0.6-0.1
		c0.1,0,0.2,0,0.2,0c0.1,0,0.1,0,0.2,0c0.1,0,0.1,0,0.2-0.1c0-0.2,0-0.3,0-0.5s0-0.3,0-0.5C169.9,179.6,169.8,179.5,169.8,179.5z"/>
	<path class="st6" d="M173.1,179.5c-0.8,0-1.4,0.2-1.8,0.6c-0.4,0.4-0.6,1-0.6,1.7v1.7c0,0.7,0.2,1.2,0.6,1.6c0.4,0.4,1,0.5,1.8,0.5
		c0.7,0,1.3-0.1,1.7-0.4c0.4-0.3,0.6-0.7,0.6-1.2c0-0.1-0.1-0.1-0.1-0.1h-0.8c-0.1,0-0.1,0-0.1,0.1c0,0.2-0.1,0.4-0.3,0.5
		s-0.5,0.2-0.9,0.2c-0.5,0-0.9-0.1-1.1-0.4c-0.2-0.2-0.3-0.6-0.3-1.2v-0.4h3.6c0.1,0,0.1,0,0.1-0.1v-0.9c0-0.7-0.2-1.3-0.6-1.7
		C174.4,179.7,173.9,179.5,173.1,179.5z M174.4,181.9h-2.7v-0.1c0-0.5,0.1-0.9,0.3-1.1c0.2-0.2,0.6-0.4,1-0.4c0.4,0,0.8,0.1,1,0.4
		C174.3,181,174.4,181.3,174.4,181.9L174.4,181.9z"/>
	<path class="st6" d="M183.8,179.5c-0.4,0-0.7,0.1-1.1,0.3c-0.3,0.2-0.7,0.5-1.1,0.9c-0.1-0.4-0.3-0.6-0.5-0.8
		c-0.3-0.2-0.6-0.3-1-0.3c-0.4,0-0.7,0.1-1,0.2c-0.3,0.2-0.7,0.4-1,0.8c0-0.1,0-0.3,0-0.4c0-0.1,0-0.3-0.1-0.4c0-0.1,0-0.1-0.1-0.1
		h-0.7c-0.1,0-0.1,0-0.1,0.1c0,0.2,0.1,0.4,0.1,0.6c0,0.2,0,0.5,0,0.7v4.3c0,0.1,0,0.1,0.1,0.1h0.8c0.1,0,0.1,0,0.1-0.1v-4
		c0.4-0.4,0.7-0.6,1-0.8s0.5-0.2,0.8-0.2c0.3,0,0.5,0.1,0.7,0.3c0.1,0.2,0.2,0.5,0.2,0.9v3.8c0,0.1,0,0.1,0.1,0.1h0.8
		c0.1,0,0.1,0,0.1-0.1v-4c0.4-0.4,0.7-0.6,1-0.8c0.3-0.2,0.5-0.2,0.8-0.2c0.3,0,0.5,0.1,0.7,0.3c0.1,0.2,0.2,0.5,0.2,0.9v3.8
		c0,0.1,0,0.1,0.1,0.1h0.8c0.1,0,0.1,0,0.1-0.1v-3.9c0-0.7-0.1-1.2-0.4-1.5C184.7,179.6,184.3,179.5,183.8,179.5z"/>
	<path class="st6" d="M188.1,179.6h-0.8c-0.1,0-0.1,0-0.1,0.1v5.6c0,0.1,0,0.1,0.1,0.1h0.8c0.1,0,0.1,0,0.1-0.1v-5.6
		C188.2,179.7,188.2,179.6,188.1,179.6z"/>
	<path class="st6" d="M187.7,177.2c-0.2,0-0.4,0.1-0.5,0.2c-0.1,0.1-0.2,0.3-0.2,0.5v0.1c0,0.2,0.1,0.3,0.2,0.5
		c0.1,0.1,0.3,0.2,0.5,0.2c0.2,0,0.4-0.1,0.5-0.2c0.1-0.1,0.2-0.3,0.2-0.5v-0.1c0-0.2-0.1-0.3-0.2-0.5
		C188.1,177.3,188,177.2,187.7,177.2z"/>
	<path class="st6" d="M192.3,179.5c-0.8,0-1.4,0.2-1.8,0.6c-0.4,0.4-0.6,1-0.6,1.7v1.7c0,0.7,0.2,1.2,0.6,1.6c0.4,0.4,1,0.5,1.8,0.5
		c0.7,0,1.3-0.1,1.7-0.4c0.4-0.3,0.6-0.7,0.6-1.2c0-0.1-0.1-0.1-0.1-0.1h-0.8c-0.1,0-0.1,0-0.1,0.1c0,0.2-0.1,0.4-0.3,0.5
		s-0.5,0.2-0.9,0.2c-0.5,0-0.9-0.1-1.1-0.4c-0.2-0.2-0.3-0.6-0.3-1.2v-0.4h3.6c0.1,0,0.1,0,0.1-0.1v-0.9c0-0.7-0.2-1.3-0.6-1.7
		C193.6,179.7,193,179.5,192.3,179.5z M193.6,181.9h-2.7v-0.1c0-0.5,0.1-0.9,0.3-1.1c0.2-0.2,0.6-0.4,1-0.4c0.4,0,0.8,0.1,1,0.4
		C193.5,181,193.6,181.3,193.6,181.9L193.6,181.9z"/>
	<path class="st6" d="M199.3,179.5c-0.1,0-0.2,0-0.3,0c-0.2,0-0.4,0.1-0.6,0.2c-0.2,0.1-0.5,0.3-0.7,0.5c-0.2,0.2-0.3,0.3-0.5,0.5
		c0-0.1,0-0.2,0-0.4c0-0.2,0-0.4-0.1-0.5c0-0.1-0.1-0.1-0.1-0.1h-0.7c-0.1,0-0.1,0-0.1,0.1c0,0.2,0.1,0.4,0.1,0.6c0,0.2,0,0.4,0,0.7
		v4.3c0,0.1,0,0.1,0.1,0.1h0.8c0.1,0,0.1,0,0.1-0.1v-3.8c0.1-0.1,0.2-0.3,0.4-0.4c0.2-0.2,0.4-0.3,0.6-0.4c0.2-0.1,0.4-0.1,0.6-0.1
		c0.1,0,0.2,0,0.2,0s0.1,0,0.2,0c0.1,0,0.1,0,0.2-0.1c0-0.2,0-0.3,0-0.5c0-0.2,0-0.3,0-0.5C199.4,179.6,199.4,179.5,199.3,179.5z"/>
	<path class="st6" d="M203.3,182.3l-1.4-0.6c-0.3-0.1-0.5-0.2-0.6-0.3s-0.1-0.2-0.1-0.4c0-0.2,0.1-0.4,0.3-0.5
		c0.2-0.1,0.4-0.2,0.8-0.2c0.3,0,0.6,0.1,0.8,0.2c0.2,0.1,0.3,0.3,0.3,0.5c0,0.1,0,0.2,0.1,0.2h0.8c0.1,0,0.1,0,0.1-0.1
		c0-0.5-0.2-0.9-0.6-1.2c-0.4-0.3-0.9-0.4-1.6-0.4c-0.7,0-1.2,0.1-1.5,0.4c-0.3,0.3-0.5,0.7-0.5,1.2c0,0.4,0.1,0.7,0.3,0.9
		c0.2,0.2,0.5,0.4,0.9,0.6l1.4,0.6c0.2,0.1,0.4,0.2,0.5,0.3s0.2,0.3,0.2,0.5c0,0.2-0.1,0.4-0.3,0.6c-0.2,0.1-0.5,0.2-0.9,0.2
		c-0.4,0-0.7-0.1-0.9-0.2c-0.2-0.2-0.3-0.4-0.3-0.8c0-0.1,0-0.1-0.1-0.1h-0.8c-0.1,0-0.1,0-0.1,0.1c0,0.6,0.2,1.1,0.5,1.4
		c0.4,0.3,0.9,0.5,1.6,0.5c0.7,0,1.3-0.1,1.6-0.4s0.6-0.7,0.6-1.3c0-0.4-0.1-0.7-0.3-0.9C204,182.7,203.7,182.5,203.3,182.3z"/>
	<path class="st6" d="M211.6,179.5c-0.3,0-0.5,0-0.8,0.1s-0.5,0.2-0.7,0.4c-0.2,0.1-0.4,0.3-0.6,0.5v-3.1c0-0.1,0-0.1-0.1-0.1h-0.8
		c-0.1,0-0.1,0-0.1,0.1v8c0,0.1,0,0.1,0.1,0.1h0.8c0.1,0,0.1,0,0.1-0.1v-3.9c0.3-0.3,0.6-0.6,0.9-0.7c0.3-0.2,0.7-0.3,1-0.3
		c0.3,0,0.6,0.1,0.7,0.3c0.2,0.2,0.2,0.5,0.2,0.9v3.8c0,0.1,0,0.1,0.1,0.1h0.8c0.1,0,0.1,0,0.1-0.1v-3.9c0-0.7-0.2-1.2-0.5-1.5
		S212.2,179.5,211.6,179.5z"/>
	<path class="st6" d="M217.5,179.5c-0.8,0-1.4,0.2-1.8,0.6c-0.4,0.4-0.6,1-0.6,1.8v1.4c0,0.8,0.2,1.4,0.6,1.8c0.4,0.4,1,0.6,1.8,0.6
		c0.8,0,1.4-0.2,1.8-0.6c0.4-0.4,0.6-1,0.6-1.8v-1.4c0-0.8-0.2-1.4-0.6-1.8C218.9,179.7,218.3,179.5,217.5,179.5z M218.9,183.1
		c0,0.5-0.1,0.9-0.3,1.2c-0.2,0.3-0.6,0.4-1.1,0.4c-0.5,0-0.9-0.1-1.1-0.4c-0.2-0.3-0.3-0.7-0.3-1.2v-1.2c0-0.5,0.1-0.9,0.3-1.2
		c0.2-0.3,0.6-0.4,1.1-0.4c0.5,0,0.9,0.1,1.1,0.4c0.2,0.3,0.3,0.7,0.3,1.2V183.1z"/>
	<path class="st6" d="M228.3,179.5c-0.4,0-0.7,0.1-1.1,0.3c-0.3,0.2-0.7,0.5-1.1,0.9c-0.1-0.4-0.3-0.6-0.5-0.8
		c-0.3-0.2-0.6-0.3-1-0.3c-0.4,0-0.7,0.1-1,0.2c-0.3,0.2-0.7,0.4-1,0.8c0-0.1,0-0.3,0-0.4c0-0.1,0-0.3-0.1-0.4c0-0.1,0-0.1-0.1-0.1
		h-0.7c-0.1,0-0.1,0-0.1,0.1c0,0.2,0.1,0.4,0.1,0.6c0,0.2,0,0.5,0,0.7v4.3c0,0.1,0,0.1,0.1,0.1h0.8c0.1,0,0.1,0,0.1-0.1v-4
		c0.4-0.4,0.7-0.6,1-0.8s0.5-0.2,0.8-0.2c0.3,0,0.5,0.1,0.7,0.3c0.1,0.2,0.2,0.5,0.2,0.9v3.8c0,0.1,0,0.1,0.1,0.1h0.8
		c0.1,0,0.1,0,0.1-0.1v-4c0.4-0.4,0.7-0.6,1-0.8c0.3-0.2,0.5-0.2,0.8-0.2c0.3,0,0.5,0.1,0.7,0.3c0.1,0.2,0.2,0.5,0.2,0.9v3.8
		c0,0.1,0,0.1,0.1,0.1h0.8c0.1,0,0.1,0,0.1-0.1v-3.9c0-0.7-0.1-1.2-0.4-1.5C229.2,179.6,228.8,179.5,228.3,179.5z"/>
	<path class="st6" d="M238.4,179.5c-0.4,0-0.7,0.1-1.1,0.3c-0.3,0.2-0.7,0.5-1.1,0.9c-0.1-0.4-0.3-0.6-0.5-0.8
		c-0.3-0.2-0.6-0.3-1-0.3c-0.4,0-0.7,0.1-1,0.2c-0.3,0.2-0.7,0.4-1,0.8c0-0.1,0-0.3,0-0.4c0-0.1,0-0.3-0.1-0.4c0-0.1,0-0.1-0.1-0.1
		h-0.7c-0.1,0-0.1,0-0.1,0.1c0,0.2,0.1,0.4,0.1,0.6c0,0.2,0,0.5,0,0.7v4.3c0,0.1,0,0.1,0.1,0.1h0.8c0.1,0,0.1,0,0.1-0.1v-4
		c0.4-0.4,0.7-0.6,1-0.8s0.5-0.2,0.8-0.2c0.3,0,0.5,0.1,0.7,0.3c0.1,0.2,0.2,0.5,0.2,0.9v3.8c0,0.1,0,0.1,0.1,0.1h0.8
		c0.1,0,0.1,0,0.1-0.1v-4c0.4-0.4,0.7-0.6,1-0.8c0.3-0.2,0.5-0.2,0.8-0.2c0.3,0,0.5,0.1,0.7,0.3c0.1,0.2,0.2,0.5,0.2,0.9v3.8
		c0,0.1,0,0.1,0.1,0.1h0.8c0.1,0,0.1,0,0.1-0.1v-3.9c0-0.7-0.1-1.2-0.4-1.5C239.4,179.6,239,179.5,238.4,179.5z"/>
	<path class="st6" d="M244.1,179.5c-0.8,0-1.4,0.2-1.8,0.6c-0.4,0.4-0.6,1-0.6,1.7v1.7c0,0.7,0.2,1.2,0.6,1.6c0.4,0.4,1,0.5,1.8,0.5
		c0.7,0,1.3-0.1,1.7-0.4s0.6-0.7,0.6-1.2c0-0.1-0.1-0.1-0.1-0.1h-0.8c-0.1,0-0.1,0-0.1,0.1c0,0.2-0.1,0.4-0.3,0.5s-0.5,0.2-0.9,0.2
		c-0.5,0-0.9-0.1-1.1-0.4s-0.3-0.6-0.3-1.2v-0.4h3.6c0.1,0,0.1,0,0.1-0.1v-0.9c0-0.7-0.2-1.3-0.6-1.7
		C245.5,179.7,244.9,179.5,244.1,179.5z M245.5,181.9h-2.7v-0.1c0-0.5,0.1-0.9,0.3-1.1c0.2-0.2,0.6-0.4,1-0.4c0.4,0,0.8,0.1,1,0.4
		C245.3,181,245.5,181.3,245.5,181.9L245.5,181.9z"/>
	<path class="st6" d="M251.9,183c-0.2-0.2-0.5-0.4-0.9-0.6l-1.4-0.6c-0.3-0.1-0.5-0.2-0.6-0.3s-0.1-0.2-0.1-0.4
		c0-0.2,0.1-0.4,0.3-0.5c0.2-0.1,0.4-0.2,0.8-0.2c0.3,0,0.6,0.1,0.8,0.2c0.2,0.1,0.3,0.3,0.3,0.5c0,0.1,0,0.2,0.1,0.2h0.8
		c0.1,0,0.1,0,0.1-0.1c0-0.5-0.2-0.9-0.6-1.2c-0.4-0.3-0.9-0.4-1.6-0.4c-0.7,0-1.2,0.1-1.5,0.4c-0.3,0.3-0.5,0.7-0.5,1.2
		c0,0.4,0.1,0.7,0.3,0.9c0.2,0.2,0.5,0.4,0.9,0.6l1.4,0.6c0.2,0.1,0.4,0.2,0.5,0.3s0.2,0.3,0.2,0.5c0,0.2-0.1,0.4-0.3,0.6
		c-0.2,0.1-0.5,0.2-0.9,0.2c-0.4,0-0.7-0.1-0.9-0.2c-0.2-0.2-0.3-0.4-0.3-0.8c0-0.1,0-0.1-0.1-0.1h-0.8c-0.1,0-0.1,0-0.1,0.1
		c0,0.6,0.2,1.1,0.5,1.4c0.4,0.3,0.9,0.5,1.6,0.5c0.7,0,1.3-0.1,1.6-0.4s0.6-0.7,0.6-1.3C252.2,183.5,252.1,183.2,251.9,183z"/>
</g>
<g>
	<path class="st6" d="M91.3,201.2h-2.2c-0.1,0-0.1,0-0.1,0.1v7.6c0,0.1,0,0.1,0.1,0.1h2.2c1.2,0,2.2-0.3,2.8-0.9s0.9-1.6,0.9-2.8
		v-0.6c0-1.2-0.3-2-0.9-2.6S92.5,201.2,91.3,201.2z M93.8,205.3c0,0.9-0.2,1.6-0.6,2.1c-0.4,0.4-1.1,0.7-2,0.7h-1.1v-5.9h1.1
		c0.9,0,1.6,0.2,2,0.6c0.4,0.4,0.6,1,0.6,1.8V205.3z"/>
	<path class="st6" d="M97.6,203.1h-0.9c-0.1,0-0.1,0-0.1,0.1v5.6c0,0.1,0,0.1,0.1,0.1h0.9c0.1,0,0.1,0,0.1-0.1v-5.6
		C97.7,203.2,97.6,203.1,97.6,203.1z"/>
	<path class="st6" d="M97.1,200.7c-0.2,0-0.4,0.1-0.5,0.2c-0.1,0.1-0.2,0.3-0.2,0.5v0.1c0,0.2,0.1,0.4,0.2,0.5
		c0.1,0.1,0.3,0.2,0.5,0.2c0.2,0,0.4-0.1,0.5-0.2c0.1-0.1,0.2-0.3,0.2-0.5v-0.1c0-0.2-0.1-0.4-0.2-0.5
		C97.5,200.7,97.4,200.7,97.1,200.7z"/>
	<path class="st6" d="M102.4,205.9l-1.4-0.6c-0.3-0.1-0.5-0.2-0.5-0.3c-0.1-0.1-0.1-0.2-0.1-0.4c0-0.2,0.1-0.4,0.2-0.5
		c0.2-0.1,0.4-0.2,0.7-0.2c0.3,0,0.6,0.1,0.8,0.2c0.2,0.1,0.3,0.3,0.3,0.5c0,0.1,0,0.2,0.1,0.2h0.9c0.1,0,0.1,0,0.1-0.1
		c0-0.5-0.2-0.9-0.6-1.2s-0.9-0.4-1.6-0.4c-0.7,0-1.2,0.1-1.5,0.4c-0.3,0.3-0.5,0.7-0.5,1.2c0,0.4,0.1,0.7,0.3,0.9
		c0.2,0.2,0.5,0.4,0.9,0.6l1.4,0.6c0.2,0.1,0.4,0.2,0.5,0.3s0.2,0.3,0.2,0.4c0,0.2-0.1,0.4-0.3,0.5s-0.5,0.2-0.8,0.2
		c-0.4,0-0.7-0.1-0.8-0.2c-0.2-0.2-0.3-0.4-0.3-0.7c0-0.1,0-0.1-0.1-0.1h-0.9c-0.1,0-0.1,0-0.1,0.1c0,0.6,0.2,1.1,0.5,1.4
		c0.4,0.3,0.9,0.5,1.7,0.5c0.7,0,1.3-0.1,1.7-0.4s0.6-0.7,0.6-1.3c0-0.4-0.1-0.7-0.3-0.9C103.1,206.2,102.8,206,102.4,205.9z"/>
	<path class="st6" d="M108.3,208c-0.1,0.1-0.3,0.1-0.4,0.1c-0.2,0-0.3,0.1-0.5,0.1c-0.3,0-0.5-0.1-0.6-0.2c-0.1-0.2-0.2-0.4-0.2-0.8
		v-3.1h1.7c0.1,0,0.1,0,0.1-0.1v-0.7c0-0.1,0-0.1-0.1-0.1h-1.7l0-1.4c0-0.1,0-0.1-0.1-0.1h-0.7c-0.1,0-0.1,0-0.1,0.1l-0.1,1.4h-0.9
		c-0.1,0-0.1,0-0.1,0.1v0.7c0,0.1,0,0.1,0.1,0.1h0.9v3.1c0,0.4,0.1,0.8,0.2,1.1c0.1,0.3,0.3,0.5,0.6,0.6c0.3,0.1,0.6,0.2,1,0.2
		c0.2,0,0.5,0,0.7-0.1c0.2,0,0.4-0.1,0.5-0.1c0.1,0,0.1-0.1,0.1-0.1v-0.7C108.4,208,108.4,207.9,108.3,208z"/>
	<path class="st6" d="M112.8,203c-0.1,0-0.2,0-0.3,0c-0.2,0-0.4,0.1-0.6,0.2c-0.2,0.1-0.4,0.3-0.7,0.5c-0.2,0.1-0.3,0.3-0.5,0.5
		c0-0.1,0-0.2,0-0.4c0-0.2,0-0.4-0.1-0.5c0-0.1-0.1-0.1-0.1-0.1h-0.8c-0.1,0-0.1,0-0.1,0.1c0,0.2,0.1,0.4,0.1,0.6c0,0.2,0,0.4,0,0.7
		v4.3c0,0.1,0,0.1,0.1,0.1h0.9c0.1,0,0.1,0,0.1-0.1v-3.7c0.1-0.1,0.2-0.3,0.4-0.4c0.2-0.2,0.4-0.3,0.6-0.4c0.2-0.1,0.4-0.1,0.6-0.1
		c0.1,0,0.2,0,0.2,0c0.1,0,0.1,0,0.2,0c0.1,0,0.2,0,0.2-0.1c0-0.2,0-0.3,0-0.5c0-0.2,0-0.4,0-0.5C112.9,203.1,112.9,203.1,112.8,203
		z"/>
	<path class="st6" d="M115,203.1h-0.9c-0.1,0-0.1,0-0.1,0.1v5.6c0,0.1,0,0.1,0.1,0.1h0.9c0.1,0,0.1,0,0.1-0.1v-5.6
		C115.1,203.2,115.1,203.1,115,203.1z"/>
	<path class="st6" d="M114.5,200.7c-0.2,0-0.4,0.1-0.5,0.2c-0.1,0.1-0.2,0.3-0.2,0.5v0.1c0,0.2,0.1,0.4,0.2,0.5
		c0.1,0.1,0.3,0.2,0.5,0.2c0.2,0,0.4-0.1,0.5-0.2c0.1-0.1,0.2-0.3,0.2-0.5v-0.1c0-0.2-0.1-0.4-0.2-0.5
		C114.9,200.7,114.8,200.7,114.5,200.7z"/>
	<path class="st6" d="M119.9,203c-0.4,0-0.7,0.1-1.1,0.2c-0.3,0.1-0.6,0.3-0.9,0.6V201c0-0.1,0-0.1-0.1-0.1h-0.9
		c-0.1,0-0.1,0-0.1,0.1v8c0.3,0,0.6,0.1,0.9,0.1c0.3,0,0.5,0.1,0.7,0.1c0.2,0,0.5,0,0.8,0c0.8,0,1.5-0.2,1.9-0.6s0.6-1,0.6-1.8v-1.5
		c0-0.7-0.1-1.3-0.4-1.7C120.9,203.2,120.5,203,119.9,203z M120.5,206.6c0,0.5-0.1,0.9-0.4,1.2c-0.2,0.3-0.6,0.4-1.1,0.4
		c-0.2,0-0.3,0-0.5,0s-0.4-0.1-0.6-0.1v-3.2c0.3-0.3,0.6-0.5,0.8-0.6c0.3-0.2,0.5-0.2,0.8-0.2c0.3,0,0.6,0.1,0.7,0.3
		c0.2,0.2,0.2,0.5,0.2,1V206.6z"/>
	<path class="st6" d="M128.1,207.5v-4.3c0-0.1,0-0.1-0.1-0.1H127c-0.1,0-0.1,0-0.1,0.1v3.9c-0.3,0.3-0.6,0.6-0.8,0.7
		c-0.3,0.2-0.6,0.3-0.9,0.3c-0.3,0-0.5-0.1-0.6-0.3c-0.1-0.2-0.2-0.5-0.2-0.8v-3.8c0-0.1,0-0.1-0.1-0.1h-0.9c-0.1,0-0.1,0-0.1,0.1
		v3.9c0,0.6,0.1,1.1,0.4,1.5c0.3,0.3,0.7,0.5,1.2,0.5c0.3,0,0.5,0,0.8-0.1s0.5-0.2,0.8-0.4c0.2-0.1,0.4-0.3,0.6-0.5
		c0,0.1,0,0.2,0,0.3c0,0.2,0,0.3,0.1,0.5c0,0.1,0.1,0.1,0.2,0.1h0.8c0.1,0,0.1,0,0.1-0.1c0-0.2,0-0.4-0.1-0.7
		C128.1,208,128.1,207.8,128.1,207.5z"/>
	<path class="st6" d="M133,208c-0.1,0.1-0.3,0.1-0.4,0.1c-0.2,0-0.3,0.1-0.5,0.1c-0.3,0-0.5-0.1-0.6-0.2c-0.1-0.2-0.2-0.4-0.2-0.8
		v-3.1h1.7c0.1,0,0.1,0,0.1-0.1v-0.7c0-0.1,0-0.1-0.1-0.1h-1.7l0-1.4c0-0.1,0-0.1-0.1-0.1h-0.7c-0.1,0-0.1,0-0.1,0.1l-0.1,1.4h-0.9
		c-0.1,0-0.1,0-0.1,0.1v0.7c0,0.1,0,0.1,0.1,0.1h0.9v3.1c0,0.4,0.1,0.8,0.2,1.1c0.1,0.3,0.3,0.5,0.6,0.6c0.3,0.1,0.6,0.2,1,0.2
		c0.2,0,0.5,0,0.7-0.1c0.2,0,0.4-0.1,0.5-0.1c0.1,0,0.1-0.1,0.1-0.1v-0.7C133.2,208,133.1,207.9,133,208z"/>
	<path class="st6" d="M135.4,203.1h-0.9c-0.1,0-0.1,0-0.1,0.1v5.6c0,0.1,0,0.1,0.1,0.1h0.9c0.1,0,0.1,0,0.1-0.1v-5.6
		C135.6,203.2,135.5,203.1,135.4,203.1z"/>
	<path class="st6" d="M135,200.7c-0.2,0-0.4,0.1-0.5,0.2c-0.1,0.1-0.2,0.3-0.2,0.5v0.1c0,0.2,0.1,0.4,0.2,0.5
		c0.1,0.1,0.3,0.2,0.5,0.2c0.2,0,0.4-0.1,0.5-0.2c0.1-0.1,0.2-0.3,0.2-0.5v-0.1c0-0.2-0.1-0.4-0.2-0.5
		C135.4,200.7,135.2,200.7,135,200.7z"/>
	<path class="st6" d="M139.6,203c-0.8,0-1.5,0.2-1.9,0.6c-0.4,0.4-0.6,1-0.6,1.8v1.4c0,0.8,0.2,1.4,0.6,1.8c0.4,0.4,1.1,0.6,1.9,0.6
		c0.8,0,1.5-0.2,1.9-0.6c0.4-0.4,0.6-1,0.6-1.8v-1.4c0-0.8-0.2-1.4-0.6-1.8C141.1,203.2,140.5,203,139.6,203z M141,206.7
		c0,0.5-0.1,0.9-0.3,1.1c-0.2,0.2-0.6,0.4-1.1,0.4c-0.5,0-0.8-0.1-1.1-0.4c-0.2-0.2-0.3-0.6-0.3-1.1v-1.2c0-0.5,0.1-0.9,0.3-1.1
		c0.2-0.2,0.6-0.4,1.1-0.4c0.5,0,0.8,0.1,1.1,0.4c0.2,0.2,0.3,0.6,0.3,1.1V206.7z"/>
	<path class="st6" d="M146.9,203c-0.3,0-0.5,0-0.8,0.1c-0.2,0.1-0.5,0.2-0.7,0.4c-0.2,0.1-0.4,0.3-0.6,0.5c0,0,0,0,0,0
		c0-0.1,0-0.3,0-0.4c0-0.1,0-0.2,0-0.3c0-0.1-0.1-0.1-0.1-0.1h-0.8c-0.1,0-0.1,0.1-0.1,0.2c0,0.2,0,0.4,0.1,0.6s0,0.5,0,0.7v4.3
		c0,0.1,0,0.1,0.1,0.1h0.9c0.1,0,0.1,0,0.1-0.1V205c0.3-0.3,0.6-0.5,0.8-0.7c0.3-0.2,0.6-0.3,0.9-0.3c0.3,0,0.5,0.1,0.7,0.3
		c0.2,0.2,0.2,0.5,0.2,0.8v3.8c0,0.1,0,0.1,0.1,0.1h0.9c0.1,0,0.1,0,0.1-0.1V205c0-0.7-0.1-1.2-0.4-1.5
		C147.9,203.2,147.5,203,146.9,203z"/>
	<path class="st6" d="M157.7,208.1c0-0.2,0-0.3,0-0.4V201c0-0.1,0-0.1-0.1-0.1h-0.9c-0.1,0-0.1,0-0.1,0.1v2.4
		c-0.2-0.1-0.4-0.2-0.7-0.2c-0.3-0.1-0.7-0.1-1-0.1c-0.7,0-1.2,0.2-1.6,0.6s-0.6,1-0.6,1.8v1.5c0,0.7,0.1,1.3,0.4,1.6
		c0.3,0.4,0.7,0.6,1.3,0.6c0.3,0,0.6,0,0.8-0.1s0.5-0.2,0.7-0.4c0.2-0.1,0.4-0.3,0.6-0.5c0,0.1,0,0.2,0,0.3c0,0.2,0,0.3,0.1,0.5
		c0,0.1,0.1,0.1,0.1,0.1h0.8c0.1,0,0.1-0.1,0.1-0.2c0-0.1,0-0.2,0-0.3C157.7,208.4,157.7,208.2,157.7,208.1z M156,207.7
		c-0.2,0.2-0.4,0.3-0.6,0.4c-0.2,0.1-0.4,0.1-0.6,0.1c-0.3,0-0.5-0.1-0.7-0.3c-0.2-0.2-0.2-0.5-0.2-0.9v-1.4c0-0.5,0.1-0.9,0.3-1.2
		s0.5-0.4,0.9-0.4c0.2,0,0.5,0,0.8,0.1c0.2,0.1,0.4,0.1,0.6,0.2v2.9C156.4,207.4,156.2,207.6,156,207.7z"/>
	<path class="st6" d="M164.2,207.5v-4.3c0-0.1,0-0.1-0.1-0.1h-0.9c-0.1,0-0.1,0-0.1,0.1v3.9c-0.3,0.3-0.6,0.6-0.8,0.7
		c-0.3,0.2-0.6,0.3-0.9,0.3c-0.3,0-0.5-0.1-0.6-0.3s-0.2-0.5-0.2-0.8v-3.8c0-0.1,0-0.1-0.1-0.1h-0.9c-0.1,0-0.1,0-0.1,0.1v3.9
		c0,0.6,0.1,1.1,0.4,1.5c0.3,0.3,0.7,0.5,1.2,0.5c0.3,0,0.5,0,0.8-0.1s0.5-0.2,0.8-0.4c0.2-0.1,0.4-0.3,0.6-0.5c0,0.1,0,0.2,0,0.3
		c0,0.2,0,0.3,0.1,0.5c0,0.1,0.1,0.1,0.2,0.1h0.8c0.1,0,0.1,0,0.1-0.1c0-0.2,0-0.4-0.1-0.7C164.3,208,164.2,207.8,164.2,207.5z"/>
	<path class="st6" d="M175.2,203c-0.4,0-0.7,0.1-1.1,0.3s-0.7,0.5-1,0.8c-0.1-0.4-0.3-0.6-0.5-0.8c-0.2-0.2-0.6-0.3-1-0.3
		c-0.4,0-0.7,0.1-1,0.3s-0.7,0.4-1,0.8c0-0.1,0-0.3,0-0.4c0-0.1,0-0.3-0.1-0.4c0-0.1-0.1-0.1-0.1-0.1h-0.8c-0.1,0-0.1,0-0.1,0.1
		c0,0.2,0.1,0.4,0.1,0.6c0,0.2,0,0.5,0,0.7v4.3c0,0.1,0,0.1,0.1,0.1h0.9c0.1,0,0.1,0,0.1-0.1v-3.9c0.3-0.3,0.6-0.6,0.9-0.7
		c0.3-0.2,0.5-0.2,0.8-0.2c0.3,0,0.5,0.1,0.6,0.3c0.1,0.2,0.2,0.5,0.2,0.8v3.8c0,0.1,0,0.1,0.1,0.1h0.9c0.1,0,0.1,0,0.1-0.1v-3.9
		c0.3-0.3,0.6-0.6,0.9-0.7s0.5-0.2,0.8-0.2c0.3,0,0.5,0.1,0.6,0.3c0.1,0.2,0.2,0.5,0.2,0.8v3.8c0,0.1,0,0.1,0.1,0.1h0.9
		c0.1,0,0.1,0,0.1-0.1V205c0-0.7-0.1-1.1-0.4-1.5C176.2,203.2,175.8,203,175.2,203z"/>
	<path class="st6" d="M180.9,203c-0.8,0-1.5,0.2-1.9,0.6c-0.4,0.4-0.6,1-0.6,1.8v1.4c0,0.8,0.2,1.4,0.6,1.8c0.4,0.4,1.1,0.6,1.9,0.6
		c0.8,0,1.5-0.2,1.9-0.6c0.4-0.4,0.6-1,0.6-1.8v-1.4c0-0.8-0.2-1.4-0.6-1.8C182.4,203.2,181.8,203,180.9,203z M182.3,206.7
		c0,0.5-0.1,0.9-0.3,1.1c-0.2,0.2-0.6,0.4-1.1,0.4s-0.8-0.1-1.1-0.4s-0.3-0.6-0.3-1.1v-1.2c0-0.5,0.1-0.9,0.3-1.1s0.6-0.4,1.1-0.4
		s0.8,0.1,1.1,0.4c0.2,0.2,0.3,0.6,0.3,1.1V206.7z"/>
	<path class="st6" d="M185.6,200.7c-0.2,0-0.4,0.1-0.5,0.2c-0.1,0.1-0.2,0.3-0.2,0.5v0.1c0,0.2,0.1,0.4,0.2,0.5s0.3,0.2,0.5,0.2
		c0.2,0,0.4-0.1,0.5-0.2s0.2-0.3,0.2-0.5v-0.1c0-0.2-0.1-0.4-0.2-0.5C186,200.7,185.8,200.7,185.6,200.7z"/>
	<path class="st6" d="M186,203.1h-0.9c-0.1,0-0.1,0-0.1,0.1v5.6c0,0.1,0,0.1,0.1,0.1h0.9c0.1,0,0.1,0,0.1-0.1v-5.6
		C186.2,203.2,186.1,203.1,186,203.1z"/>
	<path class="st6" d="M191.1,203c-0.3,0-0.5,0-0.8,0.1c-0.2,0.1-0.5,0.2-0.7,0.4c-0.2,0.1-0.4,0.3-0.6,0.5c0,0,0,0,0,0
		c0-0.1,0-0.3,0-0.4s0-0.2,0-0.3c0-0.1-0.1-0.1-0.1-0.1h-0.8c-0.1,0-0.1,0.1-0.1,0.2c0,0.2,0,0.4,0.1,0.6c0,0.3,0,0.5,0,0.7v4.3
		c0,0.1,0,0.1,0.1,0.1h0.9c0.1,0,0.1,0,0.1-0.1V205c0.3-0.3,0.6-0.5,0.8-0.7c0.3-0.2,0.6-0.3,0.9-0.3c0.3,0,0.5,0.1,0.7,0.3
		s0.2,0.5,0.2,0.8v3.8c0,0.1,0,0.1,0.1,0.1h0.9c0.1,0,0.1,0,0.1-0.1V205c0-0.7-0.2-1.2-0.5-1.5S191.7,203,191.1,203z"/>
	<path class="st6" d="M196.8,203c-0.8,0-1.4,0.2-1.8,0.6c-0.4,0.4-0.6,1-0.6,1.8v1.6c0,0.7,0.2,1.3,0.6,1.6c0.4,0.4,1,0.6,1.8,0.6
		c0.8,0,1.3-0.1,1.7-0.4s0.6-0.7,0.6-1.2c0-0.1-0.1-0.1-0.1-0.1h-0.9c-0.1,0-0.1,0-0.1,0.1c0,0.2-0.1,0.4-0.3,0.5
		c-0.2,0.1-0.5,0.2-0.8,0.2c-0.5,0-0.8-0.1-1-0.3c-0.2-0.2-0.3-0.6-0.3-1.1v-0.4h3.6c0.1,0,0.1,0,0.1-0.1v-0.9
		c0-0.7-0.2-1.3-0.6-1.7S197.6,203,196.8,203z M198.2,205.5h-2.6v0c0-0.5,0.1-0.8,0.3-1.1c0.2-0.2,0.6-0.4,1-0.4
		c0.4,0,0.7,0.1,1,0.3C198,204.5,198.2,204.9,198.2,205.5L198.2,205.5z"/>
	<path class="st6" d="M205.1,207.6V205c0-0.7-0.2-1.2-0.5-1.5s-0.9-0.5-1.6-0.5c-0.7,0-1.3,0.1-1.7,0.4c-0.4,0.3-0.6,0.7-0.5,1.2
		c0,0.2,0.1,0.2,0.1,0.2h0.9c0.1,0,0.1,0,0.1-0.1c0-0.5,0.3-0.7,1-0.7c0.4,0,0.7,0.1,0.8,0.2c0.2,0.2,0.2,0.4,0.2,0.8v0.5l-0.9,0.1
		c-0.6,0-1.1,0.1-1.5,0.3c-0.4,0.1-0.6,0.4-0.8,0.6c-0.2,0.3-0.2,0.6-0.2,1c0,0.5,0.1,0.9,0.4,1.2c0.2,0.3,0.6,0.4,1.1,0.4
		c0.3,0,0.5,0,0.8-0.1c0.2-0.1,0.5-0.2,0.7-0.4c0.2-0.1,0.4-0.3,0.6-0.5c0,0.1,0,0.2,0,0.4c0,0.2,0,0.3,0.1,0.4c0,0,0,0.1,0.1,0.1
		s0.1,0,0.1,0h0.8c0.1,0,0.1,0,0.1-0.1c0-0.2,0-0.4-0.1-0.6C205.1,208.1,205.1,207.8,205.1,207.6z M203.1,207.9
		c-0.3,0.2-0.5,0.3-0.8,0.3c-0.2,0-0.4-0.1-0.5-0.2c-0.1-0.1-0.2-0.3-0.2-0.6c0-0.3,0.1-0.6,0.3-0.7s0.6-0.2,1.1-0.3l0.9-0.1v0.9
		C203.6,207.5,203.3,207.8,203.1,207.9z"/>
	<path class="st6" d="M211.6,207.5v-4.3c0-0.1,0-0.1-0.1-0.1h-0.9c-0.1,0-0.1,0-0.1,0.1v3.9c-0.3,0.3-0.6,0.6-0.8,0.7
		c-0.3,0.2-0.6,0.3-0.9,0.3c-0.3,0-0.5-0.1-0.6-0.3c-0.1-0.2-0.2-0.5-0.2-0.8v-3.8c0-0.1,0-0.1-0.1-0.1h-0.9c-0.1,0-0.1,0-0.1,0.1
		v3.9c0,0.6,0.1,1.1,0.4,1.5c0.3,0.3,0.7,0.5,1.2,0.5c0.3,0,0.5,0,0.8-0.1s0.5-0.2,0.8-0.4c0.2-0.1,0.4-0.3,0.6-0.5
		c0,0.1,0,0.2,0,0.3c0,0.2,0,0.3,0.1,0.5c0,0.1,0.1,0.1,0.2,0.1h0.8c0.1,0,0.1,0,0.1-0.1c0-0.2,0-0.4-0.1-0.7
		C211.6,208,211.6,207.8,211.6,207.5z"/>
	<path class="st6" d="M220.6,208.1c0-0.2,0-0.3,0-0.4V201c0-0.1,0-0.1-0.1-0.1h-0.9c-0.1,0-0.1,0-0.1,0.1v2.4
		c-0.2-0.1-0.4-0.2-0.7-0.2c-0.3-0.1-0.7-0.1-1-0.1c-0.7,0-1.2,0.2-1.6,0.6s-0.6,1-0.6,1.8v1.5c0,0.7,0.1,1.3,0.4,1.6
		c0.3,0.4,0.7,0.6,1.3,0.6c0.3,0,0.6,0,0.8-0.1s0.5-0.2,0.7-0.4c0.2-0.1,0.4-0.3,0.6-0.5c0,0.1,0,0.2,0,0.3c0,0.2,0,0.3,0.1,0.5
		c0,0.1,0.1,0.1,0.1,0.1h0.8c0.1,0,0.1-0.1,0.1-0.2c0-0.1,0-0.2,0-0.3C220.6,208.4,220.6,208.2,220.6,208.1z M218.9,207.7
		c-0.2,0.2-0.4,0.3-0.6,0.4c-0.2,0.1-0.4,0.1-0.6,0.1c-0.3,0-0.5-0.1-0.7-0.3c-0.2-0.2-0.2-0.5-0.2-0.9v-1.4c0-0.5,0.1-0.9,0.3-1.2
		s0.5-0.4,0.9-0.4c0.2,0,0.5,0,0.8,0.1c0.2,0.1,0.4,0.1,0.6,0.2v2.9C219.3,207.4,219.1,207.6,218.9,207.7z"/>
	<path class="st6" d="M224.7,203c-0.8,0-1.5,0.2-1.9,0.6c-0.4,0.4-0.6,1-0.6,1.8v1.4c0,0.8,0.2,1.4,0.6,1.8c0.4,0.4,1.1,0.6,1.9,0.6
		c0.8,0,1.5-0.2,1.9-0.6c0.4-0.4,0.6-1,0.6-1.8v-1.4c0-0.8-0.2-1.4-0.6-1.8C226.2,203.2,225.5,203,224.7,203z M226.1,206.7
		c0,0.5-0.1,0.9-0.3,1.1c-0.2,0.2-0.6,0.4-1.1,0.4s-0.8-0.1-1.1-0.4s-0.3-0.6-0.3-1.1v-1.2c0-0.5,0.1-0.9,0.3-1.1s0.6-0.4,1.1-0.4
		s0.8,0.1,1.1,0.4c0.2,0.2,0.3,0.6,0.3,1.1V206.7z"/>
	<path class="st6" d="M235.5,203c-0.4,0-0.7,0.1-1.1,0.3s-0.7,0.5-1,0.8c-0.1-0.4-0.3-0.6-0.5-0.8c-0.2-0.2-0.6-0.3-1-0.3
		c-0.4,0-0.7,0.1-1,0.3s-0.7,0.4-1,0.8c0-0.1,0-0.3,0-0.4c0-0.1,0-0.3-0.1-0.4c0-0.1-0.1-0.1-0.1-0.1h-0.8c-0.1,0-0.1,0-0.1,0.1
		c0,0.2,0.1,0.4,0.1,0.6c0,0.2,0,0.5,0,0.7v4.3c0,0.1,0,0.1,0.1,0.1h0.9c0.1,0,0.1,0,0.1-0.1v-3.9c0.3-0.3,0.6-0.6,0.9-0.7
		c0.3-0.2,0.5-0.2,0.8-0.2c0.3,0,0.5,0.1,0.6,0.3c0.1,0.2,0.2,0.5,0.2,0.8v3.8c0,0.1,0,0.1,0.1,0.1h0.9c0.1,0,0.1,0,0.1-0.1v-3.9
		c0.3-0.3,0.6-0.6,0.9-0.7s0.5-0.2,0.8-0.2c0.3,0,0.5,0.1,0.6,0.3c0.1,0.2,0.2,0.5,0.2,0.8v3.8c0,0.1,0,0.1,0.1,0.1h0.9
		c0.1,0,0.1,0,0.1-0.1V205c0-0.7-0.1-1.1-0.4-1.5C236.5,203.2,236.1,203,235.5,203z"/>
	<path class="st6" d="M241.2,203c-0.8,0-1.4,0.2-1.8,0.6c-0.4,0.4-0.6,1-0.6,1.8v1.6c0,0.7,0.2,1.3,0.6,1.6c0.4,0.4,1,0.6,1.8,0.6
		c0.8,0,1.3-0.1,1.7-0.4s0.6-0.7,0.6-1.2c0-0.1-0.1-0.1-0.1-0.1h-0.9c-0.1,0-0.1,0-0.1,0.1c0,0.2-0.1,0.4-0.3,0.5
		c-0.2,0.1-0.5,0.2-0.8,0.2c-0.5,0-0.8-0.1-1-0.3c-0.2-0.2-0.3-0.6-0.3-1.1v-0.4h3.6c0.1,0,0.1,0,0.1-0.1v-0.9
		c0-0.7-0.2-1.3-0.6-1.7S242,203,241.2,203z M242.5,205.5h-2.6v0c0-0.5,0.1-0.8,0.3-1.1c0.2-0.2,0.6-0.4,1-0.4c0.4,0,0.7,0.1,1,0.3
		C242.4,204.5,242.5,204.9,242.5,205.5L242.5,205.5z"/>
	<path class="st6" d="M248.2,205.9l-1.4-0.6c-0.3-0.1-0.5-0.2-0.5-0.3s-0.1-0.2-0.1-0.4c0-0.2,0.1-0.4,0.2-0.5
		c0.2-0.1,0.4-0.2,0.7-0.2s0.6,0.1,0.8,0.2c0.2,0.1,0.3,0.3,0.3,0.5c0,0.1,0,0.2,0.1,0.2h0.9c0.1,0,0.1,0,0.1-0.1
		c0-0.5-0.2-0.9-0.6-1.2s-0.9-0.4-1.6-0.4c-0.7,0-1.2,0.1-1.5,0.4c-0.3,0.3-0.5,0.7-0.5,1.2c0,0.4,0.1,0.7,0.3,0.9
		c0.2,0.2,0.5,0.4,0.9,0.6l1.4,0.6c0.2,0.1,0.4,0.2,0.5,0.3c0.1,0.1,0.2,0.3,0.2,0.4c0,0.2-0.1,0.4-0.3,0.5
		c-0.2,0.1-0.5,0.2-0.8,0.2c-0.4,0-0.7-0.1-0.8-0.2c-0.2-0.2-0.3-0.4-0.3-0.7c0-0.1,0-0.1-0.1-0.1H245c-0.1,0-0.1,0-0.1,0.1
		c0,0.6,0.2,1.1,0.5,1.4c0.4,0.3,0.9,0.5,1.7,0.5c0.7,0,1.3-0.1,1.7-0.4c0.4-0.3,0.6-0.7,0.6-1.3c0-0.4-0.1-0.7-0.3-0.9
		C248.9,206.2,248.6,206,248.2,205.9z"/>
	<path class="st6" d="M254,208c-0.1,0.1-0.3,0.1-0.4,0.1c-0.2,0-0.3,0.1-0.5,0.1c-0.3,0-0.5-0.1-0.6-0.2c-0.1-0.2-0.2-0.4-0.2-0.8
		v-3.1h1.7c0.1,0,0.1,0,0.1-0.1v-0.7c0-0.1,0-0.1-0.1-0.1h-1.7l0-1.4c0-0.1,0-0.1-0.1-0.1h-0.7c-0.1,0-0.1,0-0.1,0.1l-0.1,1.4h-0.9
		c-0.1,0-0.1,0-0.1,0.1v0.7c0,0.1,0,0.1,0.1,0.1h0.9v3.1c0,0.4,0.1,0.8,0.2,1.1c0.1,0.3,0.3,0.5,0.6,0.6c0.3,0.1,0.6,0.2,1,0.2
		c0.2,0,0.5,0,0.7-0.1s0.4-0.1,0.5-0.1c0.1,0,0.1-0.1,0.1-0.1v-0.7C254.2,208,254.1,207.9,254,208z"/>
	<path class="st6" d="M256,200.7c-0.2,0-0.4,0.1-0.5,0.2c-0.1,0.1-0.2,0.3-0.2,0.5v0.1c0,0.2,0.1,0.4,0.2,0.5s0.3,0.2,0.5,0.2
		c0.2,0,0.4-0.1,0.5-0.2s0.2-0.3,0.2-0.5v-0.1c0-0.2-0.1-0.4-0.2-0.5C256.4,200.7,256.2,200.7,256,200.7z"/>
	<path class="st6" d="M256.4,203.1h-0.9c-0.1,0-0.1,0-0.1,0.1v5.6c0,0.1,0,0.1,0.1,0.1h0.9c0.1,0,0.1,0,0.1-0.1v-5.6
		C256.6,203.2,256.5,203.1,256.4,203.1z"/>
	<path class="st6" d="M261.5,203.1c-0.3,0-0.5-0.1-0.8-0.1c-0.8,0-1.5,0.2-1.9,0.6c-0.4,0.4-0.6,1-0.6,1.8v1.5
		c0,0.7,0.1,1.3,0.4,1.6c0.3,0.4,0.7,0.5,1.3,0.5c0.4,0,0.7-0.1,1.1-0.2c0.3-0.1,0.6-0.4,0.9-0.6v2.8c0,0.1,0,0.1,0.1,0.1h0.9
		c0.1,0,0.1,0,0.1-0.1v-7.8c-0.3,0-0.6-0.1-0.9-0.1S261.7,203.1,261.5,203.1z M261,207.9c-0.3,0.1-0.5,0.2-0.8,0.2
		c-0.3,0-0.6-0.1-0.7-0.3c-0.1-0.2-0.2-0.5-0.2-1v-1.3c0-0.5,0.1-0.9,0.3-1.2s0.6-0.4,1.1-0.4c0.2,0,0.4,0,0.6,0
		c0.2,0,0.4,0.1,0.6,0.1v3.2C261.6,207.6,261.3,207.8,261,207.9z"/>
	<path class="st6" d="M269.6,207.5v-4.3c0-0.1,0-0.1-0.1-0.1h-0.9c-0.1,0-0.1,0-0.1,0.1v3.9c-0.3,0.3-0.6,0.6-0.8,0.7
		c-0.3,0.2-0.6,0.3-0.9,0.3c-0.3,0-0.5-0.1-0.6-0.3s-0.2-0.5-0.2-0.8v-3.8c0-0.1,0-0.1-0.1-0.1h-0.9c-0.1,0-0.1,0-0.1,0.1v3.9
		c0,0.6,0.1,1.1,0.4,1.5c0.3,0.3,0.7,0.5,1.2,0.5c0.3,0,0.5,0,0.8-0.1s0.5-0.2,0.8-0.4c0.2-0.1,0.4-0.3,0.6-0.5c0,0.1,0,0.2,0,0.3
		c0,0.2,0,0.3,0.1,0.5c0,0.1,0.1,0.1,0.2,0.1h0.8c0.1,0,0.1,0,0.1-0.1c0-0.2,0-0.4-0.1-0.7C269.6,208,269.6,207.8,269.6,207.5z"/>
	<path class="st6" d="M275.4,203.6c-0.4-0.4-1-0.6-1.8-0.6s-1.4,0.2-1.8,0.6c-0.4,0.4-0.6,1-0.6,1.8v1.6c0,0.7,0.2,1.3,0.6,1.6
		c0.4,0.4,1,0.6,1.8,0.6c0.8,0,1.3-0.1,1.7-0.4s0.6-0.7,0.6-1.2c0-0.1-0.1-0.1-0.1-0.1h-0.9c-0.1,0-0.1,0-0.1,0.1
		c0,0.2-0.1,0.4-0.3,0.5c-0.2,0.1-0.5,0.2-0.8,0.2c-0.5,0-0.8-0.1-1-0.3c-0.2-0.2-0.3-0.6-0.3-1.1v-0.4h3.6c0.1,0,0.1,0,0.1-0.1
		v-0.9C276,204.6,275.8,204,275.4,203.6z M274.9,205.5h-2.6v0c0-0.5,0.1-0.8,0.3-1.1c0.2-0.2,0.6-0.4,1-0.4c0.4,0,0.7,0.1,1,0.3
		C274.8,204.5,274.9,204.9,274.9,205.5L274.9,205.5z"/>
</g>
<g>
	<path class="st6" d="M94.5,224.6c-0.5-0.2-1-0.3-1.7-0.3c-1,0-1.7,0.2-2.2,0.7c-0.5,0.5-0.8,1.2-0.8,2.1v2.4c0,0.9,0.3,1.6,0.8,2.1
		s1.3,0.7,2.2,0.7c0.6,0,1.2-0.1,1.7-0.3c0.5-0.2,0.8-0.5,1.1-0.9c0.2-0.4,0.3-0.9,0.3-1.4c0-0.1-0.1-0.2-0.1-0.2h-0.9
		c-0.1,0-0.1,0-0.1,0.1c0.1,0.5-0.1,1-0.4,1.3c-0.3,0.3-0.8,0.5-1.4,0.5c-0.6,0-1.1-0.2-1.4-0.5c-0.3-0.3-0.5-0.8-0.5-1.4v-2.4
		c0-0.6,0.2-1.1,0.5-1.4c0.3-0.3,0.8-0.5,1.4-0.5c0.6,0,1.1,0.2,1.4,0.5c0.3,0.3,0.4,0.7,0.4,1.3c0,0.1,0,0.1,0.1,0.1h0.9
		c0,0,0.1,0,0.1-0.1c0,0,0-0.1,0-0.1c0.1-0.6,0-1-0.2-1.4S95,224.8,94.5,224.6z"/>
	<path class="st6" d="M100.5,226.3c-0.1,0-0.2,0-0.3,0c-0.2,0-0.4,0.1-0.6,0.2c-0.2,0.1-0.4,0.3-0.7,0.5c-0.2,0.1-0.3,0.3-0.5,0.5
		c0-0.1,0-0.2,0-0.4c0-0.2,0-0.4-0.1-0.5c0-0.1-0.1-0.1-0.1-0.1h-0.8c-0.1,0-0.1,0-0.1,0.1c0,0.2,0.1,0.4,0.1,0.6c0,0.2,0,0.4,0,0.7
		v4.3c0,0.1,0,0.1,0.1,0.1h0.9c0.1,0,0.1,0,0.1-0.1v-3.7c0.1-0.1,0.2-0.3,0.4-0.4c0.2-0.2,0.4-0.3,0.6-0.4c0.2-0.1,0.4-0.1,0.6-0.1
		c0.1,0,0.2,0,0.2,0c0.1,0,0.1,0,0.2,0c0.1,0,0.2,0,0.2-0.1c0-0.2,0-0.3,0-0.5c0-0.2,0-0.4,0-0.5
		C100.6,226.3,100.6,226.3,100.5,226.3z"/>
	<path class="st6" d="M104,226.2c-0.8,0-1.5,0.2-1.9,0.6c-0.4,0.4-0.6,1-0.6,1.8v1.4c0,0.8,0.2,1.4,0.6,1.8c0.4,0.4,1.1,0.6,1.9,0.6
		c0.8,0,1.5-0.2,1.9-0.6c0.4-0.4,0.6-1,0.6-1.8v-1.4c0-0.8-0.2-1.4-0.6-1.8C105.4,226.4,104.8,226.2,104,226.2z M105.3,229.9
		c0,0.5-0.1,0.9-0.3,1.1c-0.2,0.2-0.6,0.4-1.1,0.4c-0.5,0-0.8-0.1-1.1-0.4c-0.2-0.2-0.3-0.6-0.3-1.1v-1.2c0-0.5,0.1-0.9,0.3-1.1
		c0.2-0.2,0.6-0.4,1.1-0.4c0.5,0,0.8,0.1,1.1,0.4c0.2,0.2,0.3,0.6,0.3,1.1V229.9z"/>
	<path class="st6" d="M108.6,223.9c-0.2,0-0.4,0.1-0.5,0.2c-0.1,0.1-0.2,0.3-0.2,0.5v0.1c0,0.2,0.1,0.4,0.2,0.5
		c0.1,0.1,0.3,0.2,0.5,0.2c0.2,0,0.4-0.1,0.5-0.2c0.1-0.1,0.2-0.3,0.2-0.5v-0.1c0-0.2-0.1-0.4-0.2-0.5
		C109,224,108.9,223.9,108.6,223.9z"/>
	<path class="st6" d="M109.1,226.4h-0.9c-0.1,0-0.1,0-0.1,0.1v5.6c0,0.1,0,0.1,0.1,0.1h0.9c0.1,0,0.1,0,0.1-0.1v-5.6
		C109.2,226.4,109.1,226.4,109.1,226.4z"/>
	<path class="st6" d="M113.9,229.1l-1.4-0.6c-0.3-0.1-0.5-0.2-0.5-0.3c-0.1-0.1-0.1-0.2-0.1-0.4c0-0.2,0.1-0.4,0.2-0.5
		c0.2-0.1,0.4-0.2,0.7-0.2c0.3,0,0.6,0.1,0.8,0.2c0.2,0.1,0.3,0.3,0.3,0.5c0,0.1,0,0.2,0.1,0.2h0.9c0.1,0,0.1,0,0.1-0.1
		c0-0.5-0.2-0.9-0.6-1.2s-0.9-0.4-1.6-0.4c-0.7,0-1.2,0.1-1.5,0.4c-0.3,0.3-0.5,0.7-0.5,1.2c0,0.4,0.1,0.7,0.3,0.9
		c0.2,0.2,0.5,0.4,0.9,0.6l1.4,0.6c0.2,0.1,0.4,0.2,0.5,0.3s0.2,0.3,0.2,0.4c0,0.2-0.1,0.4-0.3,0.5s-0.5,0.2-0.8,0.2
		c-0.4,0-0.7-0.1-0.8-0.2c-0.2-0.2-0.3-0.4-0.3-0.7c0-0.1,0-0.1-0.1-0.1h-0.9c-0.1,0-0.1,0-0.1,0.1c0,0.6,0.2,1.1,0.5,1.4
		c0.4,0.3,0.9,0.5,1.7,0.5c0.7,0,1.3-0.1,1.7-0.4s0.6-0.7,0.6-1.3c0-0.4-0.1-0.7-0.3-0.9C114.6,229.5,114.3,229.3,113.9,229.1z"/>
	<path class="st6" d="M119.3,229.1l-1.4-0.6c-0.3-0.1-0.5-0.2-0.5-0.3c-0.1-0.1-0.1-0.2-0.1-0.4c0-0.2,0.1-0.4,0.2-0.5
		c0.2-0.1,0.4-0.2,0.7-0.2c0.3,0,0.6,0.1,0.8,0.2c0.2,0.1,0.3,0.3,0.3,0.5c0,0.1,0,0.2,0.1,0.2h0.9c0.1,0,0.1,0,0.1-0.1
		c0-0.5-0.2-0.9-0.6-1.2s-0.9-0.4-1.6-0.4c-0.7,0-1.2,0.1-1.5,0.4c-0.3,0.3-0.5,0.7-0.5,1.2c0,0.4,0.1,0.7,0.3,0.9
		c0.2,0.2,0.5,0.4,0.9,0.6l1.4,0.6c0.2,0.1,0.4,0.2,0.5,0.3s0.2,0.3,0.2,0.4c0,0.2-0.1,0.4-0.3,0.5s-0.5,0.2-0.8,0.2
		c-0.4,0-0.7-0.1-0.8-0.2c-0.2-0.2-0.3-0.4-0.3-0.7c0-0.1,0-0.1-0.1-0.1h-0.9c-0.1,0-0.1,0-0.1,0.1c0,0.6,0.2,1.1,0.5,1.4
		c0.4,0.3,0.9,0.5,1.7,0.5c0.7,0,1.3-0.1,1.7-0.4s0.6-0.7,0.6-1.3c0-0.4-0.1-0.7-0.3-0.9C120,229.5,119.7,229.3,119.3,229.1z"/>
	<path class="st6" d="M126.1,230.8v-2.5c0-0.7-0.2-1.2-0.5-1.5c-0.3-0.3-0.9-0.5-1.6-0.5c-0.7,0-1.3,0.1-1.7,0.4s-0.6,0.7-0.5,1.2
		c0,0.2,0.1,0.2,0.1,0.2h0.9c0.1,0,0.1,0,0.1-0.1c0-0.5,0.3-0.7,1-0.7c0.4,0,0.7,0.1,0.8,0.2c0.2,0.2,0.2,0.4,0.2,0.8v0.5l-0.9,0.1
		c-0.6,0-1.1,0.1-1.5,0.3c-0.4,0.1-0.6,0.4-0.8,0.6c-0.2,0.3-0.2,0.6-0.2,1c0,0.5,0.1,0.9,0.4,1.2c0.2,0.3,0.6,0.4,1.1,0.4
		c0.3,0,0.5,0,0.8-0.1s0.5-0.2,0.7-0.4c0.2-0.1,0.4-0.3,0.6-0.5c0,0.1,0,0.2,0,0.4c0,0.2,0,0.3,0.1,0.4c0,0,0,0.1,0.1,0.1
		c0,0,0.1,0,0.1,0h0.8c0.1,0,0.1,0,0.1-0.1c0-0.2,0-0.4-0.1-0.6C126.2,231.3,126.1,231.1,126.1,230.8z M124.1,231.2
		c-0.3,0.2-0.5,0.3-0.8,0.3c-0.2,0-0.4-0.1-0.5-0.2c-0.1-0.1-0.2-0.3-0.2-0.6c0-0.3,0.1-0.6,0.3-0.7c0.2-0.1,0.6-0.2,1.1-0.3
		l0.9-0.1v0.9C124.7,230.8,124.4,231,124.1,231.2z"/>
	<path class="st6" d="M131,226.2c-0.3,0-0.5,0-0.8,0.1c-0.2,0.1-0.5,0.2-0.7,0.4c-0.2,0.1-0.4,0.3-0.6,0.5c0,0,0,0,0,0
		c0-0.1,0-0.3,0-0.4c0-0.1,0-0.2,0-0.3c0-0.1-0.1-0.1-0.1-0.1h-0.8c-0.1,0-0.1,0.1-0.1,0.2c0,0.2,0,0.4,0.1,0.6s0,0.5,0,0.7v4.3
		c0,0.1,0,0.1,0.1,0.1h0.9c0.1,0,0.1,0,0.1-0.1v-3.9c0.3-0.3,0.6-0.5,0.8-0.7c0.3-0.2,0.6-0.3,0.9-0.3c0.3,0,0.5,0.1,0.7,0.3
		c0.2,0.2,0.2,0.5,0.2,0.8v3.8c0,0.1,0,0.1,0.1,0.1h0.9c0.1,0,0.1,0,0.1-0.1v-3.9c0-0.7-0.1-1.2-0.4-1.5
		C132.1,226.4,131.6,226.2,131,226.2z"/>
	<path class="st6" d="M137.9,231.2c-0.1,0.1-0.3,0.1-0.4,0.1c-0.2,0-0.3,0.1-0.5,0.1c-0.3,0-0.5-0.1-0.6-0.2
		c-0.1-0.2-0.2-0.4-0.2-0.8v-3.1h1.7c0.1,0,0.1,0,0.1-0.1v-0.7c0-0.1,0-0.1-0.1-0.1h-1.7l0-1.4c0-0.1,0-0.1-0.1-0.1h-0.7
		c-0.1,0-0.1,0-0.1,0.1l-0.1,1.4h-0.9c-0.1,0-0.1,0-0.1,0.1v0.7c0,0.1,0,0.1,0.1,0.1h0.9v3.1c0,0.4,0.1,0.8,0.2,1.1
		c0.1,0.3,0.3,0.5,0.6,0.6c0.3,0.1,0.6,0.2,1,0.2c0.2,0,0.5,0,0.7-0.1c0.2,0,0.4-0.1,0.5-0.1c0.1,0,0.1-0.1,0.1-0.1v-0.7
		C138.1,231.2,138,231.2,137.9,231.2z"/>
	<path class="st6" d="M145.3,224.1c-0.1-0.1-0.3-0.1-0.5-0.1s-0.4-0.1-0.6-0.1c-0.6,0-1.1,0.2-1.5,0.5c-0.3,0.3-0.5,0.8-0.5,1.4v0.6
		h-0.9c0,0-0.1,0-0.1,0s0,0,0,0.1v0.7c0,0,0,0.1,0,0.1c0,0,0.1,0,0.1,0h0.9v4.8c0,0,0,0.1,0,0.1c0,0,0.1,0,0.1,0h0.9
		c0,0,0.1,0,0.1,0c0,0,0-0.1,0-0.1v-4.8h1.7c0,0,0.1,0,0.1,0c0,0,0-0.1,0-0.1v-0.7c0-0.1,0-0.1-0.1-0.1h-1.7v-0.6
		c0-0.3,0.1-0.5,0.2-0.7c0.2-0.2,0.4-0.2,0.7-0.2c0.1,0,0.3,0,0.5,0c0.2,0,0.3,0.1,0.5,0.1c0.1,0,0.2,0.1,0.2,0c0,0,0.1-0.1,0.1-0.1
		v-0.7C145.5,224.2,145.4,224.2,145.3,224.1z"/>
	<path class="st6" d="M148.2,226.2c-0.8,0-1.4,0.2-1.8,0.6c-0.4,0.4-0.6,1-0.6,1.8v1.6c0,0.7,0.2,1.3,0.6,1.6c0.4,0.4,1,0.6,1.8,0.6
		c0.8,0,1.3-0.1,1.7-0.4s0.6-0.7,0.6-1.2c0-0.1-0.1-0.1-0.1-0.1h-0.9c-0.1,0-0.1,0-0.1,0.1c0,0.2-0.1,0.4-0.3,0.5
		c-0.2,0.1-0.5,0.2-0.8,0.2c-0.5,0-0.8-0.1-1-0.3c-0.2-0.2-0.3-0.6-0.3-1.1v-0.4h3.6c0.1,0,0.1,0,0.1-0.1v-0.9
		c0-0.7-0.2-1.3-0.6-1.7C149.6,226.4,149,226.2,148.2,226.2z M149.5,228.7h-2.6v0c0-0.5,0.1-0.8,0.3-1.1c0.2-0.2,0.6-0.4,1-0.4
		c0.4,0,0.7,0.1,1,0.3C149.4,227.8,149.5,228.1,149.5,228.7L149.5,228.7z"/>
	<path class="st6" d="M155.3,226.3c-0.1,0-0.2,0-0.3,0c-0.2,0-0.4,0.1-0.6,0.2c-0.2,0.1-0.4,0.3-0.7,0.5c-0.2,0.1-0.3,0.3-0.5,0.5
		c0-0.1,0-0.2,0-0.4c0-0.2,0-0.4-0.1-0.5c0-0.1-0.1-0.1-0.1-0.1h-0.8c-0.1,0-0.1,0-0.1,0.1c0,0.2,0.1,0.4,0.1,0.6s0,0.4,0,0.7v4.3
		c0,0.1,0,0.1,0.1,0.1h0.9c0.1,0,0.1,0,0.1-0.1v-3.7c0.1-0.1,0.2-0.3,0.4-0.4c0.2-0.2,0.4-0.3,0.6-0.4s0.4-0.1,0.6-0.1
		c0.1,0,0.2,0,0.2,0c0.1,0,0.1,0,0.2,0c0.1,0,0.2,0,0.2-0.1c0-0.2,0-0.3,0-0.5c0-0.2,0-0.4,0-0.5
		C155.4,226.3,155.4,226.3,155.3,226.3z"/>
	<path class="st6" d="M159.9,231.2c-0.1,0.1-0.3,0.1-0.4,0.1c-0.2,0-0.3,0.1-0.5,0.1c-0.3,0-0.5-0.1-0.6-0.2
		c-0.1-0.2-0.2-0.4-0.2-0.8v-3.1h1.7c0.1,0,0.1,0,0.1-0.1v-0.7c0-0.1,0-0.1-0.1-0.1h-1.7l0-1.4c0-0.1,0-0.1-0.1-0.1h-0.7
		c-0.1,0-0.1,0-0.1,0.1l-0.1,1.4h-0.9c-0.1,0-0.1,0-0.1,0.1v0.7c0,0.1,0,0.1,0.1,0.1h0.9v3.1c0,0.4,0.1,0.8,0.2,1.1s0.3,0.5,0.6,0.6
		c0.3,0.1,0.6,0.2,1,0.2c0.2,0,0.5,0,0.7-0.1c0.2,0,0.4-0.1,0.5-0.1c0.1,0,0.1-0.1,0.1-0.1v-0.7C160.1,231.2,160,231.2,159.9,231.2z
		"/>
	<path class="st6" d="M161.9,223.9c-0.2,0-0.4,0.1-0.5,0.2c-0.1,0.1-0.2,0.3-0.2,0.5v0.1c0,0.2,0.1,0.4,0.2,0.5
		c0.1,0.1,0.3,0.2,0.5,0.2c0.2,0,0.4-0.1,0.5-0.2c0.1-0.1,0.2-0.3,0.2-0.5v-0.1c0-0.2-0.1-0.4-0.2-0.5
		C162.3,224,162.1,223.9,161.9,223.9z"/>
	<path class="st6" d="M162.3,226.4h-0.9c-0.1,0-0.1,0-0.1,0.1v5.6c0,0.1,0,0.1,0.1,0.1h0.9c0.1,0,0.1,0,0.1-0.1v-5.6
		C162.5,226.4,162.4,226.4,162.3,226.4z"/>
	<path class="st6" d="M165.2,224.1h-0.9c-0.1,0-0.1,0-0.1,0.1v7.9c0,0.1,0,0.1,0.1,0.1h0.9c0.1,0,0.1,0,0.1-0.1v-7.9
		C165.3,224.1,165.3,224.1,165.2,224.1z"/>
	<path class="st6" d="M171.1,226.8c-0.4-0.4-1-0.6-1.8-0.6c-0.8,0-1.4,0.2-1.8,0.6c-0.4,0.4-0.6,1-0.6,1.8v1.6
		c0,0.7,0.2,1.3,0.6,1.6c0.4,0.4,1,0.6,1.8,0.6c0.8,0,1.3-0.1,1.7-0.4s0.6-0.7,0.6-1.2c0-0.1-0.1-0.1-0.1-0.1h-0.9
		c-0.1,0-0.1,0-0.1,0.1c0,0.2-0.1,0.4-0.3,0.5s-0.5,0.2-0.8,0.2c-0.5,0-0.8-0.1-1-0.3c-0.2-0.2-0.3-0.6-0.3-1.1v-0.4h3.6
		c0.1,0,0.1,0,0.1-0.1v-0.9C171.7,227.8,171.5,227.2,171.1,226.8z M170.6,228.7H168v0c0-0.5,0.1-0.8,0.3-1.1c0.2-0.2,0.6-0.4,1-0.4
		c0.4,0,0.7,0.1,1,0.3C170.5,227.8,170.6,228.1,170.6,228.7L170.6,228.7z"/>
</g>
</svg>
