<?xml version="1.0" encoding="UTF-8"?>
<svg id="Calque_1" data-name="Calque 1" xmlns="http://www.w3.org/2000/svg" viewBox="0 0 595.28 245">
  <defs>
    <style>
      .cls-1 {
        letter-spacing: -.05em;
      }

      .cls-2, .cls-3 {
        fill: #6e6e6d;
      }

      .cls-4, .cls-5, .cls-6, .cls-7, .cls-8, .cls-9, .cls-10, .cls-11, .cls-12 {
        fill: none;
        stroke-miterlimit: 10;
      }

      .cls-4, .cls-5, .cls-6, .cls-8, .cls-9, .cls-10, .cls-12 {
        stroke-linecap: round;
      }

      .cls-4, .cls-5, .cls-10, .cls-12 {
        stroke: #706f6f;
        stroke-width: 3px;
      }

      .cls-13 {
        letter-spacing: 0em;
      }

      .cls-14 {
        letter-spacing: 0em;
      }

      .cls-5 {
        stroke-dasharray: 0 0 0 10 2 0;
      }

      .cls-15, .cls-3 {
        font-family: SofiaSans-Medium, 'Sofia Sans';
        font-size: 15.15px;
        font-weight: 500;
      }

      .cls-15, .cls-16, .cls-17 {
        fill: #1d1d1b;
      }

      .cls-6 {
        stroke: #2797d4;
      }

      .cls-6, .cls-8, .cls-9 {
        stroke-width: 4px;
      }

      .cls-18 {
        letter-spacing: -.08em;
      }

      .cls-7 {
        stroke: #1d1d1b;
      }

      .cls-19 {
        letter-spacing: 0em;
      }

      .cls-8 {
        stroke: #ed8f0c;
      }

      .cls-20 {
        letter-spacing: -.04em;
      }

      .cls-9 {
        stroke: #097b35;
      }

      .cls-21 {
        letter-spacing: 0em;
      }

      .cls-22 {
        letter-spacing: 0em;
      }

      .cls-23 {
        letter-spacing: .03em;
      }

      .cls-24 {
        letter-spacing: -.03em;
      }

      .cls-25 {
        fill: #2797d4;
      }

      .cls-26 {
        letter-spacing: 0em;
      }

      .cls-10 {
        stroke-dasharray: 0 0 12.42 12.42;
      }

      .cls-27 {
        letter-spacing: -.02em;
      }

      .cls-16 {
        font-family: SofiaSans-Regular, 'Sofia Sans';
        font-size: 17.54px;
      }

      .cls-11 {
        stroke: #9f9f9f;
        stroke-width: .25px;
      }

      .cls-28 {
        fill: #25592f;
      }

      .cls-29 {
        letter-spacing: 0em;
      }

      .cls-30 {
        letter-spacing: 0em;
      }

      .cls-12 {
        stroke-dasharray: 0 0 12.31 12.31;
      }

      .cls-31 {
        letter-spacing: 0em;
      }

      .cls-32 {
        fill: #ed8f0c;
      }

      .cls-33 {
        letter-spacing: 0em;
      }
    </style>
  </defs>
  <rect class="cls-11" x="184.45" y="16.67" width="24.55" height="20.19"/>
  <rect class="cls-11" x="159.9" y="16.67" width="24.55" height="20.19"/>
  <rect class="cls-11" x="135.35" y="16.67" width="24.55" height="20.19"/>
  <rect class="cls-11" x="110.81" y="16.67" width="24.55" height="20.19"/>
  <rect class="cls-11" x="86.26" y="16.67" width="24.55" height="20.19"/>
  <rect class="cls-11" x="61.71" y="16.67" width="24.55" height="20.19"/>
  <rect class="cls-11" x="49.72" y="16.67" width="11.99" height="20.19"/>
  <rect class="cls-11" x="49.72" y="36.86" width="11.99" height="20.19"/>
  <rect class="cls-11" x="49.72" y="57.05" width="11.99" height="20.19"/>
  <rect class="cls-11" x="49.72" y="77.24" width="11.99" height="20.19"/>
  <rect class="cls-11" x="49.72" y="97.43" width="11.99" height="20.19"/>
  <rect class="cls-11" x="49.72" y="117.62" width="11.99" height="20.19"/>
  <rect class="cls-11" x="49.72" y="137.81" width="11.99" height="20.19"/>
  <rect class="cls-11" x="49.72" y="158" width="11.99" height="20.19"/>
  <rect class="cls-11" x="49.72" y="178.19" width="11.99" height="20.19"/>
  <rect class="cls-11" x="49.72" y="198.38" width="11.99" height="20.19"/>
  <rect class="cls-11" x="331.74" y="16.67" width="24.55" height="20.19"/>
  <rect class="cls-11" x="307.19" y="16.67" width="24.55" height="20.19"/>
  <polyline class="cls-11" points="393.98 36.86 380.84 36.86 380.84 16.66 393.98 16.66"/>
  <rect class="cls-11" x="356.29" y="16.67" width="24.55" height="20.19"/>
  <rect class="cls-11" x="282.64" y="16.67" width="24.55" height="20.19"/>
  <rect class="cls-11" x="258.1" y="16.67" width="24.55" height="20.19"/>
  <rect class="cls-11" x="233.55" y="16.67" width="24.55" height="20.19"/>
  <rect class="cls-11" x="209" y="16.67" width="24.55" height="20.19"/>
  <rect class="cls-11" x="184.45" y="36.86" width="24.55" height="20.19"/>
  <rect class="cls-11" x="159.9" y="36.86" width="24.55" height="20.19"/>
  <rect class="cls-11" x="135.35" y="36.86" width="24.55" height="20.19"/>
  <rect class="cls-11" x="110.81" y="36.86" width="24.55" height="20.19"/>
  <rect class="cls-11" x="86.26" y="36.86" width="24.55" height="20.19"/>
  <rect class="cls-11" x="61.71" y="36.86" width="24.55" height="20.19"/>
  <rect class="cls-11" x="331.74" y="36.86" width="24.55" height="20.19"/>
  <rect class="cls-11" x="307.19" y="36.86" width="24.55" height="20.19"/>
  <polyline class="cls-11" points="393.98 57.05 380.84 57.05 380.84 36.86 393.98 36.86"/>
  <rect class="cls-11" x="356.29" y="36.86" width="24.55" height="20.19"/>
  <rect class="cls-11" x="282.64" y="36.86" width="24.55" height="20.19"/>
  <rect class="cls-11" x="258.1" y="36.86" width="24.55" height="20.19"/>
  <rect class="cls-11" x="233.55" y="36.86" width="24.55" height="20.19"/>
  <rect class="cls-11" x="209" y="36.86" width="24.55" height="20.19"/>
  <rect class="cls-11" x="184.45" y="57.05" width="24.55" height="20.19"/>
  <rect class="cls-11" x="159.9" y="57.05" width="24.55" height="20.19"/>
  <rect class="cls-11" x="135.35" y="57.05" width="24.55" height="20.19"/>
  <rect class="cls-11" x="110.81" y="57.05" width="24.55" height="20.19"/>
  <rect class="cls-11" x="86.26" y="57.05" width="24.55" height="20.19"/>
  <rect class="cls-11" x="61.71" y="57.05" width="24.55" height="20.19"/>
  <rect class="cls-11" x="331.74" y="57.05" width="24.55" height="20.19"/>
  <rect class="cls-11" x="307.19" y="57.05" width="24.55" height="20.19"/>
  <polyline class="cls-11" points="393.98 77.24 380.84 77.24 380.84 57.05 393.98 57.05"/>
  <rect class="cls-11" x="356.29" y="57.05" width="24.55" height="20.19"/>
  <rect class="cls-11" x="282.64" y="57.05" width="24.55" height="20.19"/>
  <rect class="cls-11" x="258.1" y="57.05" width="24.55" height="20.19"/>
  <rect class="cls-11" x="233.55" y="57.05" width="24.55" height="20.19"/>
  <rect class="cls-11" x="209" y="57.05" width="24.55" height="20.19"/>
  <rect class="cls-11" x="184.45" y="77.24" width="24.55" height="20.19"/>
  <rect class="cls-11" x="159.9" y="77.24" width="24.55" height="20.19"/>
  <rect class="cls-11" x="135.35" y="77.24" width="24.55" height="20.19"/>
  <rect class="cls-11" x="110.81" y="77.24" width="24.55" height="20.19"/>
  <rect class="cls-11" x="86.26" y="77.24" width="24.55" height="20.19"/>
  <rect class="cls-11" x="61.71" y="77.24" width="24.55" height="20.19"/>
  <rect class="cls-11" x="331.74" y="77.24" width="24.55" height="20.19"/>
  <rect class="cls-11" x="307.19" y="77.24" width="24.55" height="20.19"/>
  <polyline class="cls-11" points="393.98 97.43 380.84 97.43 380.84 77.24 393.98 77.24"/>
  <rect class="cls-11" x="356.29" y="77.24" width="24.55" height="20.19"/>
  <rect class="cls-11" x="282.64" y="77.24" width="24.55" height="20.19"/>
  <rect class="cls-11" x="258.1" y="77.24" width="24.55" height="20.19"/>
  <rect class="cls-11" x="233.55" y="77.24" width="24.55" height="20.19"/>
  <rect class="cls-11" x="209" y="77.24" width="24.55" height="20.19"/>
  <rect class="cls-11" x="184.45" y="97.43" width="24.55" height="20.19"/>
  <rect class="cls-11" x="159.9" y="97.43" width="24.55" height="20.19"/>
  <rect class="cls-11" x="135.35" y="97.43" width="24.55" height="20.19"/>
  <rect class="cls-11" x="110.81" y="97.43" width="24.55" height="20.19"/>
  <rect class="cls-11" x="86.26" y="97.43" width="24.55" height="20.19"/>
  <rect class="cls-11" x="61.71" y="97.43" width="24.55" height="20.19"/>
  <rect class="cls-11" x="331.74" y="97.43" width="24.55" height="20.19"/>
  <rect class="cls-11" x="307.19" y="97.43" width="24.55" height="20.19"/>
  <polyline class="cls-11" points="393.98 117.62 380.84 117.62 380.84 97.43 393.98 97.43"/>
  <rect class="cls-11" x="356.29" y="97.43" width="24.55" height="20.19"/>
  <rect class="cls-11" x="282.64" y="97.43" width="24.55" height="20.19"/>
  <rect class="cls-11" x="258.1" y="97.43" width="24.55" height="20.19"/>
  <rect class="cls-11" x="233.55" y="97.43" width="24.55" height="20.19"/>
  <rect class="cls-11" x="209" y="97.43" width="24.55" height="20.19"/>
  <rect class="cls-11" x="184.45" y="117.62" width="24.55" height="20.19"/>
  <rect class="cls-11" x="159.9" y="117.62" width="24.55" height="20.19"/>
  <rect class="cls-11" x="135.35" y="117.62" width="24.55" height="20.19"/>
  <rect class="cls-11" x="110.81" y="117.62" width="24.55" height="20.19"/>
  <rect class="cls-11" x="86.26" y="117.62" width="24.55" height="20.19"/>
  <rect class="cls-11" x="61.71" y="117.62" width="24.55" height="20.19"/>
  <rect class="cls-11" x="331.74" y="117.62" width="24.55" height="20.19"/>
  <rect class="cls-11" x="307.19" y="117.62" width="24.55" height="20.19"/>
  <polyline class="cls-11" points="393.98 137.81 380.84 137.81 380.84 117.62 393.98 117.62"/>
  <rect class="cls-11" x="356.29" y="117.62" width="24.55" height="20.19"/>
  <rect class="cls-11" x="282.64" y="117.62" width="24.55" height="20.19"/>
  <rect class="cls-11" x="258.1" y="117.62" width="24.55" height="20.19"/>
  <rect class="cls-11" x="233.55" y="117.62" width="24.55" height="20.19"/>
  <rect class="cls-11" x="209" y="117.62" width="24.55" height="20.19"/>
  <rect class="cls-11" x="184.45" y="137.81" width="24.55" height="20.19"/>
  <rect class="cls-11" x="159.9" y="137.81" width="24.55" height="20.19"/>
  <rect class="cls-11" x="135.35" y="137.81" width="24.55" height="20.19"/>
  <rect class="cls-11" x="110.81" y="137.81" width="24.55" height="20.19"/>
  <rect class="cls-11" x="86.26" y="137.81" width="24.55" height="20.19"/>
  <rect class="cls-11" x="61.71" y="137.81" width="24.55" height="20.19"/>
  <rect class="cls-11" x="331.74" y="137.81" width="24.55" height="20.19"/>
  <rect class="cls-11" x="307.19" y="137.81" width="24.55" height="20.19"/>
  <polyline class="cls-11" points="393.98 158 380.84 158 380.84 137.81 393.98 137.81"/>
  <rect class="cls-11" x="356.29" y="137.81" width="24.55" height="20.19"/>
  <rect class="cls-11" x="282.64" y="137.81" width="24.55" height="20.19"/>
  <rect class="cls-11" x="258.1" y="137.81" width="24.55" height="20.19"/>
  <rect class="cls-11" x="233.55" y="137.81" width="24.55" height="20.19"/>
  <rect class="cls-11" x="209" y="137.81" width="24.55" height="20.19"/>
  <rect class="cls-11" x="184.45" y="158" width="24.55" height="20.19"/>
  <rect class="cls-11" x="159.9" y="158" width="24.55" height="20.19"/>
  <rect class="cls-11" x="135.35" y="158" width="24.55" height="20.19"/>
  <rect class="cls-11" x="110.81" y="158" width="24.55" height="20.19"/>
  <rect class="cls-11" x="86.26" y="158" width="24.55" height="20.19"/>
  <rect class="cls-11" x="61.71" y="158" width="24.55" height="20.19"/>
  <rect class="cls-11" x="331.74" y="158" width="24.55" height="20.19"/>
  <rect class="cls-11" x="307.19" y="158" width="24.55" height="20.19"/>
  <polyline class="cls-11" points="393.98 178.19 380.84 178.19 380.84 158 393.98 158"/>
  <rect class="cls-11" x="356.29" y="158" width="24.55" height="20.19"/>
  <rect class="cls-11" x="282.64" y="158" width="24.55" height="20.19"/>
  <rect class="cls-11" x="258.1" y="158" width="24.55" height="20.19"/>
  <rect class="cls-11" x="233.55" y="158" width="24.55" height="20.19"/>
  <rect class="cls-11" x="209" y="158" width="24.55" height="20.19"/>
  <rect class="cls-11" x="184.45" y="178.19" width="24.55" height="20.19"/>
  <rect class="cls-11" x="159.9" y="178.19" width="24.55" height="20.19"/>
  <rect class="cls-11" x="135.35" y="178.19" width="24.55" height="20.19"/>
  <rect class="cls-11" x="110.81" y="178.19" width="24.55" height="20.19"/>
  <rect class="cls-11" x="86.26" y="178.19" width="24.55" height="20.19"/>
  <rect class="cls-11" x="61.71" y="178.19" width="24.55" height="20.19"/>
  <rect class="cls-11" x="331.74" y="178.19" width="24.55" height="20.19"/>
  <rect class="cls-11" x="307.19" y="178.19" width="24.55" height="20.19"/>
  <polyline class="cls-11" points="393.98 198.38 380.84 198.38 380.84 178.19 393.98 178.19"/>
  <rect class="cls-11" x="356.29" y="178.19" width="24.55" height="20.19"/>
  <rect class="cls-11" x="282.64" y="178.19" width="24.55" height="20.19"/>
  <rect class="cls-11" x="258.1" y="178.19" width="24.55" height="20.19"/>
  <rect class="cls-11" x="233.55" y="178.19" width="24.55" height="20.19"/>
  <rect class="cls-11" x="209" y="178.19" width="24.55" height="20.19"/>
  <rect class="cls-11" x="184.45" y="198.38" width="24.55" height="20.19"/>
  <rect class="cls-11" x="159.9" y="198.38" width="24.55" height="20.19"/>
  <rect class="cls-11" x="135.35" y="198.38" width="24.55" height="20.19"/>
  <rect class="cls-11" x="110.81" y="198.38" width="24.55" height="20.19"/>
  <rect class="cls-11" x="86.26" y="198.38" width="24.55" height="20.19"/>
  <rect class="cls-11" x="61.71" y="198.38" width="24.55" height="20.19"/>
  <rect class="cls-11" x="331.74" y="198.38" width="24.55" height="20.19"/>
  <rect class="cls-11" x="307.19" y="198.38" width="24.55" height="20.19"/>
  <polyline class="cls-11" points="393.98 218.57 380.84 218.57 380.84 198.38 393.98 198.38"/>
  <rect class="cls-11" x="356.29" y="198.38" width="24.55" height="20.19"/>
  <rect class="cls-11" x="282.64" y="198.38" width="24.55" height="20.19"/>
  <rect class="cls-11" x="258.1" y="198.38" width="24.55" height="20.19"/>
  <rect class="cls-11" x="233.55" y="198.38" width="24.55" height="20.19"/>
  <rect class="cls-11" x="209" y="198.38" width="24.55" height="20.19"/>
  <text class="cls-15" transform="translate(27.73 219.29) scale(.58)"><tspan class="cls-20" x="0" y="0">0</tspan><tspan class="cls-24" x="8.3" y="0">,</tspan><tspan class="cls-26" x="11.56" y="0">00</tspan></text>
  <g>
    <path class="cls-17" d="m479.68,28.12c-.85,0-1.49-.21-1.91-.63-.42-.42-.63-1.01-.63-1.77v-2.14c0-.77.21-1.36.63-1.78.42-.42,1.05-.62,1.91-.62s1.49.21,1.91.62.63,1.01.63,1.78v2.14c0,.76-.21,1.35-.63,1.77s-1.05.63-1.91.63Zm0-.77c.54,0,.96-.14,1.24-.42.28-.28.42-.69.42-1.23v-2.12c0-.55-.14-.96-.42-1.23-.28-.28-.7-.41-1.24-.41s-.95.14-1.24.41c-.29.28-.43.69-.43,1.23v2.12c0,.54.14.95.43,1.23.29.28.7.42,1.24.42Z"/>
    <path class="cls-17" d="m485.08,28.12c-.44,0-.77-.15-1-.44-.23-.29-.35-.72-.35-1.27v-3.3c0-.07.03-.1.1-.1h.67c.07,0,.1.03.1.1v3.26c0,.33.06.58.18.74s.3.24.56.24.51-.08.76-.23.57-.43.96-.82l-.02.81c-.22.23-.44.41-.65.56-.22.15-.43.26-.65.34-.21.07-.43.11-.65.11Zm2.05-.12c-.08,0-.12-.03-.12-.1-.02-.13-.04-.26-.05-.4-.01-.14-.02-.28-.03-.42l-.05-.43v-3.54c0-.07.03-.1.1-.1h.67c.07,0,.1.03.1.1v3.64c0,.18,0,.38.02.57,0,.2.03.39.06.57.01.07-.02.1-.11.1h-.57Z"/>
    <path class="cls-17" d="m491.18,28.12c-.65,0-1.16-.15-1.51-.46-.35-.31-.53-.76-.53-1.36v-1.43c0-.65.17-1.14.52-1.48.35-.34.85-.51,1.51-.51s1.17.17,1.51.5c.34.33.52.81.52,1.44v.8c0,.07-.03.1-.1.1h-3.09v.33c0,.46.09.79.29,1,.19.21.5.31.93.31.32,0,.57-.05.74-.16.17-.11.26-.26.26-.47,0-.08.04-.11.11-.11h.67c.05,0,.09.03.1.09.03.44-.13.78-.48,1.03-.35.25-.83.38-1.45.38Zm-1.17-3.15h2.32v-.06c0-.43-.1-.75-.29-.95-.19-.2-.48-.31-.86-.31s-.69.11-.88.32c-.19.21-.29.53-.29.95v.05Z"/>
    <path class="cls-17" d="m496.2,28.12c-.61,0-1.07-.13-1.38-.4-.31-.27-.46-.67-.46-1.21,0-.06.03-.09.1-.09h.67c.06,0,.09.03.09.08,0,.31.08.53.23.66.15.14.4.2.75.2s.59-.06.76-.17c.17-.11.26-.27.26-.49,0-.16-.05-.29-.14-.39-.1-.11-.25-.2-.45-.29l-1.17-.48c-.38-.16-.64-.33-.8-.53-.16-.2-.24-.45-.24-.77,0-.45.14-.79.43-1.02s.71-.34,1.28-.34,1.03.12,1.35.36c.32.24.48.58.48,1.03,0,.06-.03.09-.1.09h-.67c-.07,0-.1-.05-.1-.16,0-.18-.08-.32-.25-.41-.16-.1-.39-.15-.67-.15s-.51.05-.65.15c-.14.1-.21.25-.21.46,0,.15.04.26.12.34.08.08.24.16.48.27l1.17.49c.36.15.62.33.79.53.16.2.25.47.25.79,0,.47-.16.83-.49,1.08-.33.25-.79.38-1.4.38Z"/>
    <path class="cls-17" d="m501.08,28.12c-.35,0-.62-.06-.83-.18s-.36-.3-.45-.54-.14-.54-.14-.89v-2.76h-.79c-.07,0-.1-.03-.1-.1v-.54c0-.07.03-.1.1-.1h.81l.11-1.23c0-.07.04-.1.11-.1h.51c.07,0,.1.03.1.1v1.23h1.53c.07,0,.1.03.1.1v.54c0,.07-.03.1-.1.1h-1.52v2.74c0,.32.06.55.17.67.11.13.3.19.58.19.14,0,.27-.02.41-.05.14-.03.26-.07.36-.12.08-.03.12-.01.12.07v.56c0,.05-.03.09-.08.11-.12.05-.27.09-.43.12-.16.03-.35.05-.57.05Z"/>
    <path class="cls-17" d="m503.32,25.62c-.07,0-.1-.03-.1-.1v-.46c0-.07.03-.1.1-.1h3.38c.07,0,.1.03.1.1v.46c0,.07-.03.1-.1.1h-3.38Z"/>
    <path class="cls-17" d="m508.38,28c-.07,0-.1-.03-.1-.1v-3.64c0-.18,0-.38-.03-.6-.02-.22-.03-.39-.05-.52-.01-.09.02-.13.1-.13h.62c.06,0,.1.03.11.1.01.05.03.14.04.26.01.12.03.24.04.36.01.13.02.23.02.32v3.85c0,.07-.03.1-.1.1h-.67Zm3.28,0c-.07,0-.1-.03-.1-.1v-3.26c0-.34-.07-.59-.21-.75-.14-.16-.35-.24-.63-.24s-.53.08-.79.24-.58.43-.97.81v-.79c.24-.25.46-.44.67-.59s.42-.26.62-.33c.21-.07.43-.1.66-.1.49,0,.87.14,1.12.43.26.29.39.71.39,1.28v3.3c0,.07-.03.1-.1.1h-.67Z"/>
    <path class="cls-17" d="m515.94,28.12c-.69,0-1.21-.17-1.57-.5-.36-.33-.54-.84-.54-1.52v-1.19c0-.68.18-1.19.53-1.52.35-.33.88-.5,1.58-.5s1.21.17,1.57.5c.36.33.54.84.54,1.52v1.19c0,.68-.18,1.19-.53,1.52s-.88.5-1.58.5Zm0-.77c.44,0,.75-.11.95-.33s.29-.56.29-1.01v-1.02c0-.45-.1-.79-.29-1.01s-.51-.33-.95-.33-.75.11-.95.33-.29.56-.29,1.01v1.02c0,.45.1.79.29,1.01s.51.33.95.33Z"/>
    <path class="cls-17" d="m519.55,28c-.07,0-.1-.03-.1-.1v-3.67c0-.19,0-.38-.01-.56-.01-.18-.03-.36-.06-.55-.01-.08.02-.11.1-.11h.62c.07,0,.11.03.11.09.03.13.05.28.06.44s.02.31.02.42l.02.54v3.39c0,.07-.03.1-.1.1h-.67Zm.65-3.18l-.02-.84c.14-.21.31-.4.5-.56s.38-.29.57-.39c.19-.1.37-.14.54-.14.12,0,.21.01.28.03.05.01.08.05.09.1.01.14.02.29.02.44,0,.15-.02.29-.04.43-.01.08-.06.1-.13.08-.05-.01-.11-.02-.17-.03-.06,0-.13-.01-.19-.01-.17,0-.34.04-.51.11-.17.08-.33.18-.49.31-.16.13-.3.29-.43.47Z"/>
    <path class="cls-17" d="m524.36,28.12c-.48,0-.84-.16-1.1-.48s-.38-.79-.38-1.42v-1.28c0-.65.16-1.15.49-1.51s.78-.54,1.36-.54c.27,0,.54.04.84.11.29.07.51.16.66.27l.05.75c-.22-.12-.46-.2-.72-.27-.26-.06-.49-.09-.69-.09-.38,0-.67.12-.85.35-.19.23-.28.58-.28,1.04v1.23c0,.36.07.63.21.81s.35.27.63.27c.17,0,.34-.03.5-.1.16-.06.34-.17.54-.33.2-.15.43-.36.7-.63l-.02.8c-.23.23-.45.42-.66.58s-.42.27-.62.34c-.21.07-.43.11-.66.11Zm2.01-.12c-.08,0-.12-.04-.12-.11-.01-.1-.03-.23-.05-.39s-.03-.29-.02-.39l-.05-.46v-5.53c0-.07.03-.1.1-.1h.67c.07,0,.1.03.1.1v5.73c0,.1,0,.21,0,.34,0,.13.02.26.03.38,0,.12.02.22.04.29.02.1-.01.14-.1.14h-.59Z"/>
    <path class="cls-17" d="m479.35,38.65c-.76,0-1.34-.16-1.76-.48-.42-.32-.62-.8-.62-1.45,0-.44.1-.82.31-1.12s.49-.52.84-.65c-.29-.14-.51-.32-.65-.55-.14-.23-.21-.55-.21-.96,0-.54.18-.96.54-1.28.36-.31.88-.47,1.55-.47s1.19.16,1.55.47c.36.31.54.74.54,1.28,0,.41-.07.73-.21.96-.14.23-.36.41-.65.55.35.13.64.35.84.65s.31.68.31,1.12c0,.65-.21,1.13-.62,1.45-.42.32-1,.48-1.76.48Zm0-.74c.5,0,.88-.1,1.14-.3.25-.2.38-.48.38-.84v-.17c0-.42-.13-.74-.4-.97-.27-.23-.64-.34-1.11-.34s-.84.11-1.11.34-.4.55-.4.97v.17c0,.36.13.64.38.84.25.2.63.3,1.13.3Zm0-3.29c.4,0,.7-.09.91-.28.21-.18.32-.44.32-.76v-.15c0-.3-.1-.54-.31-.72-.21-.18-.51-.27-.92-.27s-.7.09-.91.27-.32.42-.32.72v.15c0,.32.11.57.32.76s.51.28.91.28Z"/>
    <path class="cls-17" d="m482.7,39.84c-.08,0-.11-.04-.09-.13l.51-2.16c.01-.06.05-.09.1-.09h.78c.09,0,.12.05.08.14l-.74,2.17s-.05.07-.09.07h-.55Z"/>
    <path class="cls-17" d="m487.32,38.53c-.07,0-.1-.03-.1-.1v-.58c0-.07.03-.1.1-.1h1.59v-4.92l-1.53.48c-.07.02-.1,0-.1-.07v-.6c0-.05.02-.09.06-.1l2.14-.72s.04-.01.07-.02c.02,0,.05,0,.08,0h.06c.07,0,.1.03.1.1v5.85h1.41c.07,0,.1.03.1.1v.58c0,.07-.03.1-.1.1h-3.88Z"/>
    <path class="cls-17" d="m494.42,38.65c-.72,0-1.28-.19-1.68-.56-.4-.37-.6-.92-.6-1.64v-2.58c0-.68.2-1.21.61-1.6s.99-.57,1.74-.57c.41,0,.76.06,1.06.17.3.11.53.27.69.48.16.21.25.46.25.75,0,.07-.03.1-.1.1h-.65c-.07,0-.1-.03-.1-.1,0-.2-.1-.35-.3-.47-.2-.11-.48-.17-.82-.17-.5,0-.87.11-1.12.34s-.37.57-.37,1.03v2.6c0,.45.12.8.37,1.06s.59.38,1.03.38.79-.13,1.03-.39c.25-.26.37-.62.37-1.07v-.29c0-.37-.1-.65-.29-.83-.19-.19-.47-.28-.85-.28-.29,0-.6.06-.92.19-.32.13-.62.31-.9.55v-.74c.31-.25.64-.44.98-.57.34-.13.69-.19,1.05-.19.59,0,1.04.17,1.34.5.3.33.45.82.45,1.47,0,.76-.2,1.36-.59,1.78-.39.43-.95.64-1.67.64Z"/>
    <path class="cls-17" d="m497.47,39.84c-.08,0-.11-.04-.09-.13l.51-2.16c.01-.06.05-.09.1-.09h.78c.09,0,.12.05.08.14l-.74,2.17s-.05.07-.09.07h-.55Z"/>
    <path class="cls-17" d="m502.09,38.53c-.07,0-.1-.03-.1-.1v-.58c0-.07.03-.1.1-.1h1.59v-4.92l-1.53.48c-.07.02-.1,0-.1-.07v-.6c0-.05.02-.09.06-.1l2.14-.72s.04-.01.07-.02c.02,0,.05,0,.08,0h.06c.07,0,.1.03.1.1v5.85h1.41c.07,0,.1.03.1.1v.58c0,.07-.03.1-.1.1h-3.88Z"/>
    <path class="cls-17" d="m507.7,38.53s-.06-.01-.07-.04-.01-.05,0-.09l2.64-5.79h-2.68v.84c0,.07-.03.1-.1.1h-.65c-.07,0-.1-.03-.1-.1v-1.52c0-.07.03-.1.1-.1h4.49c.07,0,.1.03.1.1v.05s0,.1-.03.15l-2.85,6.3c-.03.06-.08.09-.14.09h-.7Z"/>
    <path class="cls-17" d="m510.75,39.84c-.08,0-.11-.04-.09-.13l.51-2.16c.01-.06.05-.09.1-.09h.78c.09,0,.12.05.08.14l-.74,2.17s-.05.07-.09.07h-.55Z"/>
    <path class="cls-17" d="m515.38,38.53c-.07,0-.1-.03-.1-.1v-.58c0-.07.03-.1.1-.1h1.59v-4.92l-1.53.48c-.07.02-.1,0-.1-.07v-.6c0-.05.02-.09.06-.1l2.14-.72s.04-.01.07-.02c.02,0,.05,0,.08,0h.06c.07,0,.1.03.1.1v5.85h1.41c.07,0,.1.03.1.1v.58c0,.07-.03.1-.1.1h-3.88Z"/>
    <path class="cls-17" d="m522.46,38.65c-.76,0-1.34-.16-1.76-.48-.42-.32-.62-.8-.62-1.45,0-.44.1-.82.31-1.12s.49-.52.84-.65c-.29-.14-.51-.32-.65-.55-.14-.23-.21-.55-.21-.96,0-.54.18-.96.54-1.28.36-.31.88-.47,1.55-.47s1.19.16,1.55.47c.36.31.54.74.54,1.28,0,.41-.07.73-.21.96-.14.23-.36.41-.65.55.35.13.64.35.84.65s.31.68.31,1.12c0,.65-.21,1.13-.62,1.45-.42.32-1,.48-1.76.48Zm0-.74c.5,0,.88-.1,1.14-.3.25-.2.38-.48.38-.84v-.17c0-.42-.13-.74-.4-.97-.27-.23-.64-.34-1.11-.34s-.84.11-1.11.34-.4.55-.4.97v.17c0,.36.13.64.38.84.25.2.63.3,1.13.3Zm0-3.29c.4,0,.7-.09.91-.28.21-.18.32-.44.32-.76v-.15c0-.3-.1-.54-.31-.72-.21-.18-.51-.27-.92-.27s-.7.09-.91.27-.32.42-.32.72v.15c0,.32.11.57.32.76s.51.28.91.28Z"/>
  </g>
  <g>
    <path class="cls-17" d="m477.37,57.17c-.07,0-.1-.03-.1-.1v-6.49c0-.07.03-.1.1-.1h3.64c.07,0,.1.03.1.1v.58c0,.07-.03.1-.1.1h-2.87v2.13h2.63c.07,0,.1.03.1.1v.55c0,.07-.03.1-.1.1h-2.63v2.24h2.87c.07,0,.1.03.1.1v.58c0,.07-.03.1-.1.1h-3.64Z"/>
    <path class="cls-17" d="m484.24,57.29c-.61,0-1.07-.13-1.38-.4-.31-.27-.46-.67-.46-1.21,0-.06.03-.09.1-.09h.67c.06,0,.09.03.09.08,0,.31.08.53.23.66.15.14.4.2.75.2s.59-.06.76-.17c.17-.11.26-.27.26-.49,0-.16-.05-.29-.14-.39-.1-.11-.25-.2-.45-.29l-1.17-.48c-.38-.16-.64-.33-.8-.53-.16-.2-.24-.45-.24-.77,0-.45.14-.79.43-1.02s.71-.34,1.28-.34,1.03.12,1.35.36c.32.24.48.58.48,1.03,0,.06-.03.09-.1.09h-.67c-.07,0-.1-.05-.1-.16,0-.18-.08-.32-.25-.41-.16-.1-.39-.15-.67-.15s-.51.05-.65.15c-.14.1-.21.25-.21.46,0,.15.04.26.12.34.08.08.24.16.48.27l1.17.49c.36.15.62.33.79.53.16.2.25.47.25.79,0,.47-.16.83-.49,1.08-.33.25-.79.38-1.4.38Z"/>
    <path class="cls-17" d="m489.11,57.29c-.35,0-.62-.06-.83-.18s-.36-.3-.45-.54-.14-.54-.14-.89v-2.76h-.79c-.07,0-.1-.03-.1-.1v-.54c0-.07.03-.1.1-.1h.81l.11-1.23c0-.07.04-.1.11-.1h.51c.07,0,.1.03.1.1v1.23h1.53c.07,0,.1.03.1.1v.54c0,.07-.03.1-.1.1h-1.52v2.74c0,.32.06.55.17.67.11.13.3.19.58.19.14,0,.27-.02.41-.05.14-.03.26-.07.36-.12.08-.03.12-.01.12.07v.56c0,.05-.03.09-.08.11-.12.05-.27.09-.43.12-.16.03-.35.05-.57.05Z"/>
    <path class="cls-17" d="m491.35,54.79c-.07,0-.1-.03-.1-.1v-.46c0-.07.03-.1.1-.1h3.38c.07,0,.1.03.1.1v.46c0,.07-.03.1-.1.1h-3.38Z"/>
    <path class="cls-17" d="m498.29,57.29c-.82,0-1.42-.18-1.8-.53s-.55-.81-.51-1.38c0-.12.05-.18.12-.18h.64c.08,0,.12.05.12.16,0,.42.12.71.37.9.25.18.62.27,1.12.27s.85-.09,1.1-.26c.25-.17.37-.44.37-.79,0-.18-.03-.33-.09-.46s-.16-.24-.29-.33c-.14-.1-.32-.19-.55-.29l-1.5-.62c-.31-.13-.57-.27-.76-.43s-.33-.34-.42-.55c-.09-.21-.13-.45-.13-.71,0-.57.2-1,.57-1.29.37-.29.91-.44,1.62-.44.48,0,.9.07,1.26.21s.62.35.81.62c.18.27.26.61.22,1-.01.13-.05.19-.11.19h-.65s-.06-.01-.08-.04c-.02-.03-.02-.08-.02-.15.03-.35-.09-.62-.35-.8s-.63-.28-1.11-.28c-.42,0-.74.08-.96.23s-.33.38-.33.7c0,.16.03.31.09.43.06.12.16.24.3.34s.33.2.58.31l1.48.62c.31.13.57.27.76.43s.33.34.41.55c.08.21.13.46.13.75,0,.57-.19,1.02-.58,1.34-.39.32-1,.49-1.83.49Z"/>
    <path class="cls-17" d="m503.37,57.29c-.44,0-.77-.15-1-.44-.23-.29-.35-.72-.35-1.27v-3.3c0-.07.03-.1.1-.1h.67c.07,0,.1.03.1.1v3.26c0,.33.06.58.18.74s.3.24.56.24.51-.08.76-.23.57-.43.96-.82l-.02.81c-.22.23-.44.41-.65.56-.22.15-.43.26-.65.34-.21.07-.43.11-.65.11Zm2.05-.12c-.08,0-.12-.03-.12-.1-.02-.13-.04-.26-.05-.4-.01-.14-.02-.28-.03-.42l-.05-.43v-3.54c0-.07.03-.1.1-.1h.67c.07,0,.1.03.1.1v3.64c0,.18,0,.38.02.57,0,.2.03.39.06.57.01.07-.02.1-.11.1h-.57Z"/>
    <path class="cls-17" d="m508.93,57.29c-.48,0-.84-.16-1.1-.48s-.38-.79-.38-1.42v-1.28c0-.65.16-1.15.49-1.51s.78-.54,1.36-.54c.27,0,.54.04.84.11.29.07.51.16.66.27l.05.75c-.22-.12-.46-.2-.72-.27-.26-.06-.49-.09-.69-.09-.38,0-.67.12-.85.35-.19.23-.28.58-.28,1.04v1.23c0,.36.07.63.21.81s.35.27.63.27c.17,0,.34-.03.5-.1.16-.06.34-.17.54-.33.2-.15.43-.36.7-.63l-.02.8c-.23.23-.45.42-.66.58s-.42.27-.62.34c-.21.07-.43.11-.66.11Zm2.01-.12c-.08,0-.12-.04-.12-.11-.01-.1-.03-.23-.05-.39s-.03-.29-.02-.39l-.05-.46v-5.53c0-.07.03-.1.1-.1h.67c.07,0,.1.03.1.1v5.73c0,.1,0,.21,0,.34,0,.13.02.26.03.38,0,.12.02.22.04.29.02.1-.01.14-.1.14h-.59Z"/>
    <path class="cls-17" d="m476.91,67.69c-.07,0-.1-.03-.1-.1v-.58c0-.07.03-.1.1-.1h1.59v-4.92l-1.53.48c-.07.02-.1,0-.1-.07v-.6c0-.05.02-.09.06-.1l2.14-.72s.04-.01.07-.02c.02,0,.05,0,.08,0h.06c.07,0,.1.03.1.1v5.85h1.41c.07,0,.1.03.1.1v.58c0,.07-.03.1-.1.1h-3.88Z"/>
    <path class="cls-17" d="m481.56,67.69c-.07,0-.1-.03-.1-.1v-.58c0-.07.03-.1.1-.1h1.59v-4.92l-1.53.48c-.07.02-.1,0-.1-.07v-.6c0-.05.02-.09.06-.1l2.14-.72s.04-.01.07-.02c.02,0,.05,0,.08,0h.06c.07,0,.1.03.1.1v5.85h1.41c.07,0,.1.03.1.1v.58c0,.07-.03.1-.1.1h-3.88Z"/>
    <path class="cls-17" d="m486.4,69c-.08,0-.11-.04-.09-.13l.51-2.16c.01-.06.05-.09.1-.09h.78c.09,0,.12.05.08.14l-.74,2.17s-.05.07-.09.07h-.55Z"/>
    <path class="cls-17" d="m491.03,67.69c-.07,0-.1-.03-.1-.1v-.58c0-.07.03-.1.1-.1h1.59v-4.92l-1.53.48c-.07.02-.1,0-.1-.07v-.6c0-.05.02-.09.06-.1l2.14-.72s.04-.01.07-.02c.02,0,.05,0,.08,0h.06c.07,0,.1.03.1.1v5.85h1.41c.07,0,.1.03.1.1v.58c0,.07-.03.1-.1.1h-3.88Z"/>
    <path class="cls-17" d="m496.08,67.69c-.07,0-.1-.03-.1-.1v-.71c0-.33.06-.62.18-.87.12-.26.28-.48.48-.68.2-.2.42-.38.65-.55.24-.17.47-.33.71-.48.24-.15.45-.31.65-.46.2-.15.36-.32.48-.5.12-.18.18-.38.18-.61v-.21c0-.29-.1-.51-.31-.66-.21-.15-.51-.22-.92-.22s-.7.09-.9.27-.29.43-.29.75c0,.07-.03.1-.09.1h-.66c-.07,0-.1-.03-.1-.1,0-.38.08-.71.24-.97.16-.27.39-.47.71-.6.32-.14.71-.2,1.19-.2.67,0,1.18.14,1.51.43.33.29.5.71.5,1.26,0,.36-.06.67-.18.93-.12.26-.28.48-.47.67s-.41.37-.64.52c-.24.15-.47.3-.7.45-.23.14-.44.3-.64.46s-.35.35-.47.56-.18.46-.18.76h3.15c.07,0,.1.03.1.1v.58c0,.07-.03.1-.1.1h-3.95Z"/>
    <path class="cls-17" d="m501.19,69c-.08,0-.11-.04-.09-.13l.51-2.16c.01-.06.05-.09.1-.09h.78c.09,0,.12.05.08.14l-.74,2.17s-.05.07-.09.07h-.55Z"/>
    <path class="cls-17" d="m505.82,67.69c-.07,0-.1-.03-.1-.1v-.58c0-.07.03-.1.1-.1h1.59v-4.92l-1.53.48c-.07.02-.1,0-.1-.07v-.6c0-.05.02-.09.06-.1l2.14-.72s.04-.01.07-.02c.02,0,.05,0,.08,0h.06c.07,0,.1.03.1.1v5.85h1.41c.07,0,.1.03.1.1v.58c0,.07-.03.1-.1.1h-3.88Z"/>
    <path class="cls-17" d="m512.64,67.82c-.46,0-.84-.07-1.15-.22s-.54-.35-.7-.62c-.15-.27-.23-.58-.23-.94,0-.07.03-.1.1-.1h.65c.07,0,.1.03.1.1,0,.33.1.58.3.75s.5.26.89.26c.46,0,.82-.1,1.07-.29s.38-.47.38-.81v-.27c0-.7-.47-1.04-1.4-1.04h-.89c-.07,0-.1-.03-.1-.1v-.55c0-.07.03-.1.1-.1h.9c.4,0,.71-.09.92-.28s.31-.45.31-.81v-.27c0-.3-.1-.52-.31-.67-.21-.15-.52-.22-.94-.22s-.72.08-.92.24c-.2.16-.3.42-.3.77,0,.07-.03.1-.1.1h-.65c-.07,0-.1-.03-.1-.1,0-.59.18-1.04.54-1.33.36-.3.9-.44,1.62-.44s1.21.14,1.54.41c.33.28.5.71.5,1.29,0,.44-.09.79-.27,1.06s-.42.45-.72.55v.02c.4.13.69.33.88.6s.28.62.28,1.05c0,.63-.2,1.12-.59,1.46-.4.34-.96.51-1.71.51Z"/>
    <path class="cls-17" d="m515.76,69c-.08,0-.11-.04-.09-.13l.51-2.16c.01-.06.05-.09.1-.09h.78c.09,0,.12.05.08.14l-.74,2.17s-.05.07-.09.07h-.55Z"/>
    <path class="cls-17" d="m520.38,67.69c-.07,0-.1-.03-.1-.1v-.58c0-.07.03-.1.1-.1h1.59v-4.92l-1.53.48c-.07.02-.1,0-.1-.07v-.6c0-.05.02-.09.06-.1l2.14-.72s.04-.01.07-.02c.02,0,.05,0,.08,0h.06c.07,0,.1.03.1.1v5.85h1.41c.07,0,.1.03.1.1v.58c0,.07-.03.1-.1.1h-3.88Z"/>
    <path class="cls-17" d="m528.19,67.69c-.07,0-.1-.03-.1-.1v-1.22h-3.38c-.07,0-.1-.03-.1-.1v-.06c0-.06,0-.11.03-.14l2.75-4.99c.03-.05.08-.08.13-.08h.67c.09,0,.11.04.07.11l-2.47,4.48h2.3v-2.24c0-.07.03-.1.1-.1h.62c.07,0,.1.03.1.1v2.24h.78c.07,0,.1.03.1.1v.58c0,.07-.03.1-.1.1h-.78v1.22c0,.07-.03.1-.1.1h-.63Z"/>
    <path class="cls-17" d="m530.46,69c-.08,0-.11-.04-.09-.13l.51-2.16c.01-.06.05-.09.1-.09h.78c.09,0,.12.05.08.14l-.74,2.17s-.05.07-.09.07h-.55Z"/>
    <path class="cls-17" d="m535.09,67.69c-.07,0-.1-.03-.1-.1v-.58c0-.07.03-.1.1-.1h1.59v-4.92l-1.53.48c-.07.02-.1,0-.1-.07v-.6c0-.05.02-.09.06-.1l2.14-.72s.04-.01.07-.02c.02,0,.05,0,.08,0h.06c.07,0,.1.03.1.1v5.85h1.41c.07,0,.1.03.1.1v.58c0,.07-.03.1-.1.1h-3.88Z"/>
    <path class="cls-17" d="m541.71,67.82c-.42,0-.78-.07-1.08-.2-.3-.14-.52-.34-.68-.6-.15-.26-.23-.59-.23-.98,0-.07.03-.1.1-.1h.64c.07,0,.1.03.1.1,0,.33.1.59.31.76.21.17.5.26.9.26.49,0,.84-.1,1.06-.31.22-.2.33-.52.33-.95v-.31c0-.3-.05-.55-.15-.74s-.25-.34-.46-.43c-.21-.09-.48-.14-.8-.14-.21,0-.47.03-.77.1-.3.06-.59.16-.87.29-.05.03-.1.03-.14,0-.04-.03-.05-.06-.05-.11l.31-3.35c0-.07.04-.1.1-.1h3.21c.07,0,.1.03.1.1v.58c0,.07-.03.1-.1.1h-2.55l-.13,1.8c.22-.05.42-.09.61-.11s.36-.03.51-.03c.64,0,1.14.18,1.51.54.36.36.55.9.55,1.61s-.2,1.27-.6,1.66c-.4.38-.98.57-1.73.57Z"/>
    <path class="cls-17" d="m544.97,69c-.08,0-.11-.04-.09-.13l.51-2.16c.01-.06.05-.09.1-.09h.78c.09,0,.12.05.08.14l-.74,2.17s-.05.07-.09.07h-.55Z"/>
    <path class="cls-17" d="m549.59,67.69c-.07,0-.1-.03-.1-.1v-.58c0-.07.03-.1.1-.1h1.59v-4.92l-1.53.48c-.07.02-.1,0-.1-.07v-.6c0-.05.02-.09.06-.1l2.14-.72s.04-.01.07-.02c.02,0,.05,0,.08,0h.06c.07,0,.1.03.1.1v5.85h1.41c.07,0,.1.03.1.1v.58c0,.07-.03.1-.1.1h-3.88Z"/>
    <path class="cls-17" d="m556.6,67.82c-.66,0-1.17-.14-1.53-.42-.36-.28-.54-.68-.54-1.21,0-.07.03-.1.1-.1h.65c.07,0,.1.03.1.1,0,.2.1.4.31.58.21.18.51.28.92.28.5,0,.88-.12,1.12-.37.24-.25.36-.61.36-1.08v-2.52c0-.45-.13-.8-.39-1.06-.26-.26-.61-.38-1.06-.38s-.78.12-1.02.37c-.24.25-.35.61-.35,1.07v.39c0,.33.11.6.32.79.21.19.5.29.88.29.3,0,.6-.06.9-.18.3-.12.59-.31.87-.56v.74c-.32.27-.63.47-.93.59-.3.12-.62.18-.97.18-.63,0-1.12-.18-1.45-.53-.33-.35-.5-.87-.5-1.54,0-.76.19-1.35.58-1.75s.94-.6,1.67-.6,1.3.2,1.7.6c.41.4.61.96.61,1.67v2.4c0,.74-.2,1.31-.59,1.69s-.99.58-1.77.58Z"/>
    <path class="cls-17" d="m559.75,69c-.08,0-.11-.04-.09-.13l.51-2.16c.01-.06.05-.09.1-.09h.78c.09,0,.12.05.08.14l-.74,2.17s-.05.07-.09.07h-.55Z"/>
    <path class="cls-17" d="m564.68,67.69c-.07,0-.1-.03-.1-.1v-.71c0-.33.06-.62.18-.87.12-.26.28-.48.48-.68.2-.2.42-.38.65-.55.24-.17.47-.33.71-.48.24-.15.45-.31.65-.46.2-.15.36-.32.48-.5.12-.18.18-.38.18-.61v-.21c0-.29-.1-.51-.31-.66-.21-.15-.51-.22-.92-.22s-.7.09-.9.27-.29.43-.29.75c0,.07-.03.1-.09.1h-.66c-.07,0-.1-.03-.1-.1,0-.38.08-.71.24-.97.16-.27.39-.47.71-.6.32-.14.71-.2,1.19-.2.67,0,1.18.14,1.51.43.33.29.5.71.5,1.26,0,.36-.06.67-.18.93-.12.26-.28.48-.47.67s-.41.37-.64.52c-.24.15-.47.3-.7.45-.23.14-.44.3-.64.46s-.35.35-.47.56-.18.46-.18.76h3.15c.07,0,.1.03.1.1v.58c0,.07-.03.1-.1.1h-3.95Z"/>
    <path class="cls-17" d="m572.35,67.82c-.72,0-1.28-.2-1.68-.61-.4-.41-.6-.98-.6-1.71v-2.3c0-.73.2-1.3.6-1.71.4-.41.96-.61,1.68-.61s1.28.2,1.68.61.6.98.6,1.71v2.3c0,.73-.2,1.3-.6,1.71-.4.41-.96.61-1.68.61Zm0-.77c.44,0,.79-.13,1.04-.39.25-.26.37-.62.37-1.08v-2.46c0-.46-.12-.82-.37-1.08s-.59-.39-1.04-.39-.79.13-1.04.39-.37.62-.37,1.08v2.46c0,.46.12.82.37,1.08.25.26.59.39,1.04.39Z"/>
  </g>
  <g>
    <path class="cls-17" d="m480.19,87.57c-.83,0-1.46-.21-1.89-.62s-.64-1.01-.64-1.78v-2.14c0-.77.22-1.36.65-1.78.43-.42,1.06-.62,1.89-.62.52,0,.99.09,1.39.27.4.18.7.44.9.78.2.34.27.74.2,1.21,0,.03-.02.07-.03.1s-.04.05-.08.05h-.67c-.08,0-.11-.03-.09-.1.02-.49-.11-.87-.38-1.14-.28-.27-.68-.4-1.22-.4s-.95.14-1.24.42c-.29.28-.43.68-.43,1.21v2.16c0,.52.14.93.43,1.21.29.28.7.42,1.24.42s.96-.13,1.25-.4c.29-.27.41-.65.36-1.13-.01-.07.02-.1.09-.1h.65c.07,0,.11.05.12.14.04.46-.04.85-.24,1.19-.2.34-.5.6-.88.79s-.85.28-1.37.28Z"/>
    <path class="cls-17" d="m485.96,87.57c-.65,0-1.16-.15-1.51-.46-.35-.31-.53-.76-.53-1.36v-1.43c0-.65.17-1.14.52-1.48.35-.34.85-.51,1.51-.51s1.17.17,1.51.5c.34.33.52.81.52,1.44v.8c0,.07-.03.1-.1.1h-3.09v.33c0,.46.09.79.29,1,.19.21.5.31.93.31.32,0,.57-.05.74-.16.17-.11.26-.26.26-.47,0-.08.04-.11.11-.11h.67c.05,0,.09.03.1.09.03.44-.13.78-.48,1.03-.35.25-.83.38-1.45.38Zm-1.17-3.15h2.32v-.06c0-.43-.1-.75-.29-.95-.19-.2-.48-.31-.86-.31s-.69.11-.88.32c-.19.21-.29.53-.29.95v.05Z"/>
    <path class="cls-17" d="m489.47,87.45c-.07,0-.1-.03-.1-.1v-3.64c0-.18,0-.38-.03-.6-.02-.22-.03-.39-.05-.52-.01-.09.02-.13.1-.13h.62c.06,0,.1.03.11.1.01.05.03.14.04.26.01.12.03.24.04.36.01.13.02.23.02.32v3.85c0,.07-.03.1-.1.1h-.67Zm3.28,0c-.07,0-.1-.03-.1-.1v-3.26c0-.34-.07-.59-.21-.75-.14-.16-.35-.24-.63-.24s-.53.08-.79.24-.58.43-.97.81v-.79c.24-.25.46-.44.67-.59s.42-.26.62-.33c.21-.07.43-.1.66-.1.49,0,.87.14,1.12.43.26.29.39.71.39,1.28v3.3c0,.07-.03.1-.1.1h-.67Z"/>
    <path class="cls-17" d="m496.9,87.57c-.35,0-.62-.06-.83-.18s-.36-.3-.45-.54-.14-.54-.14-.89v-2.76h-.79c-.07,0-.1-.03-.1-.1v-.54c0-.07.03-.1.1-.1h.81l.11-1.23c0-.07.04-.1.11-.1h.51c.07,0,.1.03.1.1v1.23h1.53c.07,0,.1.03.1.1v.54c0,.07-.03.1-.1.1h-1.52v2.74c0,.32.06.55.17.67.11.13.3.19.58.19.14,0,.27-.02.41-.05.14-.03.26-.07.36-.12.08-.03.12-.01.12.07v.56c0,.05-.03.09-.08.11-.12.05-.27.09-.43.12-.16.03-.35.05-.57.05Z"/>
    <path class="cls-17" d="m499.19,87.45c-.07,0-.1-.03-.1-.1v-3.67c0-.19,0-.38-.01-.56-.01-.18-.03-.36-.06-.55-.01-.08.02-.11.1-.11h.62c.07,0,.11.03.11.09.03.13.05.28.06.44s.02.31.02.42l.02.54v3.39c0,.07-.03.1-.1.1h-.67Zm.65-3.18l-.02-.84c.14-.21.31-.4.5-.56s.38-.29.57-.39c.19-.1.37-.14.54-.14.12,0,.21.01.28.03.05.01.08.05.09.1.01.14.02.29.02.44,0,.15-.02.29-.04.43-.01.08-.06.1-.13.08-.05-.01-.11-.02-.17-.03-.06,0-.13-.01-.19-.01-.17,0-.34.04-.51.11-.17.08-.33.18-.49.31-.16.13-.3.29-.43.47Z"/>
    <path class="cls-17" d="m504.53,87.57c-.65,0-1.16-.15-1.51-.46-.35-.31-.53-.76-.53-1.36v-1.43c0-.65.17-1.14.52-1.48.35-.34.85-.51,1.51-.51s1.17.17,1.51.5c.34.33.52.81.52,1.44v.8c0,.07-.03.1-.1.1h-3.09v.33c0,.46.09.79.29,1,.19.21.5.31.93.31.32,0,.57-.05.74-.16.17-.11.26-.26.26-.47,0-.08.04-.11.11-.11h.67c.05,0,.09.03.1.09.03.44-.13.78-.48,1.03-.35.25-.83.38-1.45.38Zm-1.17-3.15h2.32v-.06c0-.43-.1-.75-.29-.95-.19-.2-.48-.31-.86-.31s-.69.11-.88.32c-.19.21-.29.53-.29.95v.05Z"/>
    <path class="cls-17" d="m477.43,97.97c-.07,0-.1-.03-.1-.1v-.58c0-.07.03-.1.1-.1h1.59v-4.92l-1.53.48c-.07.02-.1,0-.1-.07v-.6c0-.05.02-.09.06-.1l2.14-.72s.04-.01.07-.02c.02,0,.05,0,.08,0h.06c.07,0,.1.03.1.1v5.85h1.41c.07,0,.1.03.1.1v.58c0,.07-.03.1-.1.1h-3.88Z"/>
    <path class="cls-17" d="m482.28,99.28c-.08,0-.11-.04-.09-.13l.51-2.16c.01-.06.05-.09.1-.09h.78c.09,0,.12.05.08.14l-.74,2.17s-.05.07-.09.07h-.55Z"/>
    <path class="cls-17" d="m487.21,97.97c-.07,0-.1-.03-.1-.1v-.71c0-.33.06-.62.18-.87.12-.26.28-.48.48-.68.2-.2.42-.38.65-.55.24-.17.47-.33.71-.48.24-.15.45-.31.65-.46.2-.15.36-.32.48-.5.12-.18.18-.38.18-.61v-.21c0-.29-.1-.51-.31-.66-.21-.15-.51-.22-.92-.22s-.7.09-.9.27-.29.43-.29.75c0,.07-.03.1-.09.1h-.66c-.07,0-.1-.03-.1-.1,0-.38.08-.71.24-.97.16-.27.39-.47.71-.6.32-.14.71-.2,1.19-.2.67,0,1.18.14,1.51.43.33.29.5.71.5,1.26,0,.36-.06.67-.18.93-.12.26-.28.48-.47.67s-.41.37-.64.52c-.24.15-.47.3-.7.45-.23.14-.44.3-.64.46s-.35.35-.47.56-.18.46-.18.76h3.15c.07,0,.1.03.1.1v.58c0,.07-.03.1-.1.1h-3.95Z"/>
    <path class="cls-17" d="m492.32,99.28c-.08,0-.11-.04-.09-.13l.51-2.16c.01-.06.05-.09.1-.09h.78c.09,0,.12.05.08.14l-.74,2.17s-.05.07-.09.07h-.55Z"/>
    <path class="cls-17" d="m499.12,98.1c-.46,0-.84-.07-1.15-.22s-.54-.35-.7-.62c-.15-.27-.23-.58-.23-.94,0-.07.03-.1.1-.1h.65c.07,0,.1.03.1.1,0,.33.1.58.3.75s.5.26.89.26c.46,0,.82-.1,1.07-.29s.38-.47.38-.81v-.27c0-.7-.47-1.04-1.4-1.04h-.89c-.07,0-.1-.03-.1-.1v-.55c0-.07.03-.1.1-.1h.9c.4,0,.71-.09.92-.28s.31-.45.31-.81v-.27c0-.3-.1-.52-.31-.67-.21-.15-.52-.22-.94-.22s-.72.08-.92.24c-.2.16-.3.42-.3.77,0,.07-.03.1-.1.1h-.65c-.07,0-.1-.03-.1-.1,0-.59.18-1.04.54-1.33.36-.3.9-.44,1.62-.44s1.21.14,1.54.41c.33.28.5.71.5,1.29,0,.44-.09.79-.27,1.06s-.42.45-.72.55v.02c.4.13.69.33.88.6s.28.62.28,1.05c0,.63-.2,1.12-.59,1.46-.4.34-.96.51-1.71.51Z"/>
    <path class="cls-17" d="m502.24,99.28c-.08,0-.11-.04-.09-.13l.51-2.16c.01-.06.05-.09.1-.09h.78c.09,0,.12.05.08.14l-.74,2.17s-.05.07-.09.07h-.55Z"/>
    <path class="cls-17" d="m510.03,97.97c-.07,0-.1-.03-.1-.1v-1.22h-3.38c-.07,0-.1-.03-.1-.1v-.06c0-.06,0-.11.03-.14l2.75-4.99c.03-.05.08-.08.13-.08h.67c.09,0,.11.04.07.11l-2.47,4.48h2.3v-2.24c0-.07.03-.1.1-.1h.62c.07,0,.1.03.1.1v2.24h.78c.07,0,.1.03.1.1v.58c0,.07-.03.1-.1.1h-.78v1.22c0,.07-.03.1-.1.1h-.63Z"/>
    <path class="cls-17" d="m512.3,99.28c-.08,0-.11-.04-.09-.13l.51-2.16c.01-.06.05-.09.1-.09h.78c.09,0,.12.05.08.14l-.74,2.17s-.05.07-.09.07h-.55Z"/>
    <path class="cls-17" d="m518.91,98.1c-.42,0-.78-.07-1.08-.2-.3-.14-.52-.34-.68-.6-.15-.26-.23-.59-.23-.98,0-.07.03-.1.1-.1h.64c.07,0,.1.03.1.1,0,.33.1.59.31.76.21.17.5.26.9.26.49,0,.84-.1,1.06-.31.22-.2.33-.52.33-.95v-.31c0-.3-.05-.55-.15-.74s-.25-.34-.46-.43c-.21-.09-.48-.14-.8-.14-.21,0-.47.03-.77.1-.3.06-.59.16-.87.29-.05.03-.1.03-.14,0-.04-.03-.05-.06-.05-.11l.31-3.35c0-.07.04-.1.1-.1h3.21c.07,0,.1.03.1.1v.58c0,.07-.03.1-.1.1h-2.55l-.13,1.8c.22-.05.42-.09.61-.11s.36-.03.51-.03c.64,0,1.14.18,1.51.54.36.36.55.9.55,1.61s-.2,1.27-.6,1.66c-.4.38-.98.57-1.73.57Z"/>
    <path class="cls-17" d="m522.16,99.28c-.08,0-.11-.04-.09-.13l.51-2.16c.01-.06.05-.09.1-.09h.78c.09,0,.12.05.08.14l-.74,2.17s-.05.07-.09.07h-.55Z"/>
    <path class="cls-17" d="m529.24,98.1c-.72,0-1.28-.19-1.68-.56-.4-.37-.6-.92-.6-1.64v-2.58c0-.68.2-1.21.61-1.6s.99-.57,1.74-.57c.41,0,.76.06,1.06.17.3.11.53.27.69.48.16.21.25.46.25.75,0,.07-.03.1-.1.1h-.65c-.07,0-.1-.03-.1-.1,0-.2-.1-.35-.3-.47-.2-.11-.48-.17-.82-.17-.5,0-.87.11-1.12.34s-.37.57-.37,1.03v2.6c0,.45.12.8.37,1.06s.59.38,1.03.38.79-.13,1.03-.39c.25-.26.37-.62.37-1.07v-.29c0-.37-.1-.65-.29-.83-.19-.19-.47-.28-.85-.28-.29,0-.6.06-.92.19-.32.13-.62.31-.9.55v-.74c.31-.25.64-.44.98-.57.34-.13.69-.19,1.05-.19.59,0,1.04.17,1.34.5.3.33.45.82.45,1.47,0,.76-.2,1.36-.59,1.78-.39.43-.95.64-1.67.64Z"/>
    <path class="cls-17" d="m532.29,99.28c-.08,0-.11-.04-.09-.13l.51-2.16c.01-.06.05-.09.1-.09h.78c.09,0,.12.05.08.14l-.74,2.17s-.05.07-.09.07h-.55Z"/>
    <path class="cls-17" d="m537.93,97.97s-.06-.01-.07-.04-.01-.05,0-.09l2.64-5.79h-2.68v.84c0,.07-.03.1-.1.1h-.65c-.07,0-.1-.03-.1-.1v-1.52c0-.07.03-.1.1-.1h4.49c.07,0,.1.03.1.1v.05s0,.1-.03.15l-2.85,6.3c-.03.06-.08.09-.14.09h-.7Z"/>
    <path class="cls-17" d="m540.99,99.28c-.08,0-.11-.04-.09-.13l.51-2.16c.01-.06.05-.09.1-.09h.78c.09,0,.12.05.08.14l-.74,2.17s-.05.07-.09.07h-.55Z"/>
    <path class="cls-17" d="m547.99,98.1c-.66,0-1.17-.14-1.53-.42-.36-.28-.54-.68-.54-1.21,0-.07.03-.1.1-.1h.65c.07,0,.1.03.1.1,0,.2.1.4.31.58.21.18.51.28.92.28.5,0,.88-.12,1.12-.37.24-.25.36-.61.36-1.08v-2.52c0-.45-.13-.8-.39-1.06-.26-.26-.61-.38-1.06-.38s-.78.12-1.02.37c-.24.25-.35.61-.35,1.07v.39c0,.33.11.6.32.79.21.19.5.29.88.29.3,0,.6-.06.9-.18.3-.12.59-.31.87-.56v.74c-.32.27-.63.47-.93.59-.3.12-.62.18-.97.18-.63,0-1.12-.18-1.45-.53-.33-.35-.5-.87-.5-1.54,0-.76.19-1.35.58-1.75s.94-.6,1.67-.6,1.3.2,1.7.6c.41.4.61.96.61,1.67v2.4c0,.74-.2,1.31-.59,1.69s-.99.58-1.77.58Z"/>
    <path class="cls-17" d="m551.14,99.28c-.08,0-.11-.04-.09-.13l.51-2.16c.01-.06.05-.09.1-.09h.78c.09,0,.12.05.08.14l-.74,2.17s-.05.07-.09.07h-.55Z"/>
    <path class="cls-17" d="m555.76,97.97c-.07,0-.1-.03-.1-.1v-.58c0-.07.03-.1.1-.1h1.59v-4.92l-1.53.48c-.07.02-.1,0-.1-.07v-.6c0-.05.02-.09.06-.1l2.14-.72s.04-.01.07-.02c.02,0,.05,0,.08,0h.06c.07,0,.1.03.1.1v5.85h1.41c.07,0,.1.03.1.1v.58c0,.07-.03.1-.1.1h-3.88Z"/>
    <path class="cls-17" d="m562.86,98.1c-.72,0-1.28-.2-1.68-.61-.4-.41-.6-.98-.6-1.71v-2.3c0-.73.2-1.3.6-1.71.4-.41.96-.61,1.68-.61s1.28.2,1.68.61.6.98.6,1.71v2.3c0,.73-.2,1.3-.6,1.71-.4.41-.96.61-1.68.61Zm0-.77c.44,0,.79-.13,1.04-.39.25-.26.37-.62.37-1.08v-2.46c0-.46-.12-.82-.37-1.08s-.59-.39-1.04-.39-.79.13-1.04.39-.37.62-.37,1.08v2.46c0,.46.12.82.37,1.08.25.26.59.39,1.04.39Z"/>
  </g>
  <text class="cls-16" transform="translate(476.92 126.4) scale(.58)"><tspan class="cls-18" x="0" y="0">T</tspan><tspan class="cls-22" x="7.98" y="0">endan</tspan><tspan class="cls-30" x="54.79" y="0">c</tspan><tspan class="cls-22" x="63.77" y="0">es</tspan></text>
  <text class="cls-3" transform="translate(50.74 230.41) scale(.58)"><tspan x="0" y="0">2003</tspan></text>
  <text class="cls-3" transform="translate(77.53 230.41) scale(.58)"><tspan x="0" y="0">2004</tspan></text>
  <text class="cls-15" transform="translate(104.19 230.41) scale(.58)"><tspan x="0" y="0">2005</tspan></text>
  <text class="cls-3" transform="translate(130.87 230.41) scale(.58)"><tspan x="0" y="0">2006</tspan></text>
  <text class="cls-3" transform="translate(157.89 230.41) scale(.58)"><tspan x="0" y="0">20</tspan><tspan class="cls-31" x="17.07" y="0">0</tspan><tspan class="cls-33" x="25.86" y="0">7</tspan></text>
  <text class="cls-3" transform="translate(184.15 230.41) scale(.58)"><tspan x="0" y="0">2008</tspan></text>
  <text class="cls-3" transform="translate(211.05 230.41) scale(.58)"><tspan x="0" y="0">2009</tspan></text>
  <text class="cls-15" transform="translate(238.45 230.41) scale(.58)"><tspan x="0" y="0">2010</tspan></text>
  <text class="cls-3" transform="translate(265.85 230.41) scale(.58)"><tspan x="0" y="0">2011</tspan></text>
  <text class="cls-3" transform="translate(291.88 230.41) scale(.58)"><tspan x="0" y="0">20</tspan><tspan class="cls-29" x="17.07" y="0">1</tspan><tspan class="cls-33" x="24.22" y="0">2</tspan></text>
  <text class="cls-3" transform="translate(318.58 230.41) scale(.58)"><tspan x="0" y="0">2013</tspan></text>
  <text class="cls-15" transform="translate(345.31 230.41) scale(.58)"><tspan x="0" y="0">20</tspan><tspan class="cls-14" x="17.07" y="0">1</tspan><tspan class="cls-21" x="24.09" y="0">5</tspan></text>
  <text class="cls-3" transform="translate(371.99 230.21) scale(.58)"><tspan x="0" y="0">2016</tspan></text>
  <text class="cls-3" transform="translate(27.73 199.48) scale(.58)"><tspan class="cls-20" x="0" y="0">0</tspan><tspan x="8.3" y="0">,10</tspan></text>
  <text class="cls-3" transform="translate(27.73 179.67) scale(.58)"><tspan class="cls-20" x="0" y="0">0</tspan><tspan class="cls-19" x="8.3" y="0">,</tspan><tspan class="cls-33" x="11.83" y="0">20</tspan></text>
  <text class="cls-3" transform="translate(27.73 159.86) scale(.58)"><tspan class="cls-20" x="0" y="0">0</tspan><tspan class="cls-27" x="8.3" y="0">,</tspan><tspan class="cls-26" x="11.7" y="0">30</tspan></text>
  <text class="cls-3" transform="translate(27.73 140.06) scale(.58)"><tspan class="cls-20" x="0" y="0">0</tspan><tspan class="cls-14" x="8.3" y="0">,</tspan><tspan x="11.98" y="0">40</tspan></text>
  <text class="cls-3" transform="translate(27.73 120.25) scale(.58)"><tspan class="cls-20" x="0" y="0">0</tspan><tspan x="8.3" y="0">,50</tspan></text>
  <text class="cls-3" transform="translate(27.73 100.44) scale(.58)"><tspan class="cls-20" x="0" y="0">0</tspan><tspan class="cls-27" x="8.3" y="0">,</tspan><tspan class="cls-26" x="11.7" y="0">60</tspan></text>
  <text class="cls-3" transform="translate(27.73 80.63) scale(.58)"><tspan class="cls-20" x="0" y="0">0</tspan><tspan class="cls-1" x="8.3" y="0">,</tspan><tspan class="cls-13" x="11.21" y="0">7</tspan><tspan class="cls-26" x="19.26" y="0">0</tspan></text>
  <text class="cls-3" transform="translate(27.73 60.83) scale(.58)"><tspan class="cls-20" x="0" y="0">0</tspan><tspan class="cls-14" x="8.3" y="0">,</tspan><tspan x="11.98" y="0">80</tspan></text>
  <text class="cls-3" transform="translate(27.73 41.02) scale(.58)"><tspan class="cls-20" x="0" y="0">0</tspan><tspan class="cls-27" x="8.3" y="0">,</tspan><tspan class="cls-26" x="11.7" y="0">90</tspan></text>
  <text class="cls-15" transform="translate(27.73 21.21) scale(.58)"><tspan class="cls-23" x="0" y="0">1</tspan><tspan class="cls-24" x="7.45" y="0">,</tspan><tspan x="10.71" y="0">00</tspan></text>
  <path class="cls-2" d="m456.12,18.12c6.72,0,12.17,5.45,12.17,12.17s-5.45,12.17-12.17,12.17-12.17-5.45-12.17-12.17,5.45-12.17,12.17-12.17m0-.88c-7.19,0-13.05,5.85-13.05,13.05s5.85,13.05,13.05,13.05,13.05-5.85,13.05-13.05-5.85-13.05-13.05-13.05h0Z"/>
  <path class="cls-2" d="m456.12,47.57c6.72,0,12.17,5.45,12.17,12.17s-5.45,12.17-12.17,12.17-12.17-5.45-12.17-12.17,5.45-12.17,12.17-12.17m0-.88c-7.19,0-13.05,5.85-13.05,13.05s5.85,13.05,13.05,13.05,13.05-5.85,13.05-13.05-5.85-13.05-13.05-13.05h0Z"/>
  <path class="cls-2" d="m456.12,77.02c6.72,0,12.17,5.45,12.17,12.17s-5.45,12.17-12.17,12.17-12.17-5.45-12.17-12.17,5.45-12.17,12.17-12.17m0-.88c-7.19,0-13.05,5.85-13.05,13.05s5.85,13.05,13.05,13.05,13.05-5.85,13.05-13.05-5.85-13.05-13.05-13.05h0Z"/>
  <circle class="cls-32" cx="456.12" cy="89.19" r="5.15"/>
  <path class="cls-28" d="m459.68,56.02c.98.94,1.59,2.25,1.59,3.72,0,2.84-2.3,5.15-5.15,5.15-.75,0-1.45-.16-2.09-.45,0,0,0,0-.02,0l-2.84,6.39v.04c1.52.68,3.18,1.05,4.95,1.05,6.72,0,12.17-5.45,12.17-12.17,0-3.46-1.45-6.59-3.76-8.8,0,0-.02-.02-.03-.02l-4.82,5.06"/>
  <path class="cls-25" d="m464.53,21.49h0s-4.84,5.09-4.84,5.09c-.92-.89-2.18-1.44-3.56-1.44-2.84,0-5.15,2.31-5.15,5.16,0,2.1,1.26,3.9,3.06,4.7l-2.85,6.41c-.3-.13-.59-.27-.87-.44-.5-.26-.97-.57-1.42-.9-.47-.34-.91-.73-1.32-1.13-.2-.2-.4-.42-.6-.63-.95-1.09-1.7-2.34-2.22-3.7-.1-.26-.19-.54-.28-.82-.08-.27-.16-.56-.22-.84-.19-.86-.29-1.75-.29-2.64,0-5.47,3.69-10.16,8.7-11.67.33-.1.68-.18,1.03-.25.79-.16,1.61-.25,2.44-.25.59,0,1.17.04,1.75.13.39.05.76.12,1.13.22.19.04.38.1.56.15.18.05.37.11.54.18.18.06.37.13.54.2.14.05.28.11.42.18.21.1.42.19.63.31.14.07.29.15.43.24.1.05.19.11.29.17.17.1.32.2.48.3.02.02.04.03.05.04.15.11.3.21.44.32.16.11.31.24.46.36.16.12.3.25.45.39.08.06.15.13.23.2Z"/>
  <line class="cls-25" x1="456.12" y1="89.18" x2="456.11" y2="89.2"/>
  <line class="cls-5" x1="443.96" y1="116.26" x2="468.29" y2="128.58"/>
  <polyline class="cls-7" points="49.72 15.3 49.72 218.37 393.98 218.37"/>
  <polyline class="cls-8" points="60.17 137.06 84.54 156.01 110.45 157.95 133.66 147.5 159.19 171.87 185.11 163.36 207.54 140.54 230.36 178.06 258.99 180.38 282.58 150.21 355.3 189.66 378.9 179.61"/>
  <polyline class="cls-6" points="61.72 179.22 86.86 157.95 110.84 142.86 134.82 112.3 156.48 132.03 184.33 166.07 207.54 173.42 231.91 155.24 256.67 163.36 281.42 214.03 306.95 167.23 331.71 203.2 354.14 194.31 378.9 202.04"/>
  <polyline class="cls-9" points="61.72 62.02 109.68 109.6 136.37 101.09 161.13 104.57 181.24 102.63 208.32 118.11 232.3 141.31 256.67 147.89 281.42 163.36 305.4 175.74 329 179.22 355.69 192.37 378.9 185.02"/>
  <g>
    <line class="cls-4" x1="61.72" y1="80.46" x2="67.31" y2="82.64"/>
    <line class="cls-12" x1="78.77" y1="87.12" x2="371.06" y2="201.36"/>
    <line class="cls-4" x1="376.79" y1="203.6" x2="382.38" y2="205.78"/>
  </g>
  <g>
    <line class="cls-4" x1="61.72" y1="156.66" x2="67.68" y2="157.28"/>
    <line class="cls-10" x1="80.03" y1="158.56" x2="370.24" y2="188.66"/>
    <line class="cls-4" x1="376.41" y1="189.3" x2="382.38" y2="189.92"/>
  </g>
</svg>