<?xml version="1.0" encoding="utf-8"?>
<!-- Generator: Adobe Illustrator 27.1.1, SVG Export Plug-In . SVG Version: 6.00 Build 0)  -->
<svg version="1.1" id="Calque_1" xmlns="http://www.w3.org/2000/svg" xmlns:xlink="http://www.w3.org/1999/xlink" x="0px" y="0px"
	 viewBox="0 0 361.5 228.3" style="enable-background:new 0 0 361.5 228.3;" xml:space="preserve">
<style type="text/css">
	.st0{fill:#B17F4A;}
	.st1{fill:#936037;}
	.st2{fill:#683C11;}
	.st3{enable-background:new    ;}
	.st4{fill:#000E41;}
	.st5{fill:none;stroke:#000E41;stroke-miterlimit:10;}
	.st6{fill:#000E41;stroke:#000E41;stroke-miterlimit:10;}
</style>
<g>
	<path class="st0" d="M116.5,32.3c49.7,0,84.3,13.6,84.3,25.8s-34.6,25.8-84.3,25.8S32.2,70.3,32.2,58.1S66.8,32.3,116.5,32.3
		 M116.5,29.3c-48.2,0-87.3,12.9-87.3,28.8s39.1,28.8,87.3,28.8s87.3-12.9,87.3-28.8S164.7,29.3,116.5,29.3L116.5,29.3z"/>
	<path class="st1" d="M147,22c31.2,0,60.4,4,82.4,11.2C250,40,261.9,49,261.9,57.9s-11.8,17.8-32.5,24.7
		c-22,7.2-51.2,11.2-82.4,11.2s-60.4-3.9-82.4-11.2C44,75.8,32.1,66.8,32.1,57.9S44,40.1,64.6,33.3C86.6,26,115.9,22,147,22
		 M147.1,19C82,19,29.2,36.5,29.2,57.9S82,96.8,147.1,96.8S265,79.4,265,57.9S212.2,19,147.1,19L147.1,19z"/>
	<path class="st2" d="M180.8,11.1c40.2,0,77.9,5.1,106.2,14.5c26.9,8.9,42.3,20.7,42.3,32.5S313.9,81.7,287,90.6
		c-28.3,9.3-66,14.5-106.2,14.5S103,100,74.7,90.6c-26.9-8.9-42.3-20.7-42.3-32.5s15.4-23.6,42.3-32.5
		C103,16.3,140.7,11.1,180.8,11.1 M180.8,8.1c-83.7,0-151.5,22.4-151.5,50s67.8,50,151.5,50s151.5-22.4,151.5-50
		S264.5,8.1,180.8,8.1L180.8,8.1z"/>
</g>
<g>
	<path class="st0" d="M38.4,157.5c3.4,0,6.2,2.8,6.2,6.2c0,3.4-2.8,6.2-6.2,6.2s-6.2-2.8-6.2-6.2C32.2,160.3,35,157.5,38.4,157.5
		 M38.4,154.5c-5.1,0-9.2,4.1-9.2,9.2c0,5.1,4.1,9.2,9.2,9.2s9.2-4.1,9.2-9.2C47.6,158.6,43.5,154.5,38.4,154.5L38.4,154.5z"/>
	<g>
		<g class="st3">
			<path class="st4" d="M57,167.2c-0.1,0-0.1,0-0.1-0.1v0c0,0,0-0.1,0-0.2l3.6-5.5c0.1-0.2,0.3-0.4,0.4-0.6s0.3-0.4,0.4-0.6v0
				c-0.2,0-0.5,0-0.7,0c-0.2,0-0.5,0-0.7,0h-2.5c-0.1,0-0.1,0-0.1-0.1v-0.7c0-0.1,0-0.1,0.1-0.1h5.4c0.1,0,0.1,0,0.1,0.1v0
				c0,0,0,0.1,0,0.2l-3.5,5.3c-0.1,0.2-0.3,0.4-0.4,0.7c-0.1,0.2-0.3,0.4-0.4,0.6v0c0.3,0,0.5,0,0.8,0s0.5,0,0.8,0h2.5
				c0.1,0,0.1,0,0.1,0.1v0.7c0,0.1,0,0.1-0.1,0.1H57z"/>
		</g>
		<g class="st3">
			<path class="st4" d="M66.1,167.3c-0.8,0-1.4-0.2-1.8-0.6c-0.4-0.4-0.6-1-0.6-1.8v-1.4c0-0.8,0.2-1.4,0.6-1.8
				c0.4-0.4,1-0.6,1.8-0.6c0.8,0,1.4,0.2,1.8,0.6c0.4,0.4,0.6,1,0.6,1.8v1.4c0,0.8-0.2,1.4-0.6,1.8C67.6,167.1,67,167.3,66.1,167.3z
				 M66.1,166.4c0.5,0,0.9-0.1,1.1-0.4c0.2-0.3,0.3-0.7,0.3-1.2v-1.2c0-0.5-0.1-0.9-0.3-1.2c-0.2-0.3-0.6-0.4-1.1-0.4
				c-0.5,0-0.9,0.1-1.1,0.4c-0.2,0.3-0.3,0.7-0.3,1.2v1.2c0,0.5,0.1,0.9,0.3,1.2C65.3,166.3,65.6,166.4,66.1,166.4z"/>
			<path class="st4" d="M70.4,167.2c-0.1,0-0.1,0-0.1-0.1v-4.3c0-0.2,0-0.4,0-0.7c0-0.3,0-0.5-0.1-0.6c0-0.1,0-0.2,0.1-0.2H71
				c0.1,0,0.1,0,0.1,0.1c0,0.1,0,0.2,0,0.3c0,0.1,0,0.3,0,0.4c0,0.1,0,0.3,0,0.4v0.3v4.2c0,0.1,0,0.1-0.1,0.1H70.4z M74.2,167.2
				c-0.1,0-0.1,0-0.1-0.1v-3.8c0-0.4-0.1-0.7-0.2-0.9c-0.2-0.2-0.4-0.3-0.7-0.3c-0.3,0-0.6,0.1-0.9,0.3c-0.3,0.2-0.7,0.5-1.1,0.9
				l0-0.9c0.3-0.3,0.5-0.5,0.8-0.7c0.2-0.2,0.5-0.3,0.7-0.4s0.5-0.1,0.8-0.1c0.6,0,1,0.2,1.3,0.5c0.3,0.3,0.5,0.8,0.5,1.5v3.9
				c0,0.1,0,0.1-0.1,0.1H74.2z"/>
			<path class="st4" d="M79.2,167.3c-0.8,0-1.4-0.2-1.8-0.5c-0.4-0.4-0.6-0.9-0.6-1.6v-1.7c0-0.8,0.2-1.3,0.6-1.7
				c0.4-0.4,1-0.6,1.8-0.6c0.8,0,1.4,0.2,1.8,0.6c0.4,0.4,0.6,1,0.6,1.7v0.9c0,0.1,0,0.1-0.1,0.1h-3.6v0.4c0,0.5,0.1,0.9,0.3,1.2
				s0.6,0.4,1.1,0.4c0.4,0,0.7-0.1,0.9-0.2s0.3-0.3,0.3-0.5c0-0.1,0-0.1,0.1-0.1h0.8c0.1,0,0.1,0,0.1,0.1c0,0.5-0.2,0.9-0.6,1.2
				S79.9,167.3,79.2,167.3z M77.8,163.6h2.7v-0.1c0-0.5-0.1-0.9-0.3-1.1c-0.2-0.2-0.6-0.4-1-0.4c-0.5,0-0.8,0.1-1,0.4
				C77.9,162.7,77.8,163.1,77.8,163.6L77.8,163.6z"/>
			<path class="st4" d="M87.3,167.3c-0.6,0-1-0.2-1.3-0.6c-0.3-0.4-0.4-0.9-0.4-1.7v-1.5c0-0.8,0.2-1.4,0.6-1.8
				c0.4-0.4,0.9-0.6,1.6-0.6c0.3,0,0.6,0,1,0.1c0.3,0.1,0.6,0.2,0.8,0.3l0.1,0.9c-0.3-0.1-0.5-0.2-0.8-0.3c-0.3-0.1-0.6-0.1-0.8-0.1
				c-0.4,0-0.8,0.1-1,0.4c-0.2,0.3-0.3,0.7-0.3,1.2v1.4c0,0.4,0.1,0.7,0.2,1s0.4,0.3,0.7,0.3c0.2,0,0.4,0,0.6-0.1
				c0.2-0.1,0.4-0.2,0.6-0.4s0.5-0.4,0.8-0.7l0,0.9c-0.3,0.3-0.5,0.5-0.8,0.7c-0.2,0.2-0.5,0.3-0.7,0.4S87.6,167.3,87.3,167.3z
				 M89.6,167.2c-0.1,0-0.1,0-0.1-0.1c0-0.1,0-0.3-0.1-0.5c0-0.2,0-0.3,0-0.5l-0.1-0.5v-6.5c0-0.1,0-0.1,0.1-0.1h0.8
				c0.1,0,0.1,0,0.1,0.1v6.7c0,0.1,0,0.2,0,0.4s0,0.3,0,0.5c0,0.1,0,0.3,0,0.3c0,0.1,0,0.2-0.1,0.2H89.6z"/>
			<path class="st4" d="M94.4,167.3c-0.8,0-1.4-0.2-1.8-0.5c-0.4-0.4-0.6-0.9-0.6-1.6v-1.7c0-0.8,0.2-1.3,0.6-1.7
				c0.4-0.4,1-0.6,1.8-0.6c0.8,0,1.4,0.2,1.8,0.6c0.4,0.4,0.6,1,0.6,1.7v0.9c0,0.1,0,0.1-0.1,0.1h-3.6v0.4c0,0.5,0.1,0.9,0.3,1.2
				s0.6,0.4,1.1,0.4c0.4,0,0.7-0.1,0.9-0.2s0.3-0.3,0.3-0.5c0-0.1,0-0.1,0.1-0.1h0.8c0.1,0,0.1,0,0.1,0.1c0,0.5-0.2,0.9-0.6,1.2
				S95.2,167.3,94.4,167.3z M93.1,163.6h2.7v-0.1c0-0.5-0.1-0.9-0.3-1.1c-0.2-0.2-0.6-0.4-1-0.4c-0.5,0-0.8,0.1-1,0.4
				C93.2,162.7,93.1,163.1,93.1,163.6L93.1,163.6z"/>
			<path class="st4" d="M101.1,167.2c-0.1,0-0.1,0-0.1-0.1v-4.3c0-0.2,0-0.4,0-0.7c0-0.3,0-0.5-0.1-0.6c0-0.1,0-0.2,0.1-0.2h0.7
				c0.1,0,0.1,0,0.1,0.1c0,0.1,0,0.2,0,0.3c0,0.1,0,0.3,0,0.4c0,0.1,0,0.3,0,0.4v0.3v4.2c0,0.1,0,0.1-0.1,0.1H101.1z M104.9,167.2
				c-0.1,0-0.1,0-0.1-0.1v-3.8c0-0.4-0.1-0.7-0.2-0.9c-0.2-0.2-0.4-0.3-0.7-0.3c-0.3,0-0.6,0.1-0.9,0.3c-0.3,0.2-0.7,0.5-1.1,0.9
				l0-0.9c0.3-0.3,0.5-0.5,0.8-0.7c0.2-0.2,0.5-0.3,0.7-0.4s0.5-0.1,0.8-0.1c0.6,0,1,0.2,1.3,0.5c0.3,0.3,0.5,0.8,0.5,1.5v3.9
				c0,0.1,0,0.1-0.1,0.1H104.9z"/>
			<path class="st4" d="M108.1,160.4c-0.2,0-0.4-0.1-0.5-0.2c-0.1-0.1-0.2-0.3-0.2-0.5v-0.1c0-0.2,0.1-0.3,0.2-0.5
				c0.1-0.1,0.3-0.2,0.5-0.2c0.2,0,0.4,0.1,0.5,0.2c0.1,0.1,0.2,0.3,0.2,0.5v0.1c0,0.2-0.1,0.3-0.2,0.5
				C108.5,160.3,108.4,160.4,108.1,160.4z M107.7,167.2c-0.1,0-0.1,0-0.1-0.1v-5.6c0-0.1,0-0.1,0.1-0.1h0.8c0.1,0,0.1,0,0.1,0.1v5.6
				c0,0.1,0,0.1-0.1,0.1H107.7z"/>
			<path class="st4" d="M112,167.3c-0.6,0-1-0.2-1.3-0.6c-0.3-0.4-0.4-0.9-0.4-1.7v-1.5c0-0.8,0.2-1.4,0.6-1.8
				c0.4-0.4,0.9-0.6,1.6-0.6c0.3,0,0.6,0,1,0.1c0.3,0.1,0.6,0.2,0.8,0.3l0.1,0.9c-0.3-0.1-0.5-0.2-0.8-0.3c-0.3-0.1-0.6-0.1-0.8-0.1
				c-0.4,0-0.8,0.1-1,0.4c-0.2,0.3-0.3,0.7-0.3,1.2v1.4c0,0.4,0.1,0.7,0.2,1s0.4,0.3,0.7,0.3c0.2,0,0.4,0,0.6-0.1
				c0.2-0.1,0.4-0.2,0.6-0.4s0.5-0.4,0.8-0.7l0,0.9c-0.3,0.3-0.5,0.5-0.8,0.7c-0.2,0.2-0.5,0.3-0.7,0.4S112.3,167.3,112,167.3z
				 M114.4,167.2c-0.1,0-0.1,0-0.1-0.1c0-0.1,0-0.3-0.1-0.5c0-0.2,0-0.3,0-0.5l-0.1-0.5v-6.5c0-0.1,0-0.1,0.1-0.1h0.8
				c0.1,0,0.1,0,0.1,0.1v6.7c0,0.1,0,0.2,0,0.4s0,0.3,0,0.5c0,0.1,0,0.3,0,0.3c0,0.1,0,0.2-0.1,0.2H114.4z"/>
			<path class="st4" d="M118.1,167.3c-0.5,0-0.8-0.1-1.1-0.4c-0.2-0.3-0.4-0.7-0.4-1.2c0-0.4,0.1-0.8,0.2-1c0.2-0.3,0.4-0.5,0.8-0.6
				c0.4-0.1,0.9-0.2,1.5-0.3l1.1-0.1v0.8l-1.2,0.1c-0.6,0-0.9,0.1-1.1,0.3c-0.2,0.2-0.3,0.4-0.3,0.8c0,0.3,0.1,0.5,0.2,0.6
				s0.3,0.2,0.5,0.2c0.3,0,0.5-0.1,0.8-0.3c0.3-0.2,0.7-0.5,1.1-1v0.9c-0.3,0.3-0.5,0.5-0.8,0.7c-0.2,0.2-0.5,0.3-0.7,0.4
				C118.6,167.3,118.3,167.3,118.1,167.3z M120.3,167.2C120.3,167.2,120.3,167.2,120.3,167.2c-0.1-0.1-0.1-0.1-0.1-0.2
				c0-0.1,0-0.2-0.1-0.4s0-0.4-0.1-0.6l0-0.5v-2.4c0-0.4-0.1-0.7-0.2-0.9s-0.4-0.3-0.8-0.3c-0.7,0-1.1,0.2-1.1,0.7
				c0,0.1,0,0.1-0.1,0.1H117c-0.1,0-0.1-0.1-0.1-0.2c0-0.5,0.1-0.8,0.5-1.1c0.4-0.3,0.9-0.4,1.6-0.4c0.7,0,1.2,0.2,1.6,0.5
				s0.5,0.8,0.5,1.5v2.6c0,0.3,0,0.5,0,0.8c0,0.2,0,0.4,0.1,0.6c0,0.1,0,0.1-0.1,0.1H120.3z"/>
			<path class="st4" d="M124.9,167.3c-0.4,0-0.7-0.1-1-0.2c-0.2-0.1-0.4-0.3-0.5-0.6c-0.1-0.3-0.2-0.6-0.2-1v-3.2h-0.9
				c-0.1,0-0.1,0-0.1-0.1v-0.6c0-0.1,0-0.1,0.1-0.1h0.9l0.1-1.4c0-0.1,0.1-0.1,0.1-0.1h0.6c0.1,0,0.1,0,0.1,0.1l0,1.4h1.8
				c0.1,0,0.1,0,0.1,0.1v0.6c0,0.1,0,0.1-0.1,0.1h-1.8v3.2c0,0.4,0.1,0.6,0.2,0.8c0.1,0.2,0.4,0.2,0.7,0.2c0.2,0,0.3,0,0.5-0.1
				c0.2,0,0.3-0.1,0.4-0.1c0.1,0,0.1,0,0.1,0.1v0.7c0,0.1,0,0.1-0.1,0.1c-0.1,0.1-0.3,0.1-0.5,0.1
				C125.4,167.3,125.2,167.3,124.9,167.3z"/>
			<path class="st4" d="M128,160.4c-0.2,0-0.4-0.1-0.5-0.2c-0.1-0.1-0.2-0.3-0.2-0.5v-0.1c0-0.2,0.1-0.3,0.2-0.5
				c0.1-0.1,0.3-0.2,0.5-0.2c0.2,0,0.4,0.1,0.5,0.2c0.1,0.1,0.2,0.3,0.2,0.5v0.1c0,0.2-0.1,0.3-0.2,0.5
				C128.4,160.3,128.2,160.4,128,160.4z M127.6,167.2c-0.1,0-0.1,0-0.1-0.1v-5.6c0-0.1,0-0.1,0.1-0.1h0.8c0.1,0,0.1,0,0.1,0.1v5.6
				c0,0.1,0,0.1-0.1,0.1H127.6z"/>
			<path class="st4" d="M132.6,167.3c-0.8,0-1.4-0.2-1.8-0.6c-0.4-0.4-0.6-1-0.6-1.8v-1.4c0-0.8,0.2-1.4,0.6-1.8
				c0.4-0.4,1-0.6,1.8-0.6c0.8,0,1.4,0.2,1.8,0.6c0.4,0.4,0.6,1,0.6,1.8v1.4c0,0.8-0.2,1.4-0.6,1.8
				C134.1,167.1,133.4,167.3,132.6,167.3z M132.6,166.4c0.5,0,0.9-0.1,1.1-0.4c0.2-0.3,0.3-0.7,0.3-1.2v-1.2c0-0.5-0.1-0.9-0.3-1.2
				c-0.2-0.3-0.6-0.4-1.1-0.4c-0.5,0-0.9,0.1-1.1,0.4c-0.2,0.3-0.3,0.7-0.3,1.2v1.2c0,0.5,0.1,0.9,0.3,1.2
				C131.7,166.3,132.1,166.4,132.6,166.4z"/>
			<path class="st4" d="M136.9,167.2c-0.1,0-0.1,0-0.1-0.1v-4.3c0-0.2,0-0.4,0-0.7s0-0.5-0.1-0.6c0-0.1,0-0.2,0.1-0.2h0.7
				c0.1,0,0.1,0,0.1,0.1c0,0.1,0,0.2,0,0.3c0,0.1,0,0.3,0,0.4c0,0.1,0,0.3,0,0.4v0.3v4.2c0,0.1,0,0.1-0.1,0.1H136.9z M140.7,167.2
				c-0.1,0-0.1,0-0.1-0.1v-3.8c0-0.4-0.1-0.7-0.2-0.9c-0.2-0.2-0.4-0.3-0.7-0.3c-0.3,0-0.6,0.1-0.9,0.3c-0.3,0.2-0.7,0.5-1.1,0.9
				l0-0.9c0.3-0.3,0.5-0.5,0.8-0.7s0.5-0.3,0.7-0.4c0.2-0.1,0.5-0.1,0.8-0.1c0.6,0,1,0.2,1.3,0.5c0.3,0.3,0.5,0.8,0.5,1.5v3.9
				c0,0.1,0,0.1-0.1,0.1H140.7z"/>
		</g>
	</g>
</g>
<g>
	<path class="st2" d="M38.4,208.2c3.4,0,6.2,2.8,6.2,6.2s-2.8,6.2-6.2,6.2s-6.2-2.8-6.2-6.2S35,208.2,38.4,208.2 M38.4,205.2
		c-5.1,0-9.2,4.1-9.2,9.2c0,5.1,4.1,9.2,9.2,9.2s9.2-4.1,9.2-9.2C47.6,209.3,43.5,205.2,38.4,205.2L38.4,205.2z"/>
	<g>
		<g class="st3">
			<path class="st4" d="M57.4,217.9c-0.1,0-0.1,0-0.1-0.1v0c0,0,0-0.1,0-0.2l3.6-5.5c0.1-0.2,0.3-0.4,0.4-0.6s0.3-0.4,0.4-0.6v0
				c-0.2,0-0.5,0-0.7,0c-0.2,0-0.5,0-0.7,0h-2.5c-0.1,0-0.1,0-0.1-0.1v-0.7c0-0.1,0-0.1,0.1-0.1h5.4c0.1,0,0.1,0,0.1,0.1v0
				c0,0,0,0.1,0,0.2l-3.5,5.3c-0.1,0.2-0.3,0.4-0.4,0.7s-0.3,0.4-0.4,0.6v0c0.3,0,0.5,0,0.8,0c0.3,0,0.5,0,0.8,0h2.5
				c0.1,0,0.1,0,0.1,0.1v0.7c0,0.1,0,0.1-0.1,0.1H57.4z"/>
		</g>
		<g class="st3">
			<path class="st4" d="M66.5,218.1c-0.8,0-1.4-0.2-1.8-0.6c-0.4-0.4-0.6-1-0.6-1.8v-1.4c0-0.8,0.2-1.4,0.6-1.8
				c0.4-0.4,1-0.6,1.8-0.6c0.8,0,1.4,0.2,1.8,0.6c0.4,0.4,0.6,1,0.6,1.8v1.4c0,0.8-0.2,1.4-0.6,1.8
				C67.9,217.9,67.3,218.1,66.5,218.1z M66.5,217.2c0.5,0,0.9-0.1,1.1-0.4c0.2-0.3,0.3-0.7,0.3-1.2v-1.2c0-0.5-0.1-0.9-0.3-1.2
				c-0.2-0.3-0.6-0.4-1.1-0.4c-0.5,0-0.9,0.1-1.1,0.4c-0.2,0.3-0.3,0.7-0.3,1.2v1.2c0,0.5,0.1,0.9,0.3,1.2
				C65.6,217,66,217.2,66.5,217.2z"/>
			<path class="st4" d="M70.7,217.9c-0.1,0-0.1,0-0.1-0.1v-4.3c0-0.2,0-0.4,0-0.7c0-0.3,0-0.5-0.1-0.6c0-0.1,0-0.2,0.1-0.2h0.7
				c0.1,0,0.1,0,0.1,0.1c0,0.1,0,0.2,0,0.3c0,0.1,0,0.3,0,0.4c0,0.1,0,0.3,0,0.4v0.3v4.2c0,0.1,0,0.1-0.1,0.1H70.7z M74.6,217.9
				c-0.1,0-0.1,0-0.1-0.1V214c0-0.4-0.1-0.7-0.2-0.9c-0.2-0.2-0.4-0.3-0.7-0.3c-0.3,0-0.6,0.1-0.9,0.3c-0.3,0.2-0.7,0.5-1.1,0.9
				l0-0.9c0.3-0.3,0.5-0.5,0.8-0.7c0.2-0.2,0.5-0.3,0.7-0.4s0.5-0.1,0.8-0.1c0.6,0,1,0.2,1.3,0.5c0.3,0.3,0.5,0.8,0.5,1.5v3.9
				c0,0.1,0,0.1-0.1,0.1H74.6z"/>
			<path class="st4" d="M79.5,218.1c-0.8,0-1.4-0.2-1.8-0.5c-0.4-0.4-0.6-0.9-0.6-1.6v-1.7c0-0.8,0.2-1.3,0.6-1.7
				c0.4-0.4,1-0.6,1.8-0.6c0.8,0,1.4,0.2,1.8,0.6c0.4,0.4,0.6,1,0.6,1.7v0.9c0,0.1,0,0.1-0.1,0.1h-3.6v0.4c0,0.5,0.1,0.9,0.3,1.2
				s0.6,0.4,1.1,0.4c0.4,0,0.7-0.1,0.9-0.2s0.3-0.3,0.3-0.5c0-0.1,0-0.1,0.1-0.1h0.8c0.1,0,0.1,0,0.1,0.1c0,0.5-0.2,0.9-0.6,1.2
				S80.2,218.1,79.5,218.1z M78.1,214.4h2.7v-0.1c0-0.5-0.1-0.9-0.3-1.1c-0.2-0.2-0.6-0.4-1-0.4c-0.5,0-0.8,0.1-1,0.4
				C78.2,213.4,78.1,213.8,78.1,214.4L78.1,214.4z"/>
			<path class="st4" d="M87.6,218.1c-0.6,0-1-0.2-1.3-0.6c-0.3-0.4-0.4-0.9-0.4-1.7v-1.5c0-0.8,0.2-1.4,0.6-1.8
				c0.4-0.4,0.9-0.6,1.6-0.6c0.3,0,0.6,0,1,0.1c0.3,0.1,0.6,0.2,0.8,0.3l0.1,0.9c-0.3-0.1-0.5-0.2-0.8-0.3c-0.3-0.1-0.6-0.1-0.8-0.1
				c-0.4,0-0.8,0.1-1,0.4c-0.2,0.3-0.3,0.7-0.3,1.2v1.4c0,0.4,0.1,0.7,0.2,1s0.4,0.3,0.7,0.3c0.2,0,0.4,0,0.6-0.1
				c0.2-0.1,0.4-0.2,0.6-0.4s0.5-0.4,0.8-0.7l0,0.9c-0.3,0.3-0.5,0.5-0.8,0.7c-0.2,0.2-0.5,0.3-0.7,0.4S87.9,218.1,87.6,218.1z
				 M90,217.9c-0.1,0-0.1,0-0.1-0.1c0-0.1,0-0.3-0.1-0.5c0-0.2,0-0.3,0-0.5l-0.1-0.5v-6.5c0-0.1,0-0.1,0.1-0.1h0.8
				c0.1,0,0.1,0,0.1,0.1v6.7c0,0.1,0,0.2,0,0.4s0,0.3,0,0.5c0,0.1,0,0.3,0,0.3c0,0.1,0,0.2-0.1,0.2H90z"/>
			<path class="st4" d="M94.8,218.1c-0.8,0-1.4-0.2-1.8-0.5c-0.4-0.4-0.6-0.9-0.6-1.6v-1.7c0-0.8,0.2-1.3,0.6-1.7
				c0.4-0.4,1-0.6,1.8-0.6c0.8,0,1.4,0.2,1.8,0.6c0.4,0.4,0.6,1,0.6,1.7v0.9c0,0.1,0,0.1-0.1,0.1h-3.6v0.4c0,0.5,0.1,0.9,0.3,1.2
				s0.6,0.4,1.1,0.4c0.4,0,0.7-0.1,0.9-0.2s0.3-0.3,0.3-0.5c0-0.1,0-0.1,0.1-0.1h0.8c0.1,0,0.1,0,0.1,0.1c0,0.5-0.2,0.9-0.6,1.2
				S95.5,218.1,94.8,218.1z M93.4,214.4h2.7v-0.1c0-0.5-0.1-0.9-0.3-1.1c-0.2-0.2-0.6-0.4-1-0.4c-0.5,0-0.8,0.1-1,0.4
				C93.5,213.4,93.4,213.8,93.4,214.4L93.4,214.4z"/>
			<path class="st4" d="M103.2,218.1c-0.7,0-1.3-0.2-1.6-0.5c-0.4-0.3-0.5-0.8-0.5-1.4c0-0.1,0-0.1,0.1-0.1h0.8c0.1,0,0.1,0,0.1,0.1
				c0,0.4,0.1,0.6,0.3,0.8c0.2,0.2,0.5,0.2,0.9,0.2c0.4,0,0.7-0.1,0.9-0.2c0.2-0.1,0.3-0.3,0.3-0.6c0-0.2-0.1-0.3-0.2-0.5
				c-0.1-0.1-0.3-0.2-0.5-0.3l-1.4-0.6c-0.4-0.2-0.8-0.4-0.9-0.6c-0.2-0.2-0.3-0.5-0.3-0.9c0-0.5,0.2-0.9,0.5-1.2
				c0.3-0.3,0.8-0.4,1.5-0.4c0.7,0,1.2,0.1,1.6,0.4c0.4,0.3,0.6,0.7,0.6,1.2c0,0.1,0,0.1-0.1,0.1h-0.8c-0.1,0-0.1-0.1-0.1-0.2
				c0-0.2-0.1-0.4-0.3-0.5c-0.2-0.1-0.5-0.2-0.8-0.2c-0.3,0-0.6,0.1-0.8,0.2c-0.2,0.1-0.3,0.3-0.3,0.5c0,0.2,0,0.3,0.1,0.4
				s0.3,0.2,0.6,0.3l1.4,0.6c0.4,0.2,0.7,0.4,0.9,0.6c0.2,0.2,0.3,0.5,0.3,0.9c0,0.6-0.2,1-0.6,1.3
				C104.4,217.9,103.9,218.1,103.2,218.1z"/>
			<path class="st4" d="M109.2,218.1c-0.8,0-1.4-0.2-1.8-0.6c-0.4-0.4-0.6-1-0.6-1.8v-1.4c0-0.8,0.2-1.4,0.6-1.8
				c0.4-0.4,1-0.6,1.8-0.6c0.8,0,1.4,0.2,1.8,0.6c0.4,0.4,0.6,1,0.6,1.8v1.4c0,0.8-0.2,1.4-0.6,1.8
				C110.6,217.9,110,218.1,109.2,218.1z M109.2,217.2c0.5,0,0.9-0.1,1.1-0.4c0.2-0.3,0.3-0.7,0.3-1.2v-1.2c0-0.5-0.1-0.9-0.3-1.2
				c-0.2-0.3-0.6-0.4-1.1-0.4c-0.5,0-0.9,0.1-1.1,0.4c-0.2,0.3-0.3,0.7-0.3,1.2v1.2c0,0.5,0.1,0.9,0.3,1.2
				C108.3,217,108.7,217.2,109.2,217.2z"/>
			<path class="st4" d="M115.6,218.1c-0.8,0-1.4-0.2-1.8-0.6c-0.4-0.4-0.6-1-0.6-1.7v-1.5c0-0.8,0.2-1.3,0.6-1.7
				c0.4-0.4,1-0.6,1.8-0.6c0.5,0,0.9,0.1,1.2,0.2c0.3,0.1,0.6,0.3,0.8,0.6c0.2,0.3,0.3,0.6,0.3,0.9c0,0.2,0,0.3-0.1,0.3H117
				c-0.1,0-0.1-0.1-0.1-0.2c0-0.3-0.1-0.5-0.3-0.7c-0.2-0.2-0.5-0.2-0.9-0.2c-0.5,0-0.9,0.1-1.1,0.4s-0.4,0.6-0.4,1.2v1.3
				c0,0.5,0.1,0.9,0.4,1.1s0.6,0.4,1.1,0.4c0.4,0,0.7-0.1,0.9-0.3s0.3-0.4,0.3-0.6c0-0.1,0-0.2,0.1-0.2h0.8c0.1,0,0.1,0,0.1,0.1
				c0,0.6-0.2,1-0.6,1.4C116.9,217.9,116.3,218.1,115.6,218.1z"/>
			<path class="st4" d="M120,211.1c-0.2,0-0.4-0.1-0.5-0.2c-0.1-0.1-0.2-0.3-0.2-0.5v-0.1c0-0.2,0.1-0.3,0.2-0.5
				c0.1-0.1,0.3-0.2,0.5-0.2c0.2,0,0.4,0.1,0.5,0.2c0.1,0.1,0.2,0.3,0.2,0.5v0.1c0,0.2-0.1,0.3-0.2,0.5
				C120.4,211,120.2,211.1,120,211.1z M119.6,217.9c-0.1,0-0.1,0-0.1-0.1v-5.6c0-0.1,0-0.1,0.1-0.1h0.8c0.1,0,0.1,0,0.1,0.1v5.6
				c0,0.1,0,0.1-0.1,0.1H119.6z"/>
			<path class="st4" d="M123.4,218.1c-0.5,0-0.8-0.1-1.1-0.4c-0.2-0.3-0.4-0.7-0.4-1.2c0-0.4,0.1-0.8,0.2-1c0.2-0.3,0.4-0.5,0.8-0.6
				c0.4-0.1,0.9-0.2,1.5-0.3l1.1-0.1v0.8l-1.2,0.1c-0.6,0-0.9,0.1-1.1,0.3c-0.2,0.2-0.3,0.4-0.3,0.8c0,0.3,0.1,0.5,0.2,0.6
				s0.3,0.2,0.5,0.2c0.3,0,0.5-0.1,0.8-0.3c0.3-0.2,0.7-0.5,1.1-1v0.9c-0.3,0.3-0.5,0.5-0.8,0.7c-0.2,0.2-0.5,0.3-0.7,0.4
				C123.9,218,123.7,218.1,123.4,218.1z M125.7,217.9C125.7,217.9,125.6,217.9,125.7,217.9c-0.1-0.1-0.1-0.1-0.1-0.2
				c0-0.1,0-0.2-0.1-0.4s0-0.4-0.1-0.6l0-0.5v-2.4c0-0.4-0.1-0.7-0.2-0.9s-0.4-0.3-0.8-0.3c-0.7,0-1.1,0.2-1.1,0.7
				c0,0.1,0,0.1-0.1,0.1h-0.8c-0.1,0-0.1-0.1-0.1-0.2c0-0.5,0.1-0.8,0.5-1.1c0.4-0.3,0.9-0.4,1.6-0.4c0.7,0,1.2,0.2,1.6,0.5
				s0.5,0.8,0.5,1.5v2.6c0,0.3,0,0.5,0,0.8c0,0.2,0,0.4,0.1,0.6c0,0.1,0,0.1-0.1,0.1H125.7z"/>
			<path class="st4" d="M130.5,218.1c-0.3,0-0.5,0-0.7,0s-0.5-0.1-0.7-0.1s-0.5-0.1-0.9-0.1v-8c0-0.1,0-0.1,0.1-0.1h0.8
				c0.1,0,0.1,0,0.1,0.1v7.2c0.2,0,0.4,0.1,0.6,0.1c0.2,0,0.4,0,0.6,0c0.5,0,0.9-0.1,1.2-0.4c0.3-0.3,0.4-0.7,0.4-1.2v-1.3
				c0-0.5-0.1-0.8-0.2-1.1c-0.2-0.2-0.4-0.3-0.7-0.3c-0.3,0-0.6,0.1-0.9,0.2s-0.7,0.4-1.1,0.9l0-1c0.4-0.4,0.7-0.6,1.1-0.8
				c0.3-0.2,0.7-0.2,1.1-0.2c0.6,0,1,0.2,1.3,0.6c0.3,0.4,0.5,0.9,0.5,1.7v1.5c0,0.8-0.2,1.4-0.6,1.8
				C132,217.9,131.4,218.1,130.5,218.1z"/>
			<path class="st4" d="M135.2,211.1c-0.2,0-0.4-0.1-0.5-0.2c-0.1-0.1-0.2-0.3-0.2-0.5v-0.1c0-0.2,0.1-0.3,0.2-0.5
				c0.1-0.1,0.3-0.2,0.5-0.2c0.2,0,0.4,0.1,0.5,0.2c0.1,0.1,0.2,0.3,0.2,0.5v0.1c0,0.2-0.1,0.3-0.2,0.5
				C135.6,211,135.4,211.1,135.2,211.1z M134.8,217.9c-0.1,0-0.1,0-0.1-0.1v-5.6c0-0.1,0-0.1,0.1-0.1h0.8c0.1,0,0.1,0,0.1,0.1v5.6
				c0,0.1,0,0.1-0.1,0.1H134.8z"/>
		</g>
		<g class="st3">
			<path class="st4" d="M137.6,217.9c-0.1,0-0.1,0-0.1-0.1v-8c0-0.1,0-0.1,0.1-0.1h0.8c0.1,0,0.1,0,0.1,0.1v8c0,0.1,0,0.1-0.1,0.1
				H137.6z"/>
		</g>
		<g class="st3">
			<path class="st4" d="M141.2,211.1c-0.2,0-0.4-0.1-0.5-0.2c-0.1-0.1-0.2-0.3-0.2-0.5v-0.1c0-0.2,0.1-0.3,0.2-0.5
				c0.1-0.1,0.3-0.2,0.5-0.2c0.2,0,0.4,0.1,0.5,0.2c0.1,0.1,0.2,0.3,0.2,0.5v0.1c0,0.2-0.1,0.3-0.2,0.5
				C141.6,211,141.4,211.1,141.2,211.1z M140.8,217.9c-0.1,0-0.1,0-0.1-0.1v-5.6c0-0.1,0-0.1,0.1-0.1h0.8c0.1,0,0.1,0,0.1,0.1v5.6
				c0,0.1,0,0.1-0.1,0.1H140.8z"/>
		</g>
		<g class="st3">
			<path class="st4" d="M145.4,218.1c-0.7,0-1.3-0.2-1.6-0.5c-0.4-0.3-0.5-0.8-0.5-1.4c0-0.1,0-0.1,0.1-0.1h0.8c0.1,0,0.1,0,0.1,0.1
				c0,0.4,0.1,0.6,0.3,0.8c0.2,0.2,0.5,0.2,0.9,0.2c0.4,0,0.7-0.1,0.9-0.2c0.2-0.1,0.3-0.3,0.3-0.6c0-0.2-0.1-0.3-0.2-0.5
				c-0.1-0.1-0.3-0.2-0.5-0.3l-1.4-0.6c-0.4-0.2-0.8-0.4-0.9-0.6c-0.2-0.2-0.3-0.5-0.3-0.9c0-0.5,0.2-0.9,0.5-1.2
				c0.3-0.3,0.8-0.4,1.5-0.4c0.7,0,1.2,0.1,1.6,0.4c0.4,0.3,0.6,0.7,0.6,1.2c0,0.1,0,0.1-0.1,0.1h-0.8c-0.1,0-0.1-0.1-0.1-0.2
				c0-0.2-0.1-0.4-0.3-0.5c-0.2-0.1-0.5-0.2-0.8-0.2c-0.3,0-0.6,0.1-0.8,0.2c-0.2,0.1-0.3,0.3-0.3,0.5c0,0.2,0,0.3,0.1,0.4
				s0.3,0.2,0.6,0.3l1.4,0.6c0.4,0.2,0.7,0.4,0.9,0.6c0.2,0.2,0.3,0.5,0.3,0.9c0,0.6-0.2,1-0.6,1.3
				C146.6,217.9,146.1,218.1,145.4,218.1z"/>
		</g>
		<g class="st3">
			<path class="st4" d="M150.1,218.1c-0.5,0-0.8-0.1-1.1-0.4c-0.2-0.3-0.4-0.7-0.4-1.2c0-0.4,0.1-0.8,0.2-1c0.2-0.3,0.4-0.5,0.8-0.6
				c0.4-0.1,0.9-0.2,1.5-0.3l1.1-0.1v0.8l-1.2,0.1c-0.6,0-0.9,0.1-1.1,0.3c-0.2,0.2-0.3,0.4-0.3,0.8c0,0.3,0.1,0.5,0.2,0.6
				s0.3,0.2,0.5,0.2c0.3,0,0.5-0.1,0.8-0.3c0.3-0.2,0.7-0.5,1.1-1v0.9c-0.3,0.3-0.5,0.5-0.8,0.7c-0.2,0.2-0.5,0.3-0.7,0.4
				C150.6,218,150.4,218.1,150.1,218.1z M152.4,217.9C152.4,217.9,152.3,217.9,152.4,217.9c-0.1-0.1-0.1-0.1-0.1-0.2
				c0-0.1,0-0.2-0.1-0.4s0-0.4-0.1-0.6l0-0.5v-2.4c0-0.4-0.1-0.7-0.2-0.9s-0.4-0.3-0.8-0.3c-0.7,0-1.1,0.2-1.1,0.7
				c0,0.1,0,0.1-0.1,0.1h-0.8c-0.1,0-0.1-0.1-0.1-0.2c0-0.5,0.1-0.8,0.5-1.1c0.4-0.3,0.9-0.4,1.6-0.4c0.7,0,1.2,0.2,1.6,0.5
				s0.5,0.8,0.5,1.5v2.6c0,0.3,0,0.5,0,0.8c0,0.2,0,0.4,0.1,0.6c0,0.1,0,0.1-0.1,0.1H152.4z"/>
			<path class="st4" d="M157,218.1c-0.4,0-0.7-0.1-1-0.2c-0.2-0.1-0.4-0.3-0.5-0.6c-0.1-0.3-0.2-0.6-0.2-1v-3.2h-0.9
				c-0.1,0-0.1,0-0.1-0.1v-0.6c0-0.1,0-0.1,0.1-0.1h0.9l0.1-1.4c0-0.1,0.1-0.1,0.1-0.1h0.6c0.1,0,0.1,0,0.1,0.1l0,1.4h1.8
				c0.1,0,0.1,0,0.1,0.1v0.6c0,0.1,0,0.1-0.1,0.1h-1.8v3.2c0,0.4,0.1,0.6,0.2,0.8c0.1,0.2,0.4,0.2,0.7,0.2c0.2,0,0.3,0,0.5-0.1
				c0.2,0,0.3-0.1,0.4-0.1c0.1,0,0.1,0,0.1,0.1v0.7c0,0.1,0,0.1-0.1,0.1c-0.1,0.1-0.3,0.1-0.5,0.1C157.5,218,157.3,218.1,157,218.1z
				"/>
			<path class="st4" d="M160.1,211.1c-0.2,0-0.4-0.1-0.5-0.2c-0.1-0.1-0.2-0.3-0.2-0.5v-0.1c0-0.2,0.1-0.3,0.2-0.5
				c0.1-0.1,0.3-0.2,0.5-0.2c0.2,0,0.4,0.1,0.5,0.2c0.1,0.1,0.2,0.3,0.2,0.5v0.1c0,0.2-0.1,0.3-0.2,0.5
				C160.5,211,160.3,211.1,160.1,211.1z M159.7,217.9c-0.1,0-0.1,0-0.1-0.1v-5.6c0-0.1,0-0.1,0.1-0.1h0.8c0.1,0,0.1,0,0.1,0.1v5.6
				c0,0.1,0,0.1-0.1,0.1H159.7z"/>
			<path class="st4" d="M164.7,218.1c-0.8,0-1.4-0.2-1.8-0.6c-0.4-0.4-0.6-1-0.6-1.8v-1.4c0-0.8,0.2-1.4,0.6-1.8
				c0.4-0.4,1-0.6,1.8-0.6c0.8,0,1.4,0.2,1.8,0.6c0.4,0.4,0.6,1,0.6,1.8v1.4c0,0.8-0.2,1.4-0.6,1.8
				C166.1,217.9,165.5,218.1,164.7,218.1z M164.7,217.2c0.5,0,0.9-0.1,1.1-0.4c0.2-0.3,0.3-0.7,0.3-1.2v-1.2c0-0.5-0.1-0.9-0.3-1.2
				c-0.2-0.3-0.6-0.4-1.1-0.4c-0.5,0-0.9,0.1-1.1,0.4c-0.2,0.3-0.3,0.7-0.3,1.2v1.2c0,0.5,0.1,0.9,0.3,1.2
				C163.8,217,164.2,217.2,164.7,217.2z"/>
			<path class="st4" d="M168.9,217.9c-0.1,0-0.1,0-0.1-0.1v-4.3c0-0.2,0-0.4,0-0.7c0-0.3,0-0.5-0.1-0.6c0-0.1,0-0.2,0.1-0.2h0.7
				c0.1,0,0.1,0,0.1,0.1c0,0.1,0,0.2,0,0.3c0,0.1,0,0.3,0,0.4c0,0.1,0,0.3,0,0.4v0.3v4.2c0,0.1,0,0.1-0.1,0.1H168.9z M172.8,217.9
				c-0.1,0-0.1,0-0.1-0.1V214c0-0.4-0.1-0.7-0.2-0.9c-0.2-0.2-0.4-0.3-0.7-0.3c-0.3,0-0.6,0.1-0.9,0.3c-0.3,0.2-0.7,0.5-1.1,0.9
				l0-0.9c0.3-0.3,0.5-0.5,0.8-0.7c0.2-0.2,0.5-0.3,0.7-0.4s0.5-0.1,0.8-0.1c0.6,0,1,0.2,1.3,0.5c0.3,0.3,0.5,0.8,0.5,1.5v3.9
				c0,0.1,0,0.1-0.1,0.1H172.8z"/>
		</g>
	</g>
</g>
<g>
	<path class="st1" d="M38.4,182.9c3.4,0,6.2,2.8,6.2,6.2c0,3.4-2.8,6.2-6.2,6.2s-6.2-2.8-6.2-6.2S35,182.9,38.4,182.9 M38.4,179.9
		c-5.1,0-9.2,4.1-9.2,9.2c0,5.1,4.1,9.2,9.2,9.2s9.2-4.1,9.2-9.2C47.6,184,43.5,179.9,38.4,179.9L38.4,179.9z"/>
	<g>
		<g class="st3">
			<path class="st4" d="M57,192.6c-0.1,0-0.1,0-0.1-0.1v0c0,0,0-0.1,0-0.2l3.6-5.5c0.1-0.2,0.3-0.4,0.4-0.6s0.3-0.4,0.4-0.6v0
				c-0.2,0-0.5,0-0.7,0s-0.5,0-0.7,0h-2.5c-0.1,0-0.1,0-0.1-0.1v-0.7c0-0.1,0-0.1,0.1-0.1h5.4c0.1,0,0.1,0,0.1,0.1v0
				c0,0,0,0.1,0,0.2l-3.5,5.3c-0.1,0.2-0.3,0.4-0.4,0.7c-0.1,0.2-0.3,0.4-0.4,0.6v0c0.3,0,0.5,0,0.8,0c0.3,0,0.5,0,0.8,0h2.5
				c0.1,0,0.1,0,0.1,0.1v0.7c0,0.1,0,0.1-0.1,0.1H57z"/>
		</g>
		<g class="st3">
			<path class="st4" d="M66.1,192.7c-0.8,0-1.4-0.2-1.8-0.6c-0.4-0.4-0.6-1-0.6-1.8V189c0-0.8,0.2-1.4,0.6-1.8
				c0.4-0.4,1-0.6,1.8-0.6c0.8,0,1.4,0.2,1.8,0.6c0.4,0.4,0.6,1,0.6,1.8v1.4c0,0.8-0.2,1.4-0.6,1.8
				C67.5,192.5,66.9,192.7,66.1,192.7z M66.1,191.8c0.5,0,0.9-0.1,1.1-0.4c0.2-0.3,0.3-0.7,0.3-1.2v-1.2c0-0.5-0.1-0.9-0.3-1.2
				c-0.2-0.3-0.6-0.4-1.1-0.4s-0.9,0.1-1.1,0.4c-0.2,0.3-0.3,0.7-0.3,1.2v1.2c0,0.5,0.1,0.9,0.3,1.2
				C65.2,191.7,65.6,191.8,66.1,191.8z"/>
			<path class="st4" d="M70.3,192.6c-0.1,0-0.1,0-0.1-0.1v-4.3c0-0.2,0-0.4,0-0.7s0-0.5-0.1-0.6c0-0.1,0-0.2,0.1-0.2H71
				c0.1,0,0.1,0,0.1,0.1c0,0.1,0,0.2,0,0.3c0,0.1,0,0.3,0,0.4c0,0.1,0,0.3,0,0.4v0.3v4.2c0,0.1,0,0.1-0.1,0.1H70.3z M74.2,192.6
				c-0.1,0-0.1,0-0.1-0.1v-3.8c0-0.4-0.1-0.7-0.2-0.9c-0.2-0.2-0.4-0.3-0.7-0.3c-0.3,0-0.6,0.1-0.9,0.3c-0.3,0.2-0.7,0.5-1.1,0.9
				l0-0.9c0.3-0.3,0.5-0.5,0.8-0.7s0.5-0.3,0.7-0.4c0.2-0.1,0.5-0.1,0.8-0.1c0.6,0,1,0.2,1.3,0.5c0.3,0.3,0.5,0.8,0.5,1.5v3.9
				c0,0.1,0,0.1-0.1,0.1H74.2z"/>
			<path class="st4" d="M79.1,192.7c-0.8,0-1.4-0.2-1.8-0.5c-0.4-0.4-0.6-0.9-0.6-1.6v-1.7c0-0.8,0.2-1.3,0.6-1.7
				c0.4-0.4,1-0.6,1.8-0.6c0.8,0,1.4,0.2,1.8,0.6c0.4,0.4,0.6,1,0.6,1.7v0.9c0,0.1,0,0.1-0.1,0.1h-3.6v0.4c0,0.5,0.1,0.9,0.3,1.2
				c0.2,0.2,0.6,0.4,1.1,0.4c0.4,0,0.7-0.1,0.9-0.2s0.3-0.3,0.3-0.5c0-0.1,0-0.1,0.1-0.1h0.8c0.1,0,0.1,0,0.1,0.1
				c0,0.5-0.2,0.9-0.6,1.2C80.4,192.6,79.8,192.7,79.1,192.7z M77.8,189h2.7V189c0-0.5-0.1-0.9-0.3-1.1c-0.2-0.2-0.6-0.4-1-0.4
				c-0.5,0-0.8,0.1-1,0.4C77.9,188.1,77.8,188.5,77.8,189L77.8,189z"/>
			<path class="st4" d="M87.2,192.7c-0.6,0-1-0.2-1.3-0.6s-0.5-0.9-0.5-1.7V189c0-0.8,0.2-1.4,0.6-1.8c0.4-0.4,0.9-0.6,1.6-0.6
				c0.3,0,0.6,0,1,0.1s0.6,0.2,0.8,0.3l0.1,0.9c-0.3-0.1-0.5-0.2-0.8-0.3s-0.6-0.1-0.8-0.1c-0.4,0-0.8,0.1-1,0.4
				c-0.2,0.3-0.3,0.7-0.3,1.2v1.4c0,0.4,0.1,0.7,0.2,1c0.2,0.2,0.4,0.3,0.7,0.3c0.2,0,0.4,0,0.6-0.1c0.2-0.1,0.4-0.2,0.6-0.4
				c0.2-0.2,0.5-0.4,0.8-0.7l0,0.9c-0.3,0.3-0.5,0.5-0.8,0.7s-0.5,0.3-0.7,0.4C87.8,192.7,87.5,192.7,87.2,192.7z M89.6,192.6
				c-0.1,0-0.1,0-0.1-0.1c0-0.1,0-0.3-0.1-0.5c0-0.2,0-0.3,0-0.5l-0.1-0.5v-6.5c0-0.1,0-0.1,0.1-0.1h0.8c0.1,0,0.1,0,0.1,0.1v6.7
				c0,0.1,0,0.2,0,0.4c0,0.2,0,0.3,0,0.5c0,0.1,0,0.3,0,0.3c0,0.1,0,0.2-0.1,0.2H89.6z"/>
			<path class="st4" d="M94.4,192.7c-0.8,0-1.4-0.2-1.8-0.5c-0.4-0.4-0.6-0.9-0.6-1.6v-1.7c0-0.8,0.2-1.3,0.6-1.7
				c0.4-0.4,1-0.6,1.8-0.6c0.8,0,1.4,0.2,1.8,0.6c0.4,0.4,0.6,1,0.6,1.7v0.9c0,0.1,0,0.1-0.1,0.1H93v0.4c0,0.5,0.1,0.9,0.3,1.2
				c0.2,0.2,0.6,0.4,1.1,0.4c0.4,0,0.7-0.1,0.9-0.2s0.3-0.3,0.3-0.5c0-0.1,0-0.1,0.1-0.1h0.8c0.1,0,0.1,0,0.1,0.1
				c0,0.5-0.2,0.9-0.6,1.2C95.7,192.6,95.1,192.7,94.4,192.7z M93,189h2.7V189c0-0.5-0.1-0.9-0.3-1.1c-0.2-0.2-0.6-0.4-1-0.4
				c-0.5,0-0.8,0.1-1,0.4C93.1,188.1,93,188.5,93,189L93,189z"/>
			<path class="st4" d="M103.2,192.7c-0.8,0-1.4-0.2-1.8-0.6c-0.4-0.4-0.6-1-0.6-1.7v-1.5c0-0.8,0.2-1.3,0.6-1.7
				c0.4-0.4,1-0.6,1.8-0.6c0.5,0,0.9,0.1,1.2,0.2c0.3,0.1,0.6,0.3,0.8,0.6c0.2,0.3,0.3,0.6,0.3,0.9c0,0.2,0,0.3-0.1,0.3h-0.8
				c-0.1,0-0.1-0.1-0.1-0.2c0-0.3-0.1-0.5-0.3-0.7c-0.2-0.2-0.5-0.2-0.9-0.2c-0.5,0-0.9,0.1-1.1,0.4s-0.4,0.6-0.4,1.2v1.3
				c0,0.5,0.1,0.9,0.4,1.1s0.6,0.4,1.1,0.4c0.4,0,0.7-0.1,0.9-0.3s0.3-0.4,0.3-0.6c0-0.1,0-0.2,0.1-0.2h0.8c0.1,0,0.1,0,0.1,0.1
				c0,0.6-0.2,1-0.6,1.4C104.5,192.6,103.9,192.7,103.2,192.7z"/>
			<path class="st4" d="M107.2,192.6c-0.1,0-0.1,0-0.1-0.1v-8c0-0.1,0-0.1,0.1-0.1h0.8c0.1,0,0.1,0,0.1,0.1v8c0,0.1,0,0.1-0.1,0.1
				H107.2z M111.1,192.6c-0.1,0-0.1,0-0.1-0.1v-3.8c0-0.4-0.1-0.7-0.2-0.9c-0.2-0.2-0.4-0.3-0.7-0.3c-0.3,0-0.6,0.1-1,0.3
				c-0.3,0.2-0.7,0.5-1.1,0.9l0-0.9c0.3-0.3,0.5-0.5,0.8-0.7c0.2-0.2,0.5-0.3,0.7-0.4s0.5-0.1,0.8-0.1c0.6,0,1,0.2,1.3,0.5
				s0.5,0.8,0.5,1.5v3.9c0,0.1,0,0.1-0.1,0.1H111.1z"/>
			<path class="st4" d="M114.9,192.7c-0.5,0-0.8-0.1-1.1-0.4c-0.2-0.3-0.4-0.7-0.4-1.2c0-0.4,0.1-0.8,0.2-1c0.2-0.3,0.4-0.5,0.8-0.6
				c0.4-0.1,0.8-0.2,1.5-0.3l1.1-0.1v0.8l-1.2,0.1c-0.6,0-0.9,0.1-1.1,0.3s-0.3,0.4-0.3,0.8c0,0.3,0.1,0.5,0.2,0.6
				c0.1,0.1,0.3,0.2,0.5,0.2c0.3,0,0.5-0.1,0.8-0.3c0.3-0.2,0.7-0.5,1.1-1v0.9c-0.3,0.3-0.5,0.5-0.8,0.7c-0.2,0.2-0.5,0.3-0.7,0.4
				C115.4,192.7,115.1,192.7,114.9,192.7z M117.2,192.6C117.1,192.6,117.1,192.6,117.2,192.6c-0.1-0.1-0.1-0.1-0.1-0.2
				c0-0.1,0-0.2-0.1-0.4c0-0.2,0-0.4-0.1-0.6l0-0.5v-2.4c0-0.4-0.1-0.7-0.2-0.9c-0.2-0.2-0.4-0.3-0.8-0.3c-0.7,0-1.1,0.2-1.1,0.7
				c0,0.1,0,0.1-0.1,0.1h-0.8c-0.1,0-0.1-0.1-0.1-0.2c0-0.5,0.1-0.8,0.5-1.1c0.4-0.3,0.9-0.4,1.6-0.4c0.7,0,1.2,0.2,1.6,0.5
				c0.3,0.3,0.5,0.8,0.5,1.5v2.6c0,0.3,0,0.5,0,0.8c0,0.2,0,0.4,0.1,0.6c0,0.1,0,0.1-0.1,0.1H117.2z"/>
		</g>
		<g class="st3">
			<path class="st4" d="M121.6,192.7c-0.7,0-1.3-0.2-1.6-0.5c-0.4-0.3-0.5-0.8-0.5-1.4c0-0.1,0-0.1,0.1-0.1h0.8c0.1,0,0.1,0,0.1,0.1
				c0,0.4,0.1,0.6,0.3,0.8c0.2,0.2,0.5,0.2,0.9,0.2c0.4,0,0.7-0.1,0.9-0.2c0.2-0.1,0.3-0.3,0.3-0.6c0-0.2-0.1-0.3-0.2-0.5
				c-0.1-0.1-0.3-0.2-0.5-0.3l-1.4-0.6c-0.4-0.2-0.8-0.4-0.9-0.6c-0.2-0.2-0.3-0.5-0.3-0.9c0-0.5,0.2-0.9,0.5-1.2
				c0.3-0.3,0.8-0.4,1.5-0.4c0.7,0,1.2,0.1,1.6,0.4c0.4,0.3,0.6,0.7,0.6,1.2c0,0.1,0,0.1-0.1,0.1h-0.8c-0.1,0-0.1-0.1-0.1-0.2
				c0-0.2-0.1-0.4-0.3-0.5c-0.2-0.1-0.5-0.2-0.8-0.2c-0.3,0-0.6,0.1-0.8,0.2c-0.2,0.1-0.3,0.3-0.3,0.5c0,0.2,0,0.3,0.1,0.4
				s0.3,0.2,0.6,0.3l1.4,0.6c0.4,0.2,0.7,0.4,0.9,0.6c0.2,0.2,0.3,0.5,0.3,0.9c0,0.6-0.2,1-0.6,1.3
				C122.9,192.6,122.3,192.7,121.6,192.7z"/>
		</g>
		<g class="st3">
			<path class="st4" d="M127,192.7c-0.7,0-1.3-0.2-1.6-0.5c-0.4-0.3-0.5-0.8-0.5-1.4c0-0.1,0-0.1,0.1-0.1h0.8c0.1,0,0.1,0,0.1,0.1
				c0,0.4,0.1,0.6,0.3,0.8c0.2,0.2,0.5,0.2,0.9,0.2c0.4,0,0.7-0.1,0.9-0.2c0.2-0.1,0.3-0.3,0.3-0.6c0-0.2-0.1-0.3-0.2-0.5
				c-0.1-0.1-0.3-0.2-0.5-0.3l-1.4-0.6c-0.4-0.2-0.8-0.4-0.9-0.6c-0.2-0.2-0.3-0.5-0.3-0.9c0-0.5,0.2-0.9,0.5-1.2
				c0.3-0.3,0.8-0.4,1.5-0.4c0.7,0,1.2,0.1,1.6,0.4c0.4,0.3,0.6,0.7,0.6,1.2c0,0.1,0,0.1-0.1,0.1h-0.8c-0.1,0-0.1-0.1-0.1-0.2
				c0-0.2-0.1-0.4-0.3-0.5c-0.2-0.1-0.5-0.2-0.8-0.2c-0.3,0-0.6,0.1-0.8,0.2c-0.2,0.1-0.3,0.3-0.3,0.5c0,0.2,0,0.3,0.1,0.4
				s0.3,0.2,0.6,0.3l1.4,0.6c0.4,0.2,0.7,0.4,0.9,0.6c0.2,0.2,0.3,0.5,0.3,0.9c0,0.6-0.2,1-0.6,1.3
				C128.2,192.6,127.7,192.7,127,192.7z"/>
			<path class="st4" d="M132.9,192.7c-0.8,0-1.4-0.2-1.8-0.5c-0.4-0.4-0.6-0.9-0.6-1.6v-1.7c0-0.8,0.2-1.3,0.6-1.7
				c0.4-0.4,1-0.6,1.8-0.6c0.8,0,1.4,0.2,1.8,0.6c0.4,0.4,0.6,1,0.6,1.7v0.9c0,0.1,0,0.1-0.1,0.1h-3.6v0.4c0,0.5,0.1,0.9,0.3,1.2
				c0.2,0.2,0.6,0.4,1.1,0.4c0.4,0,0.7-0.1,0.9-0.2s0.3-0.3,0.3-0.5c0-0.1,0-0.1,0.1-0.1h0.8c0.1,0,0.1,0,0.1,0.1
				c0,0.5-0.2,0.9-0.6,1.2C134.2,192.6,133.6,192.7,132.9,192.7z M131.5,189h2.7V189c0-0.5-0.1-0.9-0.3-1.1c-0.2-0.2-0.6-0.4-1-0.4
				c-0.5,0-0.8,0.1-1,0.4C131.6,188.1,131.5,188.5,131.5,189L131.5,189z"/>
			<path class="st4" d="M140.5,194.3c-0.3-0.2-0.5-0.5-0.7-0.7c-0.2-0.2-0.3-0.5-0.3-0.7c-0.1-0.3-0.1-0.6-0.1-0.9v-5.4
				c0-0.4,0-0.7,0.1-0.9c0.1-0.2,0.2-0.5,0.4-0.7c0.2-0.2,0.4-0.5,0.6-0.7c0,0,0.1,0,0.1,0c0,0,0.1,0,0.1,0l0.5,0.5
				c0.1,0.1,0.1,0.1,0,0.2c-0.2,0.2-0.3,0.4-0.4,0.5c-0.1,0.1-0.2,0.3-0.2,0.5s-0.1,0.4-0.1,0.7v5.4c0,0.3,0,0.5,0.1,0.7
				c0.1,0.2,0.1,0.3,0.3,0.5c0.1,0.1,0.3,0.3,0.4,0.5c0,0.1,0,0.1,0,0.2l-0.5,0.5C140.7,194.3,140.6,194.3,140.5,194.3
				C140.6,194.3,140.5,194.3,140.5,194.3z"/>
			<path class="st4" d="M142.8,192.6c-0.1,0-0.1,0-0.1-0.1v-4.3c0-0.2,0-0.4,0-0.7c0-0.3,0-0.5-0.1-0.6c0-0.1,0-0.2,0.1-0.2h0.7
				c0.1,0,0.1,0,0.1,0.1c0,0.1,0,0.2,0,0.3c0,0.1,0,0.3,0,0.4c0,0.1,0,0.3,0,0.4v0.3v4.2c0,0.1,0,0.1-0.1,0.1H142.8z M146.6,192.6
				c-0.1,0-0.1,0-0.1-0.1v-3.8c0-0.4-0.1-0.7-0.2-0.9c-0.2-0.2-0.4-0.3-0.7-0.3c-0.3,0-0.6,0.1-0.9,0.3c-0.3,0.2-0.7,0.5-1.1,0.9
				l0-0.9c0.3-0.3,0.5-0.5,0.8-0.7c0.2-0.2,0.5-0.3,0.7-0.4s0.5-0.1,0.8-0.1c0.6,0,1,0.2,1.3,0.5c0.3,0.3,0.5,0.8,0.5,1.5v3.9
				c0,0.1,0,0.1-0.1,0.1H146.6z"/>
			<path class="st4" d="M151.6,192.7c-0.8,0-1.4-0.2-1.8-0.6c-0.4-0.4-0.6-1-0.6-1.8V189c0-0.8,0.2-1.4,0.6-1.8
				c0.4-0.4,1-0.6,1.8-0.6c0.8,0,1.4,0.2,1.8,0.6c0.4,0.4,0.6,1,0.6,1.8v1.4c0,0.8-0.2,1.4-0.6,1.8
				C153.1,192.5,152.4,192.7,151.6,192.7z M151.6,191.8c0.5,0,0.9-0.1,1.1-0.4c0.2-0.3,0.3-0.7,0.3-1.2v-1.2c0-0.5-0.1-0.9-0.3-1.2
				c-0.2-0.3-0.6-0.4-1.1-0.4s-0.9,0.1-1.1,0.4c-0.2,0.3-0.3,0.7-0.3,1.2v1.2c0,0.5,0.1,0.9,0.3,1.2
				C150.7,191.7,151.1,191.8,151.6,191.8z"/>
			<path class="st4" d="M157.3,192.7c-0.5,0-0.9-0.2-1.2-0.5c-0.3-0.3-0.4-0.8-0.4-1.5v-3.9c0-0.1,0-0.1,0.1-0.1h0.8
				c0.1,0,0.1,0,0.1,0.1v3.8c0,0.4,0.1,0.7,0.2,0.9c0.1,0.2,0.4,0.3,0.7,0.3s0.6-0.1,0.9-0.3c0.3-0.2,0.7-0.5,1.1-1l0,0.9
				c-0.3,0.3-0.5,0.5-0.8,0.7c-0.3,0.2-0.5,0.3-0.8,0.4S157.6,192.7,157.3,192.7z M159.7,192.6c-0.1,0-0.1,0-0.1-0.1
				c0-0.2,0-0.3-0.1-0.5c0-0.2,0-0.3,0-0.5l-0.1-0.5v-4.2c0-0.1,0-0.1,0.1-0.1h0.8c0.1,0,0.1,0,0.1,0.1v4.3c0,0.2,0,0.4,0,0.7
				s0,0.5,0.1,0.7c0,0.1,0,0.1-0.1,0.1H159.7z"/>
			<path class="st4" d="M162.4,192.6c-0.1,0-0.1,0-0.1-0.1v-4.3c0-0.2,0-0.4,0-0.7c0-0.2,0-0.4-0.1-0.6c0-0.1,0-0.1,0.1-0.1h0.7
				c0.1,0,0.1,0,0.1,0.1c0,0.2,0.1,0.3,0.1,0.5c0,0.2,0,0.4,0,0.5l0,0.6v4c0,0.1,0,0.1-0.1,0.1H162.4z M163.1,188.9l0-1
				c0.2-0.2,0.4-0.5,0.6-0.7c0.2-0.2,0.4-0.3,0.7-0.5c0.2-0.1,0.4-0.2,0.6-0.2c0.1,0,0.3,0,0.3,0c0.1,0,0.1,0.1,0.1,0.1
				c0,0.2,0,0.3,0,0.5c0,0.2,0,0.3,0,0.5c0,0.1-0.1,0.1-0.2,0.1c-0.1,0-0.1,0-0.2,0s-0.1,0-0.2,0c-0.2,0-0.4,0-0.6,0.1
				c-0.2,0.1-0.4,0.2-0.6,0.4C163.5,188.5,163.3,188.7,163.1,188.9z"/>
			<path class="st4" d="M166.6,192.6c-0.1,0-0.1,0-0.1-0.1v-4.3c0-0.2,0-0.4,0-0.7s0-0.4-0.1-0.6c0-0.1,0-0.1,0.1-0.1h0.7
				c0.1,0,0.1,0,0.1,0.1c0,0.2,0.1,0.3,0.1,0.5c0,0.2,0,0.4,0,0.5l0,0.6v4c0,0.1,0,0.1-0.1,0.1H166.6z M167.4,188.9l0-1
				c0.2-0.2,0.4-0.5,0.6-0.7s0.4-0.3,0.7-0.5c0.2-0.1,0.4-0.2,0.6-0.2c0.1,0,0.3,0,0.3,0c0.1,0,0.1,0.1,0.1,0.1c0,0.2,0,0.3,0,0.5
				s0,0.3,0,0.5c0,0.1-0.1,0.1-0.2,0.1c-0.1,0-0.1,0-0.2,0c-0.1,0-0.1,0-0.2,0c-0.2,0-0.4,0-0.6,0.1c-0.2,0.1-0.4,0.2-0.6,0.4
				C167.7,188.5,167.6,188.7,167.4,188.9z"/>
			<path class="st4" d="M171.3,185.8c-0.2,0-0.4-0.1-0.5-0.2c-0.1-0.1-0.2-0.3-0.2-0.5V185c0-0.2,0.1-0.3,0.2-0.5
				c0.1-0.1,0.3-0.2,0.5-0.2c0.2,0,0.4,0.1,0.5,0.2c0.1,0.1,0.2,0.3,0.2,0.5v0.1c0,0.2-0.1,0.3-0.2,0.5
				C171.7,185.7,171.5,185.8,171.3,185.8z M170.9,192.6c-0.1,0-0.1,0-0.1-0.1v-5.6c0-0.1,0-0.1,0.1-0.1h0.8c0.1,0,0.1,0,0.1,0.1v5.6
				c0,0.1,0,0.1-0.1,0.1H170.9z"/>
			<path class="st4" d="M175.7,192.7c-0.4,0-0.7-0.1-1-0.2c-0.2-0.1-0.4-0.3-0.5-0.6c-0.1-0.3-0.2-0.6-0.2-1v-3.2h-0.9
				c-0.1,0-0.1,0-0.1-0.1v-0.6c0-0.1,0-0.1,0.1-0.1h0.9l0.1-1.4c0-0.1,0.1-0.1,0.1-0.1h0.6c0.1,0,0.1,0,0.1,0.1l0,1.4h1.8
				c0.1,0,0.1,0,0.1,0.1v0.6c0,0.1,0,0.1-0.1,0.1H175v3.2c0,0.4,0.1,0.6,0.2,0.8c0.1,0.2,0.4,0.2,0.7,0.2c0.2,0,0.3,0,0.5-0.1
				s0.3-0.1,0.4-0.1c0.1,0,0.1,0,0.1,0.1v0.7c0,0.1,0,0.1-0.1,0.1c-0.1,0.1-0.3,0.1-0.5,0.1C176.1,192.7,175.9,192.7,175.7,192.7z"
				/>
			<path class="st4" d="M179.8,192.7c-0.5,0-0.9-0.2-1.2-0.5c-0.3-0.3-0.4-0.8-0.4-1.5v-3.9c0-0.1,0-0.1,0.1-0.1h0.8
				c0.1,0,0.1,0,0.1,0.1v3.8c0,0.4,0.1,0.7,0.2,0.9c0.1,0.2,0.4,0.3,0.7,0.3s0.6-0.1,0.9-0.3c0.3-0.2,0.7-0.5,1.1-1l0,0.9
				c-0.3,0.3-0.5,0.5-0.8,0.7c-0.3,0.2-0.5,0.3-0.8,0.4S180.1,192.7,179.8,192.7z M182.2,192.6c-0.1,0-0.1,0-0.1-0.1
				c0-0.2,0-0.3-0.1-0.5c0-0.2,0-0.3,0-0.5l-0.1-0.5v-4.2c0-0.1,0-0.1,0.1-0.1h0.8c0.1,0,0.1,0,0.1,0.1v4.3c0,0.2,0,0.4,0,0.7
				s0,0.5,0.1,0.7c0,0.1,0,0.1-0.1,0.1H182.2z"/>
		</g>
		<g class="st3">
			<path class="st4" d="M184.9,192.6c-0.1,0-0.1,0-0.1-0.1v-4.3c0-0.2,0-0.4,0-0.7s0-0.4-0.1-0.6c0-0.1,0-0.1,0.1-0.1h0.7
				c0.1,0,0.1,0,0.1,0.1c0,0.2,0.1,0.3,0.1,0.5c0,0.2,0,0.4,0,0.5l0,0.6v4c0,0.1,0,0.1-0.1,0.1H184.9z M185.6,188.9l0-1
				c0.2-0.2,0.4-0.5,0.6-0.7s0.4-0.3,0.7-0.5c0.2-0.1,0.4-0.2,0.6-0.2c0.1,0,0.3,0,0.3,0c0.1,0,0.1,0.1,0.1,0.1c0,0.2,0,0.3,0,0.5
				s0,0.3,0,0.5c0,0.1-0.1,0.1-0.2,0.1c-0.1,0-0.1,0-0.2,0c-0.1,0-0.1,0-0.2,0c-0.2,0-0.4,0-0.6,0.1c-0.2,0.1-0.4,0.2-0.6,0.4
				C185.9,188.5,185.8,188.7,185.6,188.9z"/>
		</g>
		<g class="st3">
			<path class="st4" d="M191.1,192.7c-0.8,0-1.4-0.2-1.8-0.5c-0.4-0.4-0.6-0.9-0.6-1.6v-1.7c0-0.8,0.2-1.3,0.6-1.7
				c0.4-0.4,1-0.6,1.8-0.6c0.8,0,1.4,0.2,1.8,0.6c0.4,0.4,0.6,1,0.6,1.7v0.9c0,0.1,0,0.1-0.1,0.1h-3.6v0.4c0,0.5,0.1,0.9,0.3,1.2
				c0.2,0.2,0.6,0.4,1.1,0.4c0.4,0,0.7-0.1,0.9-0.2s0.3-0.3,0.3-0.5c0-0.1,0-0.1,0.1-0.1h0.8c0.1,0,0.1,0,0.1,0.1
				c0,0.5-0.2,0.9-0.6,1.2C192.4,192.6,191.8,192.7,191.1,192.7z M189.7,189h2.7V189c0-0.5-0.1-0.9-0.3-1.1c-0.2-0.2-0.6-0.4-1-0.4
				c-0.5,0-0.8,0.1-1,0.4C189.9,188.1,189.7,188.5,189.7,189L189.7,189z"/>
			<path class="st4" d="M195.3,194.3l-0.5-0.5c0,0,0-0.1,0-0.2c0.2-0.2,0.3-0.4,0.4-0.5c0.1-0.1,0.2-0.3,0.2-0.5
				c0.1-0.2,0.1-0.4,0.1-0.7v-5.4c0-0.3,0-0.5-0.1-0.7s-0.1-0.3-0.2-0.5c-0.1-0.1-0.3-0.3-0.4-0.5c-0.1-0.1-0.1-0.1,0-0.2l0.5-0.5
				c0,0,0.1,0,0.1,0s0.1,0,0.1,0c0.3,0.2,0.5,0.5,0.7,0.7c0.2,0.2,0.3,0.5,0.3,0.7c0.1,0.3,0.1,0.6,0.1,0.9v5.4c0,0.4,0,0.7-0.1,0.9
				c-0.1,0.3-0.2,0.5-0.3,0.7s-0.4,0.4-0.7,0.7C195.4,194.3,195.4,194.3,195.3,194.3C195.3,194.3,195.3,194.3,195.3,194.3z"/>
		</g>
	</g>
</g>
<g>
	<g>
		<line class="st5" x1="29.2" y1="129.7" x2="329.9" y2="129.7"/>
		<polygon class="st6" points="325.9,133.1 329.3,129.7 325.9,126.3 328.8,126.3 332.2,129.7 328.8,133.1 		"/>
	</g>
	<g class="st3">
		<path class="st4" d="M138.1,147c-0.6,0-1-0.2-1.3-0.6c-0.3-0.4-0.4-0.9-0.4-1.7v-1.5c0-0.8,0.2-1.4,0.6-1.8
			c0.4-0.4,0.9-0.6,1.6-0.6c0.3,0,0.6,0,1,0.1c0.3,0.1,0.6,0.2,0.8,0.3l0.1,0.9c-0.3-0.1-0.5-0.2-0.8-0.3c-0.3-0.1-0.6-0.1-0.8-0.1
			c-0.4,0-0.8,0.1-1,0.4c-0.2,0.3-0.3,0.7-0.3,1.2v1.4c0,0.4,0.1,0.7,0.2,1c0.2,0.2,0.4,0.3,0.7,0.3c0.2,0,0.4,0,0.6-0.1
			s0.4-0.2,0.6-0.4c0.2-0.2,0.5-0.4,0.8-0.7l0,0.9c-0.3,0.3-0.5,0.5-0.8,0.7c-0.2,0.2-0.5,0.3-0.7,0.4
			C138.6,146.9,138.4,147,138.1,147z M140.5,146.8c-0.1,0-0.1,0-0.1-0.1c0-0.1,0-0.3-0.1-0.5s0-0.3,0-0.5l-0.1-0.5v-6.5
			c0-0.1,0-0.1,0.1-0.1h0.8c0.1,0,0.1,0,0.1,0.1v6.7c0,0.1,0,0.2,0,0.4c0,0.2,0,0.3,0,0.5c0,0.1,0,0.3,0,0.3c0,0.1,0,0.2-0.1,0.2
			H140.5z"/>
		<path class="st4" d="M145.3,147c-0.8,0-1.4-0.2-1.8-0.5c-0.4-0.4-0.6-0.9-0.6-1.6v-1.7c0-0.8,0.2-1.3,0.6-1.7
			c0.4-0.4,1-0.6,1.8-0.6s1.4,0.2,1.8,0.6s0.6,1,0.6,1.7v0.9c0,0.1,0,0.1-0.1,0.1h-3.6v0.4c0,0.5,0.1,0.9,0.3,1.2
			c0.2,0.2,0.6,0.4,1.1,0.4c0.4,0,0.7-0.1,0.9-0.2s0.3-0.3,0.3-0.5c0-0.1,0-0.1,0.1-0.1h0.8c0.1,0,0.1,0,0.1,0.1
			c0,0.5-0.2,0.9-0.6,1.2C146.5,146.8,146,147,145.3,147z M143.9,143.3h2.7v-0.1c0-0.5-0.1-0.9-0.3-1.1s-0.6-0.4-1-0.4
			c-0.5,0-0.8,0.1-1,0.4S143.9,142.7,143.9,143.3L143.9,143.3z"/>
		<path class="st4" d="M153.8,147c-0.5,0-0.9-0.1-1.3-0.2c-0.3-0.2-0.6-0.4-0.8-0.7c-0.2-0.3-0.3-0.7-0.3-1.1c0-0.1,0-0.1,0.1-0.1
			h0.8c0.1,0,0.1,0,0.1,0.1c0,0.4,0.1,0.7,0.4,0.9c0.2,0.2,0.6,0.3,1.1,0.3c0.6,0,1-0.1,1.2-0.4c0.3-0.2,0.4-0.6,0.4-1.1v-0.4
			c0-0.4-0.1-0.6-0.2-0.9c-0.1-0.2-0.3-0.4-0.5-0.5c-0.2-0.1-0.6-0.2-0.9-0.2c-0.2,0-0.5,0-0.9,0.1s-0.7,0.2-1,0.3
			c-0.1,0-0.1,0-0.2,0s-0.1-0.1-0.1-0.1l0.4-3.9c0-0.1,0-0.1,0.1-0.1h3.8c0.1,0,0.1,0,0.1,0.1v0.7c0,0.1,0,0.1-0.1,0.1h-3l-0.2,2.1
			c0.3-0.1,0.5-0.1,0.7-0.1c0.2,0,0.4,0,0.6,0c0.8,0,1.3,0.2,1.8,0.6c0.4,0.4,0.6,1.1,0.6,1.9c0,0.8-0.2,1.5-0.7,1.9
			C155.4,146.8,154.7,147,153.8,147z"/>
		<path class="st4" d="M160.6,147c-0.8,0-1.5-0.2-2-0.7c-0.5-0.5-0.7-1.1-0.7-2v-2.7c0-0.9,0.2-1.5,0.7-2c0.5-0.5,1.1-0.7,2-0.7
			s1.5,0.2,2,0.7c0.5,0.5,0.7,1.1,0.7,2v2.7c0,0.9-0.2,1.5-0.7,2C162.1,146.7,161.5,147,160.6,147z M160.6,146.1
			c0.5,0,0.9-0.2,1.2-0.5c0.3-0.3,0.4-0.7,0.4-1.3v-2.9c0-0.5-0.1-1-0.4-1.3c-0.3-0.3-0.7-0.5-1.2-0.5s-0.9,0.2-1.2,0.5
			c-0.3,0.3-0.4,0.7-0.4,1.3v2.9c0,0.5,0.1,1,0.4,1.3C159.7,145.9,160.1,146.1,160.6,146.1z"/>
		<path class="st4" d="M165.1,146.8c-0.1,0-0.1,0-0.1-0.1v-4.3c0-0.2,0-0.4,0-0.7c0-0.2,0-0.4-0.1-0.6c0-0.1,0-0.1,0.1-0.1h0.7
			c0.1,0,0.1,0,0.1,0.1c0,0.1,0,0.2,0.1,0.4c0,0.1,0,0.3,0,0.4c0.4-0.4,0.7-0.6,1-0.8c0.3-0.2,0.7-0.2,1-0.2c0.4,0,0.7,0.1,1,0.3
			c0.3,0.2,0.4,0.5,0.5,0.8c0.4-0.4,0.7-0.7,1.1-0.9c0.3-0.2,0.7-0.3,1.1-0.3c0.5,0,0.9,0.2,1.2,0.5c0.3,0.3,0.4,0.8,0.4,1.5v3.9
			c0,0.1,0,0.1-0.1,0.1h-0.8c-0.1,0-0.1,0-0.1-0.1v-3.8c0-0.4-0.1-0.7-0.2-0.9c-0.1-0.2-0.4-0.3-0.7-0.3c-0.3,0-0.5,0.1-0.8,0.2
			s-0.6,0.4-1,0.8v4c0,0.1,0,0.1-0.1,0.1h-0.8c-0.1,0-0.1,0-0.1-0.1v-3.8c0-0.4-0.1-0.7-0.2-0.9c-0.1-0.2-0.4-0.3-0.7-0.3
			c-0.3,0-0.5,0.1-0.8,0.2c-0.3,0.2-0.6,0.4-1,0.8v4c0,0.1,0,0.1-0.1,0.1H165.1z"/>
		<path class="st4" d="M178.8,147c-0.5,0-0.8-0.1-1.1-0.4c-0.2-0.3-0.4-0.7-0.4-1.2c0-0.4,0.1-0.8,0.2-1c0.2-0.3,0.4-0.5,0.8-0.6
			c0.4-0.1,0.9-0.2,1.5-0.3l1.1-0.1v0.8l-1.2,0.1c-0.6,0-0.9,0.1-1.1,0.3c-0.2,0.2-0.3,0.4-0.3,0.8c0,0.3,0.1,0.5,0.2,0.6
			c0.1,0.1,0.3,0.2,0.5,0.2c0.3,0,0.5-0.1,0.8-0.3c0.3-0.2,0.7-0.5,1.1-1v0.9c-0.3,0.3-0.5,0.5-0.8,0.7c-0.2,0.2-0.5,0.3-0.7,0.4
			S179,147,178.8,147z M181,146.8C181,146.8,181,146.8,181,146.8c-0.1-0.1-0.1-0.1-0.1-0.2c0-0.1,0-0.2-0.1-0.4c0-0.2,0-0.4-0.1-0.6
			l0-0.5v-2.4c0-0.4-0.1-0.7-0.2-0.9c-0.2-0.2-0.4-0.3-0.8-0.3c-0.7,0-1.1,0.2-1.1,0.7c0,0.1,0,0.1-0.1,0.1h-0.8
			c-0.1,0-0.1-0.1-0.1-0.2c0-0.5,0.1-0.8,0.5-1.1c0.4-0.3,0.9-0.4,1.6-0.4c0.7,0,1.2,0.2,1.6,0.5c0.3,0.3,0.5,0.8,0.5,1.5v2.6
			c0,0.3,0,0.5,0,0.8c0,0.2,0,0.4,0.1,0.6c0,0.1,0,0.1-0.1,0.1H181z M179.6,140.2c-0.1,0-0.1,0-0.1-0.1l-1-1.5c0,0,0-0.1,0-0.1
			c0,0,0,0,0.1,0h0.8c0.1,0,0.1,0,0.1,0.1l0.8,1.5c0,0.1,0,0.1-0.1,0.1H179.6z"/>
		<path class="st4" d="M185.8,146.8c-0.1,0-0.1,0-0.1-0.1V146c0-0.1,0-0.1,0.1-0.1h1.9v-5.8l-1.8,0.6c-0.1,0-0.1,0-0.1-0.1v-0.7
			c0-0.1,0-0.1,0.1-0.1l2.5-0.8c0,0,0,0,0.1,0c0,0,0.1,0,0.1,0h0.1c0.1,0,0.1,0,0.1,0.1v6.9h1.7c0.1,0,0.1,0,0.1,0.1v0.7
			c0,0.1,0,0.1-0.1,0.1H185.8z"/>
		<path class="st4" d="M194.1,147c-0.8,0-1.5-0.2-2-0.7c-0.5-0.5-0.7-1.1-0.7-2v-2.7c0-0.9,0.2-1.5,0.7-2c0.5-0.5,1.1-0.7,2-0.7
			s1.5,0.2,2,0.7c0.5,0.5,0.7,1.1,0.7,2v2.7c0,0.9-0.2,1.5-0.7,2C195.6,146.7,195,147,194.1,147z M194.1,146.1
			c0.5,0,0.9-0.2,1.2-0.5c0.3-0.3,0.4-0.7,0.4-1.3v-2.9c0-0.5-0.1-1-0.4-1.3c-0.3-0.3-0.7-0.5-1.2-0.5s-0.9,0.2-1.2,0.5
			c-0.3,0.3-0.4,0.7-0.4,1.3v2.9c0,0.5,0.1,1,0.4,1.3C193.2,145.9,193.6,146.1,194.1,146.1z"/>
		<path class="st4" d="M201.1,147c-0.8,0-1.5-0.2-2-0.7c-0.5-0.5-0.7-1.1-0.7-2v-2.7c0-0.9,0.2-1.5,0.7-2c0.5-0.5,1.1-0.7,2-0.7
			s1.5,0.2,2,0.7c0.5,0.5,0.7,1.1,0.7,2v2.7c0,0.9-0.2,1.5-0.7,2C202.6,146.7,201.9,147,201.1,147z M201.1,146.1
			c0.5,0,0.9-0.2,1.2-0.5c0.3-0.3,0.4-0.7,0.4-1.3v-2.9c0-0.5-0.1-1-0.4-1.3c-0.3-0.3-0.7-0.5-1.2-0.5s-0.9,0.2-1.2,0.5
			c-0.3,0.3-0.4,0.7-0.4,1.3v2.9c0,0.5,0.1,1,0.4,1.3C200.2,145.9,200.6,146.1,201.1,146.1z"/>
		<path class="st4" d="M205.6,146.8c-0.1,0-0.1,0-0.1-0.1v-4.3c0-0.2,0-0.4,0-0.7c0-0.2,0-0.4-0.1-0.6c0-0.1,0-0.1,0.1-0.1h0.7
			c0.1,0,0.1,0,0.1,0.1c0,0.1,0,0.2,0.1,0.4c0,0.1,0,0.3,0,0.4c0.4-0.4,0.7-0.6,1-0.8c0.3-0.2,0.7-0.2,1-0.2c0.4,0,0.7,0.1,1,0.3
			c0.3,0.2,0.4,0.5,0.5,0.8c0.4-0.4,0.7-0.7,1.1-0.9c0.3-0.2,0.7-0.3,1.1-0.3c0.5,0,0.9,0.2,1.2,0.5c0.3,0.3,0.4,0.8,0.4,1.5v3.9
			c0,0.1,0,0.1-0.1,0.1h-0.8c-0.1,0-0.1,0-0.1-0.1v-3.8c0-0.4-0.1-0.7-0.2-0.9c-0.1-0.2-0.4-0.3-0.7-0.3c-0.3,0-0.5,0.1-0.8,0.2
			s-0.6,0.4-1,0.8v4c0,0.1,0,0.1-0.1,0.1h-0.8c-0.1,0-0.1,0-0.1-0.1v-3.8c0-0.4-0.1-0.7-0.2-0.9c-0.1-0.2-0.4-0.3-0.7-0.3
			c-0.3,0-0.5,0.1-0.8,0.2c-0.3,0.2-0.6,0.4-1,0.8v4c0,0.1,0,0.1-0.1,0.1H205.6z"/>
	</g>
</g>
</svg>
